<?xml version="1.0" encoding="utf-8" standalone="no"?>
<!DOCTYPE svg PUBLIC "-//W3C//DTD SVG 1.1//EN"
  "http://www.w3.org/Graphics/SVG/1.1/DTD/svg11.dtd">
<svg xmlns:xlink="http://www.w3.org/1999/xlink" width="1152pt" height="432pt" viewBox="0 0 1152 432" xmlns="http://www.w3.org/2000/svg" version="1.1">
 <metadata>
  <rdf:RDF xmlns:dc="http://purl.org/dc/elements/1.1/" xmlns:cc="http://creativecommons.org/ns#" xmlns:rdf="http://www.w3.org/1999/02/22-rdf-syntax-ns#">
   <cc:Work>
    <dc:type rdf:resource="http://purl.org/dc/dcmitype/StillImage"/>
    <dc:date>2022-12-29T12:28:53.632049</dc:date>
    <dc:format>image/svg+xml</dc:format>
    <dc:creator>
     <cc:Agent>
      <dc:title>Matplotlib v3.6.0, https://matplotlib.org/</dc:title>
     </cc:Agent>
    </dc:creator>
   </cc:Work>
  </rdf:RDF>
 </metadata>
 <defs>
  <style type="text/css">*{stroke-linejoin: round; stroke-linecap: butt}</style>
 </defs>
 <g id="figure_1">
  <g id="patch_1">
   <path d="M 0 432 
L 1152 432 
L 1152 0 
L 0 0 
L 0 432 
z
" style="fill: none"/>
  </g>
  <g id="axes_1">
   <g id="patch_2">
    <path d="M 49.55 358.935507 
L 577.0375 358.935507 
L 577.0375 10.8 
L 49.55 10.8 
z
" style="fill: #e5e5e5"/>
   </g>
   <g id="matplotlib.axis_1">
    <g id="xtick_1">
     <g id="line2d_1">
      <path d="M 87.841155 358.935507 
L 87.841155 10.8 
" clip-path="url(#p7e335bf61b)" style="fill: none; stroke: #ffffff; stroke-width: 0.8; stroke-linecap: square"/>
     </g>
     <g id="line2d_2">
      <defs>
       <path id="m3e1f11c35f" d="M 0 0 
L 0 3.5 
" style="stroke: #555555; stroke-width: 0.8"/>
      </defs>
      <g>
       <use xlink:href="#m3e1f11c35f" x="87.841155" y="358.935507" style="fill: #555555; stroke: #555555; stroke-width: 0.8"/>
      </g>
     </g>
     <g id="text_1">
      <!-- TPCH-1 -->
      <g style="fill: #555555" transform="translate(73.923504 398.089448) rotate(-40) scale(0.1 -0.1)">
       <defs>
        <path id="DejaVuSans-Bold-54" d="M 31 4666 
L 4331 4666 
L 4331 3756 
L 2784 3756 
L 2784 0 
L 1581 0 
L 1581 3756 
L 31 3756 
L 31 4666 
z
" transform="scale(0.015625)"/>
        <path id="DejaVuSans-Bold-50" d="M 588 4666 
L 2584 4666 
Q 3475 4666 3951 4270 
Q 4428 3875 4428 3144 
Q 4428 2409 3951 2014 
Q 3475 1619 2584 1619 
L 1791 1619 
L 1791 0 
L 588 0 
L 588 4666 
z
M 1791 3794 
L 1791 2491 
L 2456 2491 
Q 2806 2491 2997 2661 
Q 3188 2831 3188 3144 
Q 3188 3456 2997 3625 
Q 2806 3794 2456 3794 
L 1791 3794 
z
" transform="scale(0.015625)"/>
        <path id="DejaVuSans-Bold-43" d="M 4288 256 
Q 3956 84 3597 -3 
Q 3238 -91 2847 -91 
Q 1681 -91 1000 561 
Q 319 1213 319 2328 
Q 319 3447 1000 4098 
Q 1681 4750 2847 4750 
Q 3238 4750 3597 4662 
Q 3956 4575 4288 4403 
L 4288 3438 
Q 3953 3666 3628 3772 
Q 3303 3878 2944 3878 
Q 2300 3878 1931 3465 
Q 1563 3053 1563 2328 
Q 1563 1606 1931 1193 
Q 2300 781 2944 781 
Q 3303 781 3628 887 
Q 3953 994 4288 1222 
L 4288 256 
z
" transform="scale(0.015625)"/>
        <path id="DejaVuSans-Bold-48" d="M 588 4666 
L 1791 4666 
L 1791 2888 
L 3566 2888 
L 3566 4666 
L 4769 4666 
L 4769 0 
L 3566 0 
L 3566 1978 
L 1791 1978 
L 1791 0 
L 588 0 
L 588 4666 
z
" transform="scale(0.015625)"/>
        <path id="DejaVuSans-Bold-2d" d="M 347 2297 
L 2309 2297 
L 2309 1388 
L 347 1388 
L 347 2297 
z
" transform="scale(0.015625)"/>
        <path id="DejaVuSans-Bold-31" d="M 750 831 
L 1813 831 
L 1813 3847 
L 722 3622 
L 722 4441 
L 1806 4666 
L 2950 4666 
L 2950 831 
L 4013 831 
L 4013 0 
L 750 0 
L 750 831 
z
" transform="scale(0.015625)"/>
       </defs>
       <use xlink:href="#DejaVuSans-Bold-54"/>
       <use xlink:href="#DejaVuSans-Bold-50" x="68.212891"/>
       <use xlink:href="#DejaVuSans-Bold-43" x="141.503906"/>
       <use xlink:href="#DejaVuSans-Bold-48" x="214.892578"/>
       <use xlink:href="#DejaVuSans-Bold-2d" x="298.583984"/>
       <use xlink:href="#DejaVuSans-Bold-31" x="340.087891"/>
      </g>
     </g>
    </g>
    <g id="xtick_2">
     <g id="line2d_3">
      <path d="M 145.098957 358.935507 
L 145.098957 10.8 
" clip-path="url(#p7e335bf61b)" style="fill: none; stroke: #ffffff; stroke-width: 0.8; stroke-linecap: square"/>
     </g>
     <g id="line2d_4">
      <g>
       <use xlink:href="#m3e1f11c35f" x="145.098957" y="358.935507" style="fill: #555555; stroke: #555555; stroke-width: 0.8"/>
      </g>
     </g>
     <g id="text_2">
      <!-- TPCH-2 -->
      <g style="fill: #555555" transform="translate(131.181306 398.089448) rotate(-40) scale(0.1 -0.1)">
       <defs>
        <path id="DejaVuSans-Bold-32" d="M 1844 884 
L 3897 884 
L 3897 0 
L 506 0 
L 506 884 
L 2209 2388 
Q 2438 2594 2547 2791 
Q 2656 2988 2656 3200 
Q 2656 3528 2436 3728 
Q 2216 3928 1850 3928 
Q 1569 3928 1234 3808 
Q 900 3688 519 3450 
L 519 4475 
Q 925 4609 1322 4679 
Q 1719 4750 2100 4750 
Q 2938 4750 3402 4381 
Q 3866 4013 3866 3353 
Q 3866 2972 3669 2642 
Q 3472 2313 2841 1759 
L 1844 884 
z
" transform="scale(0.015625)"/>
       </defs>
       <use xlink:href="#DejaVuSans-Bold-54"/>
       <use xlink:href="#DejaVuSans-Bold-50" x="68.212891"/>
       <use xlink:href="#DejaVuSans-Bold-43" x="141.503906"/>
       <use xlink:href="#DejaVuSans-Bold-48" x="214.892578"/>
       <use xlink:href="#DejaVuSans-Bold-2d" x="298.583984"/>
       <use xlink:href="#DejaVuSans-Bold-32" x="340.087891"/>
      </g>
     </g>
    </g>
    <g id="xtick_3">
     <g id="line2d_5">
      <path d="M 202.356759 358.935507 
L 202.356759 10.8 
" clip-path="url(#p7e335bf61b)" style="fill: none; stroke: #ffffff; stroke-width: 0.8; stroke-linecap: square"/>
     </g>
     <g id="line2d_6">
      <g>
       <use xlink:href="#m3e1f11c35f" x="202.356759" y="358.935507" style="fill: #555555; stroke: #555555; stroke-width: 0.8"/>
      </g>
     </g>
     <g id="text_3">
      <!-- TPCH-3 -->
      <g style="fill: #555555" transform="translate(188.439108 398.089448) rotate(-40) scale(0.1 -0.1)">
       <defs>
        <path id="DejaVuSans-Bold-33" d="M 2981 2516 
Q 3453 2394 3698 2092 
Q 3944 1791 3944 1325 
Q 3944 631 3412 270 
Q 2881 -91 1863 -91 
Q 1503 -91 1142 -33 
Q 781 25 428 141 
L 428 1069 
Q 766 900 1098 814 
Q 1431 728 1753 728 
Q 2231 728 2486 893 
Q 2741 1059 2741 1369 
Q 2741 1688 2480 1852 
Q 2219 2016 1709 2016 
L 1228 2016 
L 1228 2791 
L 1734 2791 
Q 2188 2791 2409 2933 
Q 2631 3075 2631 3366 
Q 2631 3634 2415 3781 
Q 2200 3928 1806 3928 
Q 1516 3928 1219 3862 
Q 922 3797 628 3669 
L 628 4550 
Q 984 4650 1334 4700 
Q 1684 4750 2022 4750 
Q 2931 4750 3382 4451 
Q 3834 4153 3834 3553 
Q 3834 3144 3618 2883 
Q 3403 2622 2981 2516 
z
" transform="scale(0.015625)"/>
       </defs>
       <use xlink:href="#DejaVuSans-Bold-54"/>
       <use xlink:href="#DejaVuSans-Bold-50" x="68.212891"/>
       <use xlink:href="#DejaVuSans-Bold-43" x="141.503906"/>
       <use xlink:href="#DejaVuSans-Bold-48" x="214.892578"/>
       <use xlink:href="#DejaVuSans-Bold-2d" x="298.583984"/>
       <use xlink:href="#DejaVuSans-Bold-33" x="340.087891"/>
      </g>
     </g>
    </g>
    <g id="xtick_4">
     <g id="line2d_7">
      <path d="M 259.614561 358.935507 
L 259.614561 10.8 
" clip-path="url(#p7e335bf61b)" style="fill: none; stroke: #ffffff; stroke-width: 0.8; stroke-linecap: square"/>
     </g>
     <g id="line2d_8">
      <g>
       <use xlink:href="#m3e1f11c35f" x="259.614561" y="358.935507" style="fill: #555555; stroke: #555555; stroke-width: 0.8"/>
      </g>
     </g>
     <g id="text_4">
      <!-- TPCH-4 -->
      <g style="fill: #555555" transform="translate(245.69691 398.089448) rotate(-40) scale(0.1 -0.1)">
       <defs>
        <path id="DejaVuSans-Bold-34" d="M 2356 3675 
L 1038 1722 
L 2356 1722 
L 2356 3675 
z
M 2156 4666 
L 3494 4666 
L 3494 1722 
L 4159 1722 
L 4159 850 
L 3494 850 
L 3494 0 
L 2356 0 
L 2356 850 
L 288 850 
L 288 1881 
L 2156 4666 
z
" transform="scale(0.015625)"/>
       </defs>
       <use xlink:href="#DejaVuSans-Bold-54"/>
       <use xlink:href="#DejaVuSans-Bold-50" x="68.212891"/>
       <use xlink:href="#DejaVuSans-Bold-43" x="141.503906"/>
       <use xlink:href="#DejaVuSans-Bold-48" x="214.892578"/>
       <use xlink:href="#DejaVuSans-Bold-2d" x="298.583984"/>
       <use xlink:href="#DejaVuSans-Bold-34" x="340.087891"/>
      </g>
     </g>
    </g>
    <g id="xtick_5">
     <g id="line2d_9">
      <path d="M 316.872363 358.935507 
L 316.872363 10.8 
" clip-path="url(#p7e335bf61b)" style="fill: none; stroke: #ffffff; stroke-width: 0.8; stroke-linecap: square"/>
     </g>
     <g id="line2d_10">
      <g>
       <use xlink:href="#m3e1f11c35f" x="316.872363" y="358.935507" style="fill: #555555; stroke: #555555; stroke-width: 0.8"/>
      </g>
     </g>
     <g id="text_5">
      <!-- TPCH-5 -->
      <g style="fill: #555555" transform="translate(302.954712 398.089448) rotate(-40) scale(0.1 -0.1)">
       <defs>
        <path id="DejaVuSans-Bold-35" d="M 678 4666 
L 3669 4666 
L 3669 3781 
L 1638 3781 
L 1638 3059 
Q 1775 3097 1914 3117 
Q 2053 3138 2203 3138 
Q 3056 3138 3531 2711 
Q 4006 2284 4006 1522 
Q 4006 766 3489 337 
Q 2972 -91 2053 -91 
Q 1656 -91 1267 -14 
Q 878 63 494 219 
L 494 1166 
Q 875 947 1217 837 
Q 1559 728 1863 728 
Q 2300 728 2551 942 
Q 2803 1156 2803 1522 
Q 2803 1891 2551 2103 
Q 2300 2316 1863 2316 
Q 1603 2316 1309 2248 
Q 1016 2181 678 2041 
L 678 4666 
z
" transform="scale(0.015625)"/>
       </defs>
       <use xlink:href="#DejaVuSans-Bold-54"/>
       <use xlink:href="#DejaVuSans-Bold-50" x="68.212891"/>
       <use xlink:href="#DejaVuSans-Bold-43" x="141.503906"/>
       <use xlink:href="#DejaVuSans-Bold-48" x="214.892578"/>
       <use xlink:href="#DejaVuSans-Bold-2d" x="298.583984"/>
       <use xlink:href="#DejaVuSans-Bold-35" x="340.087891"/>
      </g>
     </g>
    </g>
    <g id="xtick_6">
     <g id="line2d_11">
      <path d="M 374.130165 358.935507 
L 374.130165 10.8 
" clip-path="url(#p7e335bf61b)" style="fill: none; stroke: #ffffff; stroke-width: 0.8; stroke-linecap: square"/>
     </g>
     <g id="line2d_12">
      <g>
       <use xlink:href="#m3e1f11c35f" x="374.130165" y="358.935507" style="fill: #555555; stroke: #555555; stroke-width: 0.8"/>
      </g>
     </g>
     <g id="text_6">
      <!-- TPCH-6 -->
      <g style="fill: #555555" transform="translate(360.212513 398.089448) rotate(-40) scale(0.1 -0.1)">
       <defs>
        <path id="DejaVuSans-Bold-36" d="M 2316 2303 
Q 2000 2303 1842 2098 
Q 1684 1894 1684 1484 
Q 1684 1075 1842 870 
Q 2000 666 2316 666 
Q 2634 666 2792 870 
Q 2950 1075 2950 1484 
Q 2950 1894 2792 2098 
Q 2634 2303 2316 2303 
z
M 3803 4544 
L 3803 3681 
Q 3506 3822 3243 3889 
Q 2981 3956 2731 3956 
Q 2194 3956 1894 3657 
Q 1594 3359 1544 2772 
Q 1750 2925 1990 3001 
Q 2231 3078 2516 3078 
Q 3231 3078 3670 2659 
Q 4109 2241 4109 1563 
Q 4109 813 3618 361 
Q 3128 -91 2303 -91 
Q 1394 -91 895 523 
Q 397 1138 397 2266 
Q 397 3422 980 4083 
Q 1563 4744 2578 4744 
Q 2900 4744 3203 4694 
Q 3506 4644 3803 4544 
z
" transform="scale(0.015625)"/>
       </defs>
       <use xlink:href="#DejaVuSans-Bold-54"/>
       <use xlink:href="#DejaVuSans-Bold-50" x="68.212891"/>
       <use xlink:href="#DejaVuSans-Bold-43" x="141.503906"/>
       <use xlink:href="#DejaVuSans-Bold-48" x="214.892578"/>
       <use xlink:href="#DejaVuSans-Bold-2d" x="298.583984"/>
       <use xlink:href="#DejaVuSans-Bold-36" x="340.087891"/>
      </g>
     </g>
    </g>
    <g id="xtick_7">
     <g id="line2d_13">
      <path d="M 431.387966 358.935507 
L 431.387966 10.8 
" clip-path="url(#p7e335bf61b)" style="fill: none; stroke: #ffffff; stroke-width: 0.8; stroke-linecap: square"/>
     </g>
     <g id="line2d_14">
      <g>
       <use xlink:href="#m3e1f11c35f" x="431.387966" y="358.935507" style="fill: #555555; stroke: #555555; stroke-width: 0.8"/>
      </g>
     </g>
     <g id="text_7">
      <!-- TPCH-7 -->
      <g style="fill: #555555" transform="translate(417.470315 398.089448) rotate(-40) scale(0.1 -0.1)">
       <defs>
        <path id="DejaVuSans-Bold-37" d="M 428 4666 
L 3944 4666 
L 3944 3988 
L 2125 0 
L 953 0 
L 2675 3781 
L 428 3781 
L 428 4666 
z
" transform="scale(0.015625)"/>
       </defs>
       <use xlink:href="#DejaVuSans-Bold-54"/>
       <use xlink:href="#DejaVuSans-Bold-50" x="68.212891"/>
       <use xlink:href="#DejaVuSans-Bold-43" x="141.503906"/>
       <use xlink:href="#DejaVuSans-Bold-48" x="214.892578"/>
       <use xlink:href="#DejaVuSans-Bold-2d" x="298.583984"/>
       <use xlink:href="#DejaVuSans-Bold-37" x="340.087891"/>
      </g>
     </g>
    </g>
    <g id="xtick_8">
     <g id="line2d_15">
      <path d="M 488.645768 358.935507 
L 488.645768 10.8 
" clip-path="url(#p7e335bf61b)" style="fill: none; stroke: #ffffff; stroke-width: 0.8; stroke-linecap: square"/>
     </g>
     <g id="line2d_16">
      <g>
       <use xlink:href="#m3e1f11c35f" x="488.645768" y="358.935507" style="fill: #555555; stroke: #555555; stroke-width: 0.8"/>
      </g>
     </g>
     <g id="text_8">
      <!-- TPCH -8 -->
      <g style="fill: #555555" transform="translate(473.394721 400.327153) rotate(-40) scale(0.1 -0.1)">
       <defs>
        <path id="DejaVuSans-Bold-20" transform="scale(0.015625)"/>
        <path id="DejaVuSans-Bold-38" d="M 2228 2088 
Q 1891 2088 1709 1903 
Q 1528 1719 1528 1375 
Q 1528 1031 1709 848 
Q 1891 666 2228 666 
Q 2563 666 2741 848 
Q 2919 1031 2919 1375 
Q 2919 1722 2741 1905 
Q 2563 2088 2228 2088 
z
M 1350 2484 
Q 925 2613 709 2878 
Q 494 3144 494 3541 
Q 494 4131 934 4440 
Q 1375 4750 2228 4750 
Q 3075 4750 3515 4442 
Q 3956 4134 3956 3541 
Q 3956 3144 3739 2878 
Q 3522 2613 3097 2484 
Q 3572 2353 3814 2058 
Q 4056 1763 4056 1313 
Q 4056 619 3595 264 
Q 3134 -91 2228 -91 
Q 1319 -91 855 264 
Q 391 619 391 1313 
Q 391 1763 633 2058 
Q 875 2353 1350 2484 
z
M 1631 3419 
Q 1631 3141 1786 2991 
Q 1941 2841 2228 2841 
Q 2509 2841 2662 2991 
Q 2816 3141 2816 3419 
Q 2816 3697 2662 3845 
Q 2509 3994 2228 3994 
Q 1941 3994 1786 3844 
Q 1631 3694 1631 3419 
z
" transform="scale(0.015625)"/>
       </defs>
       <use xlink:href="#DejaVuSans-Bold-54"/>
       <use xlink:href="#DejaVuSans-Bold-50" x="68.212891"/>
       <use xlink:href="#DejaVuSans-Bold-43" x="141.503906"/>
       <use xlink:href="#DejaVuSans-Bold-48" x="214.892578"/>
       <use xlink:href="#DejaVuSans-Bold-20" x="298.583984"/>
       <use xlink:href="#DejaVuSans-Bold-2d" x="333.398438"/>
       <use xlink:href="#DejaVuSans-Bold-38" x="374.902344"/>
      </g>
     </g>
    </g>
    <g id="xtick_9">
     <g id="line2d_17">
      <path d="M 545.90357 358.935507 
L 545.90357 10.8 
" clip-path="url(#p7e335bf61b)" style="fill: none; stroke: #ffffff; stroke-width: 0.8; stroke-linecap: square"/>
     </g>
     <g id="line2d_18">
      <g>
       <use xlink:href="#m3e1f11c35f" x="545.90357" y="358.935507" style="fill: #555555; stroke: #555555; stroke-width: 0.8"/>
      </g>
     </g>
     <g id="text_9">
      <!-- TPCH-9 -->
      <g style="fill: #555555" transform="translate(531.985919 398.089448) rotate(-40) scale(0.1 -0.1)">
       <defs>
        <path id="DejaVuSans-Bold-39" d="M 641 103 
L 641 966 
Q 928 831 1190 764 
Q 1453 697 1709 697 
Q 2247 697 2547 995 
Q 2847 1294 2900 1881 
Q 2688 1725 2447 1647 
Q 2206 1569 1925 1569 
Q 1209 1569 770 1986 
Q 331 2403 331 3084 
Q 331 3838 820 4291 
Q 1309 4744 2131 4744 
Q 3044 4744 3544 4128 
Q 4044 3513 4044 2388 
Q 4044 1231 3459 570 
Q 2875 -91 1856 -91 
Q 1528 -91 1228 -42 
Q 928 6 641 103 
z
M 2125 2350 
Q 2441 2350 2600 2554 
Q 2759 2759 2759 3169 
Q 2759 3575 2600 3781 
Q 2441 3988 2125 3988 
Q 1809 3988 1650 3781 
Q 1491 3575 1491 3169 
Q 1491 2759 1650 2554 
Q 1809 2350 2125 2350 
z
" transform="scale(0.015625)"/>
       </defs>
       <use xlink:href="#DejaVuSans-Bold-54"/>
       <use xlink:href="#DejaVuSans-Bold-50" x="68.212891"/>
       <use xlink:href="#DejaVuSans-Bold-43" x="141.503906"/>
       <use xlink:href="#DejaVuSans-Bold-48" x="214.892578"/>
       <use xlink:href="#DejaVuSans-Bold-2d" x="298.583984"/>
       <use xlink:href="#DejaVuSans-Bold-39" x="340.087891"/>
      </g>
     </g>
    </g>
    <g id="text_10">
     <!-- Parquet -->
     <g style="fill: #555555" transform="translate(277.625 418.077786) scale(0.16 -0.16)">
      <defs>
       <path id="DejaVuSans-Bold-61" d="M 2106 1575 
Q 1756 1575 1579 1456 
Q 1403 1338 1403 1106 
Q 1403 894 1545 773 
Q 1688 653 1941 653 
Q 2256 653 2472 879 
Q 2688 1106 2688 1447 
L 2688 1575 
L 2106 1575 
z
M 3816 1997 
L 3816 0 
L 2688 0 
L 2688 519 
Q 2463 200 2181 54 
Q 1900 -91 1497 -91 
Q 953 -91 614 226 
Q 275 544 275 1050 
Q 275 1666 698 1953 
Q 1122 2241 2028 2241 
L 2688 2241 
L 2688 2328 
Q 2688 2594 2478 2717 
Q 2269 2841 1825 2841 
Q 1466 2841 1156 2769 
Q 847 2697 581 2553 
L 581 3406 
Q 941 3494 1303 3539 
Q 1666 3584 2028 3584 
Q 2975 3584 3395 3211 
Q 3816 2838 3816 1997 
z
" transform="scale(0.015625)"/>
       <path id="DejaVuSans-Bold-72" d="M 3138 2547 
Q 2991 2616 2845 2648 
Q 2700 2681 2553 2681 
Q 2122 2681 1889 2404 
Q 1656 2128 1656 1613 
L 1656 0 
L 538 0 
L 538 3500 
L 1656 3500 
L 1656 2925 
Q 1872 3269 2151 3426 
Q 2431 3584 2822 3584 
Q 2878 3584 2943 3579 
Q 3009 3575 3134 3559 
L 3138 2547 
z
" transform="scale(0.015625)"/>
       <path id="DejaVuSans-Bold-71" d="M 2181 2772 
Q 1825 2772 1636 2509 
Q 1447 2247 1447 1747 
Q 1447 1247 1636 984 
Q 1825 722 2181 722 
Q 2541 722 2730 984 
Q 2919 1247 2919 1747 
Q 2919 2247 2730 2509 
Q 2541 2772 2181 2772 
z
M 2919 506 
Q 2688 197 2409 53 
Q 2131 -91 1766 -91 
Q 1119 -91 703 423 
Q 288 938 288 1747 
Q 288 2556 703 3067 
Q 1119 3578 1766 3578 
Q 2131 3578 2409 3434 
Q 2688 3291 2919 2981 
L 2919 3500 
L 4044 3500 
L 4044 -1331 
L 2919 -1331 
L 2919 506 
z
" transform="scale(0.015625)"/>
       <path id="DejaVuSans-Bold-75" d="M 500 1363 
L 500 3500 
L 1625 3500 
L 1625 3150 
Q 1625 2866 1622 2436 
Q 1619 2006 1619 1863 
Q 1619 1441 1641 1255 
Q 1663 1069 1716 984 
Q 1784 875 1895 815 
Q 2006 756 2150 756 
Q 2500 756 2700 1025 
Q 2900 1294 2900 1772 
L 2900 3500 
L 4019 3500 
L 4019 0 
L 2900 0 
L 2900 506 
Q 2647 200 2364 54 
Q 2081 -91 1741 -91 
Q 1134 -91 817 281 
Q 500 653 500 1363 
z
" transform="scale(0.015625)"/>
       <path id="DejaVuSans-Bold-65" d="M 4031 1759 
L 4031 1441 
L 1416 1441 
Q 1456 1047 1700 850 
Q 1944 653 2381 653 
Q 2734 653 3104 758 
Q 3475 863 3866 1075 
L 3866 213 
Q 3469 63 3072 -14 
Q 2675 -91 2278 -91 
Q 1328 -91 801 392 
Q 275 875 275 1747 
Q 275 2603 792 3093 
Q 1309 3584 2216 3584 
Q 3041 3584 3536 3087 
Q 4031 2591 4031 1759 
z
M 2881 2131 
Q 2881 2450 2695 2645 
Q 2509 2841 2209 2841 
Q 1884 2841 1681 2658 
Q 1478 2475 1428 2131 
L 2881 2131 
z
" transform="scale(0.015625)"/>
       <path id="DejaVuSans-Bold-74" d="M 1759 4494 
L 1759 3500 
L 2913 3500 
L 2913 2700 
L 1759 2700 
L 1759 1216 
Q 1759 972 1856 886 
Q 1953 800 2241 800 
L 2816 800 
L 2816 0 
L 1856 0 
Q 1194 0 917 276 
Q 641 553 641 1216 
L 641 2700 
L 84 2700 
L 84 3500 
L 641 3500 
L 641 4494 
L 1759 4494 
z
" transform="scale(0.015625)"/>
      </defs>
      <use xlink:href="#DejaVuSans-Bold-50"/>
      <use xlink:href="#DejaVuSans-Bold-61" x="70.666016"/>
      <use xlink:href="#DejaVuSans-Bold-72" x="138.146484"/>
      <use xlink:href="#DejaVuSans-Bold-71" x="187.462891"/>
      <use xlink:href="#DejaVuSans-Bold-75" x="259.044922"/>
      <use xlink:href="#DejaVuSans-Bold-65" x="330.236328"/>
      <use xlink:href="#DejaVuSans-Bold-74" x="398.058594"/>
     </g>
    </g>
   </g>
   <g id="matplotlib.axis_2">
    <g id="ytick_1">
     <g id="line2d_19">
      <path d="M 49.55 358.935507 
L 577.0375 358.935507 
" clip-path="url(#p7e335bf61b)" style="fill: none; stroke: #ffffff; stroke-width: 0.8; stroke-linecap: square"/>
     </g>
     <g id="line2d_20">
      <defs>
       <path id="mf6404dda6b" d="M 0 0 
L -3.5 0 
" style="stroke: #555555; stroke-width: 0.8"/>
      </defs>
      <g>
       <use xlink:href="#mf6404dda6b" x="49.55" y="358.935507" style="fill: #555555; stroke: #555555; stroke-width: 0.8"/>
      </g>
     </g>
     <g id="text_11">
      <!-- 0 -->
      <g style="fill: #555555" transform="translate(36.1875 362.734726) scale(0.1 -0.1)">
       <defs>
        <path id="DejaVuSans-30" d="M 2034 4250 
Q 1547 4250 1301 3770 
Q 1056 3291 1056 2328 
Q 1056 1369 1301 889 
Q 1547 409 2034 409 
Q 2525 409 2770 889 
Q 3016 1369 3016 2328 
Q 3016 3291 2770 3770 
Q 2525 4250 2034 4250 
z
M 2034 4750 
Q 2819 4750 3233 4129 
Q 3647 3509 3647 2328 
Q 3647 1150 3233 529 
Q 2819 -91 2034 -91 
Q 1250 -91 836 529 
Q 422 1150 422 2328 
Q 422 3509 836 4129 
Q 1250 4750 2034 4750 
z
" transform="scale(0.015625)"/>
       </defs>
       <use xlink:href="#DejaVuSans-30"/>
      </g>
     </g>
    </g>
    <g id="ytick_2">
     <g id="line2d_21">
      <path d="M 49.55 304.965964 
L 577.0375 304.965964 
" clip-path="url(#p7e335bf61b)" style="fill: none; stroke: #ffffff; stroke-width: 0.8; stroke-linecap: square"/>
     </g>
     <g id="line2d_22">
      <g>
       <use xlink:href="#mf6404dda6b" x="49.55" y="304.965964" style="fill: #555555; stroke: #555555; stroke-width: 0.8"/>
      </g>
     </g>
     <g id="text_12">
      <!-- 5 -->
      <g style="fill: #555555" transform="translate(36.1875 308.765183) scale(0.1 -0.1)">
       <defs>
        <path id="DejaVuSans-35" d="M 691 4666 
L 3169 4666 
L 3169 4134 
L 1269 4134 
L 1269 2991 
Q 1406 3038 1543 3061 
Q 1681 3084 1819 3084 
Q 2600 3084 3056 2656 
Q 3513 2228 3513 1497 
Q 3513 744 3044 326 
Q 2575 -91 1722 -91 
Q 1428 -91 1123 -41 
Q 819 9 494 109 
L 494 744 
Q 775 591 1075 516 
Q 1375 441 1709 441 
Q 2250 441 2565 725 
Q 2881 1009 2881 1497 
Q 2881 1984 2565 2268 
Q 2250 2553 1709 2553 
Q 1456 2553 1204 2497 
Q 953 2441 691 2322 
L 691 4666 
z
" transform="scale(0.015625)"/>
       </defs>
       <use xlink:href="#DejaVuSans-35"/>
      </g>
     </g>
    </g>
    <g id="ytick_3">
     <g id="line2d_23">
      <path d="M 49.55 250.996421 
L 577.0375 250.996421 
" clip-path="url(#p7e335bf61b)" style="fill: none; stroke: #ffffff; stroke-width: 0.8; stroke-linecap: square"/>
     </g>
     <g id="line2d_24">
      <g>
       <use xlink:href="#mf6404dda6b" x="49.55" y="250.996421" style="fill: #555555; stroke: #555555; stroke-width: 0.8"/>
      </g>
     </g>
     <g id="text_13">
      <!-- 10 -->
      <g style="fill: #555555" transform="translate(29.825 254.79564) scale(0.1 -0.1)">
       <defs>
        <path id="DejaVuSans-31" d="M 794 531 
L 1825 531 
L 1825 4091 
L 703 3866 
L 703 4441 
L 1819 4666 
L 2450 4666 
L 2450 531 
L 3481 531 
L 3481 0 
L 794 0 
L 794 531 
z
" transform="scale(0.015625)"/>
       </defs>
       <use xlink:href="#DejaVuSans-31"/>
       <use xlink:href="#DejaVuSans-30" x="63.623047"/>
      </g>
     </g>
    </g>
    <g id="ytick_4">
     <g id="line2d_25">
      <path d="M 49.55 197.026878 
L 577.0375 197.026878 
" clip-path="url(#p7e335bf61b)" style="fill: none; stroke: #ffffff; stroke-width: 0.8; stroke-linecap: square"/>
     </g>
     <g id="line2d_26">
      <g>
       <use xlink:href="#mf6404dda6b" x="49.55" y="197.026878" style="fill: #555555; stroke: #555555; stroke-width: 0.8"/>
      </g>
     </g>
     <g id="text_14">
      <!-- 15 -->
      <g style="fill: #555555" transform="translate(29.825 200.826097) scale(0.1 -0.1)">
       <use xlink:href="#DejaVuSans-31"/>
       <use xlink:href="#DejaVuSans-35" x="63.623047"/>
      </g>
     </g>
    </g>
    <g id="ytick_5">
     <g id="line2d_27">
      <path d="M 49.55 143.057335 
L 577.0375 143.057335 
" clip-path="url(#p7e335bf61b)" style="fill: none; stroke: #ffffff; stroke-width: 0.8; stroke-linecap: square"/>
     </g>
     <g id="line2d_28">
      <g>
       <use xlink:href="#mf6404dda6b" x="49.55" y="143.057335" style="fill: #555555; stroke: #555555; stroke-width: 0.8"/>
      </g>
     </g>
     <g id="text_15">
      <!-- 20 -->
      <g style="fill: #555555" transform="translate(29.825 146.856554) scale(0.1 -0.1)">
       <defs>
        <path id="DejaVuSans-32" d="M 1228 531 
L 3431 531 
L 3431 0 
L 469 0 
L 469 531 
Q 828 903 1448 1529 
Q 2069 2156 2228 2338 
Q 2531 2678 2651 2914 
Q 2772 3150 2772 3378 
Q 2772 3750 2511 3984 
Q 2250 4219 1831 4219 
Q 1534 4219 1204 4116 
Q 875 4013 500 3803 
L 500 4441 
Q 881 4594 1212 4672 
Q 1544 4750 1819 4750 
Q 2544 4750 2975 4387 
Q 3406 4025 3406 3419 
Q 3406 3131 3298 2873 
Q 3191 2616 2906 2266 
Q 2828 2175 2409 1742 
Q 1991 1309 1228 531 
z
" transform="scale(0.015625)"/>
       </defs>
       <use xlink:href="#DejaVuSans-32"/>
       <use xlink:href="#DejaVuSans-30" x="63.623047"/>
      </g>
     </g>
    </g>
    <g id="ytick_6">
     <g id="line2d_29">
      <path d="M 49.55 89.087792 
L 577.0375 89.087792 
" clip-path="url(#p7e335bf61b)" style="fill: none; stroke: #ffffff; stroke-width: 0.8; stroke-linecap: square"/>
     </g>
     <g id="line2d_30">
      <g>
       <use xlink:href="#mf6404dda6b" x="49.55" y="89.087792" style="fill: #555555; stroke: #555555; stroke-width: 0.8"/>
      </g>
     </g>
     <g id="text_16">
      <!-- 25 -->
      <g style="fill: #555555" transform="translate(29.825 92.887011) scale(0.1 -0.1)">
       <use xlink:href="#DejaVuSans-32"/>
       <use xlink:href="#DejaVuSans-35" x="63.623047"/>
      </g>
     </g>
    </g>
    <g id="ytick_7">
     <g id="line2d_31">
      <path d="M 49.55 35.118249 
L 577.0375 35.118249 
" clip-path="url(#p7e335bf61b)" style="fill: none; stroke: #ffffff; stroke-width: 0.8; stroke-linecap: square"/>
     </g>
     <g id="line2d_32">
      <g>
       <use xlink:href="#mf6404dda6b" x="49.55" y="35.118249" style="fill: #555555; stroke: #555555; stroke-width: 0.8"/>
      </g>
     </g>
     <g id="text_17">
      <!-- 30 -->
      <g style="fill: #555555" transform="translate(29.825 38.917468) scale(0.1 -0.1)">
       <defs>
        <path id="DejaVuSans-33" d="M 2597 2516 
Q 3050 2419 3304 2112 
Q 3559 1806 3559 1356 
Q 3559 666 3084 287 
Q 2609 -91 1734 -91 
Q 1441 -91 1130 -33 
Q 819 25 488 141 
L 488 750 
Q 750 597 1062 519 
Q 1375 441 1716 441 
Q 2309 441 2620 675 
Q 2931 909 2931 1356 
Q 2931 1769 2642 2001 
Q 2353 2234 1838 2234 
L 1294 2234 
L 1294 2753 
L 1863 2753 
Q 2328 2753 2575 2939 
Q 2822 3125 2822 3475 
Q 2822 3834 2567 4026 
Q 2313 4219 1838 4219 
Q 1578 4219 1281 4162 
Q 984 4106 628 3988 
L 628 4550 
Q 988 4650 1302 4700 
Q 1616 4750 1894 4750 
Q 2613 4750 3031 4423 
Q 3450 4097 3450 3541 
Q 3450 3153 3228 2886 
Q 3006 2619 2597 2516 
z
" transform="scale(0.015625)"/>
       </defs>
       <use xlink:href="#DejaVuSans-33"/>
       <use xlink:href="#DejaVuSans-30" x="63.623047"/>
      </g>
     </g>
    </g>
    <g id="text_18">
     <!-- Runtime (s) -->
     <g style="fill: #555555" transform="translate(22.4975 237.605253) rotate(-90) scale(0.16 -0.16)">
      <defs>
       <path id="DejaVuSans-Bold-52" d="M 2297 2597 
Q 2675 2597 2839 2737 
Q 3003 2878 3003 3200 
Q 3003 3519 2839 3656 
Q 2675 3794 2297 3794 
L 1791 3794 
L 1791 2597 
L 2297 2597 
z
M 1791 1766 
L 1791 0 
L 588 0 
L 588 4666 
L 2425 4666 
Q 3347 4666 3776 4356 
Q 4206 4047 4206 3378 
Q 4206 2916 3982 2619 
Q 3759 2322 3309 2181 
Q 3556 2125 3751 1926 
Q 3947 1728 4147 1325 
L 4800 0 
L 3519 0 
L 2950 1159 
Q 2778 1509 2601 1637 
Q 2425 1766 2131 1766 
L 1791 1766 
z
" transform="scale(0.015625)"/>
       <path id="DejaVuSans-Bold-6e" d="M 4056 2131 
L 4056 0 
L 2931 0 
L 2931 347 
L 2931 1631 
Q 2931 2084 2911 2256 
Q 2891 2428 2841 2509 
Q 2775 2619 2662 2680 
Q 2550 2741 2406 2741 
Q 2056 2741 1856 2470 
Q 1656 2200 1656 1722 
L 1656 0 
L 538 0 
L 538 3500 
L 1656 3500 
L 1656 2988 
Q 1909 3294 2193 3439 
Q 2478 3584 2822 3584 
Q 3428 3584 3742 3212 
Q 4056 2841 4056 2131 
z
" transform="scale(0.015625)"/>
       <path id="DejaVuSans-Bold-69" d="M 538 3500 
L 1656 3500 
L 1656 0 
L 538 0 
L 538 3500 
z
M 538 4863 
L 1656 4863 
L 1656 3950 
L 538 3950 
L 538 4863 
z
" transform="scale(0.015625)"/>
       <path id="DejaVuSans-Bold-6d" d="M 3781 2919 
Q 3994 3244 4286 3414 
Q 4578 3584 4928 3584 
Q 5531 3584 5847 3212 
Q 6163 2841 6163 2131 
L 6163 0 
L 5038 0 
L 5038 1825 
Q 5041 1866 5042 1909 
Q 5044 1953 5044 2034 
Q 5044 2406 4934 2573 
Q 4825 2741 4581 2741 
Q 4263 2741 4089 2478 
Q 3916 2216 3909 1719 
L 3909 0 
L 2784 0 
L 2784 1825 
Q 2784 2406 2684 2573 
Q 2584 2741 2328 2741 
Q 2006 2741 1831 2477 
Q 1656 2213 1656 1722 
L 1656 0 
L 531 0 
L 531 3500 
L 1656 3500 
L 1656 2988 
Q 1863 3284 2130 3434 
Q 2397 3584 2719 3584 
Q 3081 3584 3359 3409 
Q 3638 3234 3781 2919 
z
" transform="scale(0.015625)"/>
       <path id="DejaVuSans-Bold-28" d="M 2413 -844 
L 1484 -844 
Q 1006 -72 778 623 
Q 550 1319 550 2003 
Q 550 2688 779 3389 
Q 1009 4091 1484 4856 
L 2413 4856 
Q 2013 4116 1813 3408 
Q 1613 2700 1613 2009 
Q 1613 1319 1811 609 
Q 2009 -100 2413 -844 
z
" transform="scale(0.015625)"/>
       <path id="DejaVuSans-Bold-73" d="M 3272 3391 
L 3272 2541 
Q 2913 2691 2578 2766 
Q 2244 2841 1947 2841 
Q 1628 2841 1473 2761 
Q 1319 2681 1319 2516 
Q 1319 2381 1436 2309 
Q 1553 2238 1856 2203 
L 2053 2175 
Q 2913 2066 3209 1816 
Q 3506 1566 3506 1031 
Q 3506 472 3093 190 
Q 2681 -91 1863 -91 
Q 1516 -91 1145 -36 
Q 775 19 384 128 
L 384 978 
Q 719 816 1070 734 
Q 1422 653 1784 653 
Q 2113 653 2278 743 
Q 2444 834 2444 1013 
Q 2444 1163 2330 1236 
Q 2216 1309 1875 1350 
L 1678 1375 
Q 931 1469 631 1722 
Q 331 1975 331 2491 
Q 331 3047 712 3315 
Q 1094 3584 1881 3584 
Q 2191 3584 2531 3537 
Q 2872 3491 3272 3391 
z
" transform="scale(0.015625)"/>
       <path id="DejaVuSans-Bold-29" d="M 513 -844 
Q 913 -100 1113 609 
Q 1313 1319 1313 2009 
Q 1313 2700 1113 3408 
Q 913 4116 513 4856 
L 1441 4856 
Q 1916 4091 2145 3389 
Q 2375 2688 2375 2003 
Q 2375 1319 2147 623 
Q 1919 -72 1441 -844 
L 513 -844 
z
" transform="scale(0.015625)"/>
      </defs>
      <use xlink:href="#DejaVuSans-Bold-52"/>
      <use xlink:href="#DejaVuSans-Bold-75" x="77.001953"/>
      <use xlink:href="#DejaVuSans-Bold-6e" x="148.193359"/>
      <use xlink:href="#DejaVuSans-Bold-74" x="219.384766"/>
      <use xlink:href="#DejaVuSans-Bold-69" x="267.1875"/>
      <use xlink:href="#DejaVuSans-Bold-6d" x="301.464844"/>
      <use xlink:href="#DejaVuSans-Bold-65" x="405.664062"/>
      <use xlink:href="#DejaVuSans-Bold-20" x="473.486328"/>
      <use xlink:href="#DejaVuSans-Bold-28" x="508.300781"/>
      <use xlink:href="#DejaVuSans-Bold-73" x="554.003906"/>
      <use xlink:href="#DejaVuSans-Bold-29" x="613.525391"/>
     </g>
    </g>
   </g>
   <g id="patch_3">
    <path d="M 73.526705 358.935507 
L 80.68393 358.935507 
L 80.68393 242.001497 
L 73.526705 242.001497 
z
" clip-path="url(#p7e335bf61b)" style="fill: #e24a33"/>
   </g>
   <g id="patch_4">
    <path d="M 130.784506 358.935507 
L 137.941732 358.935507 
L 137.941732 331.590938 
L 130.784506 331.590938 
z
" clip-path="url(#p7e335bf61b)" style="fill: #e24a33"/>
   </g>
   <g id="patch_5">
    <path d="M 188.042308 358.935507 
L 195.199534 358.935507 
L 195.199534 275.462614 
L 188.042308 275.462614 
z
" clip-path="url(#p7e335bf61b)" style="fill: #e24a33"/>
   </g>
   <g id="patch_6">
    <path d="M 245.30011 358.935507 
L 252.457335 358.935507 
L 252.457335 297.410228 
L 245.30011 297.410228 
z
" clip-path="url(#p7e335bf61b)" style="fill: #e24a33"/>
   </g>
   <g id="patch_7">
    <path d="M 302.557912 358.935507 
L 309.715137 358.935507 
L 309.715137 226.890025 
L 302.557912 226.890025 
z
" clip-path="url(#p7e335bf61b)" style="fill: #e24a33"/>
   </g>
   <g id="patch_8">
    <path d="M 359.815714 358.935507 
L 366.972939 358.935507 
L 366.972939 321.516624 
L 359.815714 321.516624 
z
" clip-path="url(#p7e335bf61b)" style="fill: #e24a33"/>
   </g>
   <g id="patch_9">
    <path d="M 417.073516 358.935507 
L 424.230741 358.935507 
L 424.230741 266.107893 
L 417.073516 266.107893 
z
" clip-path="url(#p7e335bf61b)" style="fill: #e24a33"/>
   </g>
   <g id="patch_10">
    <path d="M 474.331318 358.935507 
L 481.488543 358.935507 
L 481.488543 216.096116 
L 474.331318 216.096116 
z
" clip-path="url(#p7e335bf61b)" style="fill: #e24a33"/>
   </g>
   <g id="patch_11">
    <path d="M 531.58912 358.935507 
L 538.746345 358.935507 
L 538.746345 202.783629 
L 531.58912 202.783629 
z
" clip-path="url(#p7e335bf61b)" style="fill: #e24a33"/>
   </g>
   <g id="patch_12">
    <path d="M 80.68393 358.935507 
L 87.841155 358.935507 
L 87.841155 234.697619 
L 80.68393 234.697619 
z
" clip-path="url(#p7e335bf61b)" style="fill: #348abd"/>
   </g>
   <g id="patch_13">
    <path d="M 137.941732 358.935507 
L 145.098957 358.935507 
L 145.098957 318.278451 
L 137.941732 318.278451 
z
" clip-path="url(#p7e335bf61b)" style="fill: #348abd"/>
   </g>
   <g id="patch_14">
    <path d="M 195.199534 358.935507 
L 202.356759 358.935507 
L 202.356759 259.991345 
L 195.199534 259.991345 
z
" clip-path="url(#p7e335bf61b)" style="fill: #348abd"/>
   </g>
   <g id="patch_15">
    <path d="M 252.457335 358.935507 
L 259.614561 358.935507 
L 259.614561 244.160279 
L 252.457335 244.160279 
z
" clip-path="url(#p7e335bf61b)" style="fill: #348abd"/>
   </g>
   <g id="patch_16">
    <path d="M 309.715137 358.935507 
L 316.872363 358.935507 
L 316.872363 230.128198 
L 309.715137 230.128198 
z
" clip-path="url(#p7e335bf61b)" style="fill: #348abd"/>
   </g>
   <g id="patch_17">
    <path d="M 366.972939 358.935507 
L 374.130165 358.935507 
L 374.130165 336.987893 
L 366.972939 336.987893 
z
" clip-path="url(#p7e335bf61b)" style="fill: #348abd"/>
   </g>
   <g id="patch_18">
    <path d="M 424.230741 358.935507 
L 431.387966 358.935507 
L 431.387966 285.177131 
L 424.230741 285.177131 
z
" clip-path="url(#p7e335bf61b)" style="fill: #348abd"/>
   </g>
   <g id="patch_19">
    <path d="M 481.488543 358.935507 
L 488.645768 358.935507 
L 488.645768 212.13835 
L 481.488543 212.13835 
z
" clip-path="url(#p7e335bf61b)" style="fill: #348abd"/>
   </g>
   <g id="patch_20">
    <path d="M 538.746345 358.935507 
L 545.90357 358.935507 
L 545.90357 196.667081 
L 538.746345 196.667081 
z
" clip-path="url(#p7e335bf61b)" style="fill: #348abd"/>
   </g>
   <g id="patch_21">
    <path d="M 87.841155 358.935507 
L 94.99838 358.935507 
L 94.99838 58.145254 
L 87.841155 58.145254 
z
" clip-path="url(#p7e335bf61b)" style="fill: #988ed5"/>
   </g>
   <g id="patch_22">
    <path d="M 145.098957 358.935507 
L 152.256182 358.935507 
L 152.256182 239.842715 
L 145.098957 239.842715 
z
" clip-path="url(#p7e335bf61b)" style="fill: #988ed5"/>
   </g>
   <g id="patch_23">
    <path d="M 202.356759 358.935507 
L 209.513984 358.935507 
L 209.513984 162.846167 
L 202.356759 162.846167 
z
" clip-path="url(#p7e335bf61b)" style="fill: #988ed5"/>
   </g>
   <g id="patch_24">
    <path d="M 259.614561 358.935507 
L 266.771786 358.935507 
L 266.771786 181.915406 
L 259.614561 181.915406 
z
" clip-path="url(#p7e335bf61b)" style="fill: #988ed5"/>
   </g>
   <g id="patch_25">
    <path d="M 316.872363 358.935507 
L 324.029588 358.935507 
L 324.029588 73.97632 
L 316.872363 73.97632 
z
" clip-path="url(#p7e335bf61b)" style="fill: #988ed5"/>
   </g>
   <g id="patch_26">
    <path d="M 374.130165 358.935507 
L 381.28739 358.935507 
L 381.28739 290.933883 
L 374.130165 290.933883 
z
" clip-path="url(#p7e335bf61b)" style="fill: #988ed5"/>
   </g>
   <g id="patch_27">
    <path d="M 431.387966 358.935507 
L 438.545192 358.935507 
L 438.545192 152.412056 
L 431.387966 152.412056 
z
" clip-path="url(#p7e335bf61b)" style="fill: #988ed5"/>
   </g>
   <g id="patch_28">
    <path d="M 488.645768 358.935507 
L 495.802994 358.935507 
L 495.802994 78.65368 
L 488.645768 78.65368 
z
" clip-path="url(#p7e335bf61b)" style="fill: #988ed5"/>
   </g>
   <g id="patch_29">
    <path d="M 545.90357 358.935507 
L 553.060795 358.935507 
L 553.060795 37.636828 
L 545.90357 37.636828 
z
" clip-path="url(#p7e335bf61b)" style="fill: #988ed5"/>
   </g>
   <g id="LineCollection_1">
    <path d="M 77.105317 263.813028 
L 77.105317 220.189966 
" clip-path="url(#p7e335bf61b)" style="fill: none; stroke: #000000; stroke-width: 1.5"/>
    <path d="M 134.363119 333.239735 
L 134.363119 329.942142 
" clip-path="url(#p7e335bf61b)" style="fill: none; stroke: #000000; stroke-width: 1.5"/>
    <path d="M 191.620921 285.491853 
L 191.620921 265.433375 
" clip-path="url(#p7e335bf61b)" style="fill: none; stroke: #000000; stroke-width: 1.5"/>
    <path d="M 248.878723 302.115184 
L 248.878723 292.705272 
" clip-path="url(#p7e335bf61b)" style="fill: none; stroke: #000000; stroke-width: 1.5"/>
    <path d="M 306.136525 241.781447 
L 306.136525 211.998603 
" clip-path="url(#p7e335bf61b)" style="fill: none; stroke: #000000; stroke-width: 1.5"/>
    <path d="M 363.394327 322.13981 
L 363.394327 320.893437 
" clip-path="url(#p7e335bf61b)" style="fill: none; stroke: #000000; stroke-width: 1.5"/>
    <path d="M 420.652129 268.266675 
L 420.652129 263.949111 
" clip-path="url(#p7e335bf61b)" style="fill: none; stroke: #000000; stroke-width: 1.5"/>
    <path d="M 477.90993 231.824635 
L 477.90993 200.367598 
" clip-path="url(#p7e335bf61b)" style="fill: none; stroke: #000000; stroke-width: 1.5"/>
    <path d="M 535.167732 207.884631 
L 535.167732 197.682627 
" clip-path="url(#p7e335bf61b)" style="fill: none; stroke: #000000; stroke-width: 1.5"/>
   </g>
   <g id="LineCollection_2">
    <path d="M 84.262542 237.434678 
L 84.262542 231.96056 
" clip-path="url(#p7e335bf61b)" style="fill: none; stroke: #000000; stroke-width: 1.5"/>
    <path d="M 141.520344 320.994859 
L 141.520344 315.562044 
" clip-path="url(#p7e335bf61b)" style="fill: none; stroke: #000000; stroke-width: 1.5"/>
    <path d="M 198.778146 261.237718 
L 198.778146 258.744972 
" clip-path="url(#p7e335bf61b)" style="fill: none; stroke: #000000; stroke-width: 1.5"/>
    <path d="M 256.035948 252.261705 
L 256.035948 236.058853 
" clip-path="url(#p7e335bf61b)" style="fill: none; stroke: #000000; stroke-width: 1.5"/>
    <path d="M 313.29375 231.374571 
L 313.29375 228.881824 
" clip-path="url(#p7e335bf61b)" style="fill: none; stroke: #000000; stroke-width: 1.5"/>
    <path d="M 370.551552 337.611079 
L 370.551552 336.364706 
" clip-path="url(#p7e335bf61b)" style="fill: none; stroke: #000000; stroke-width: 1.5"/>
    <path d="M 427.809354 287.424063 
L 427.809354 282.9302 
" clip-path="url(#p7e335bf61b)" style="fill: none; stroke: #000000; stroke-width: 1.5"/>
    <path d="M 485.067156 214.297132 
L 485.067156 209.979568 
" clip-path="url(#p7e335bf61b)" style="fill: none; stroke: #000000; stroke-width: 1.5"/>
    <path d="M 542.324958 201.029387 
L 542.324958 192.304775 
" clip-path="url(#p7e335bf61b)" style="fill: none; stroke: #000000; stroke-width: 1.5"/>
   </g>
   <g id="LineCollection_3">
    <path d="M 91.419768 71.157772 
L 91.419768 45.132736 
" clip-path="url(#p7e335bf61b)" style="fill: none; stroke: #000000; stroke-width: 1.5"/>
    <path d="M 148.67757 263.001457 
L 148.67757 216.683974 
" clip-path="url(#p7e335bf61b)" style="fill: none; stroke: #000000; stroke-width: 1.5"/>
    <path d="M 205.935371 190.541186 
L 205.935371 135.151149 
" clip-path="url(#p7e335bf61b)" style="fill: none; stroke: #000000; stroke-width: 1.5"/>
    <path d="M 263.193173 188.993445 
L 263.193173 174.837367 
" clip-path="url(#p7e335bf61b)" style="fill: none; stroke: #000000; stroke-width: 1.5"/>
    <path d="M 320.450975 108.245917 
L 320.450975 39.706722 
" clip-path="url(#p7e335bf61b)" style="fill: none; stroke: #000000; stroke-width: 1.5"/>
    <path d="M 377.708777 293.789683 
L 377.708777 288.078083 
" clip-path="url(#p7e335bf61b)" style="fill: none; stroke: #000000; stroke-width: 1.5"/>
    <path d="M 434.966579 163.006228 
L 434.966579 141.817883 
" clip-path="url(#p7e335bf61b)" style="fill: none; stroke: #000000; stroke-width: 1.5"/>
    <path d="M 492.224381 86.755106 
L 492.224381 70.552254 
" clip-path="url(#p7e335bf61b)" style="fill: none; stroke: #000000; stroke-width: 1.5"/>
    <path d="M 549.482183 47.895774 
L 549.482183 27.377881 
" clip-path="url(#p7e335bf61b)" style="fill: none; stroke: #000000; stroke-width: 1.5"/>
   </g>
   <g id="patch_30">
    <path d="M 49.55 358.935507 
L 49.55 10.8 
" style="fill: none; stroke: #ffffff; stroke-linejoin: miter; stroke-linecap: square"/>
   </g>
   <g id="patch_31">
    <path d="M 577.0375 358.935507 
L 577.0375 10.8 
" style="fill: none; stroke: #ffffff; stroke-linejoin: miter; stroke-linecap: square"/>
   </g>
   <g id="patch_32">
    <path d="M 49.55 358.935507 
L 577.0375 358.935507 
" style="fill: none; stroke: #ffffff; stroke-linejoin: miter; stroke-linecap: square"/>
   </g>
   <g id="patch_33">
    <path d="M 49.55 10.8 
L 577.0375 10.8 
" style="fill: none; stroke: #ffffff; stroke-linejoin: miter; stroke-linecap: square"/>
   </g>
   <g id="legend_1">
    <g id="patch_34">
     <path d="M 273.034375 62.834375 
L 353.553125 62.834375 
Q 355.553125 62.834375 355.553125 60.834375 
L 355.553125 17.8 
Q 355.553125 15.8 353.553125 15.8 
L 273.034375 15.8 
Q 271.034375 15.8 271.034375 17.8 
L 271.034375 60.834375 
Q 271.034375 62.834375 273.034375 62.834375 
z
" style="fill: #e5e5e5; opacity: 0.8; stroke: #cccccc; stroke-width: 0.5; stroke-linejoin: miter"/>
    </g>
    <g id="patch_35">
     <path d="M 275.034375 27.398438 
L 295.034375 27.398438 
L 295.034375 20.398438 
L 275.034375 20.398438 
z
" style="fill: #e24a33"/>
    </g>
    <g id="text_19">
     <!-- Trino -->
     <g transform="translate(303.034375 27.398438) scale(0.1 -0.1)">
      <defs>
       <path id="DejaVuSans-54" d="M -19 4666 
L 3928 4666 
L 3928 4134 
L 2272 4134 
L 2272 0 
L 1638 0 
L 1638 4134 
L -19 4134 
L -19 4666 
z
" transform="scale(0.015625)"/>
       <path id="DejaVuSans-72" d="M 2631 2963 
Q 2534 3019 2420 3045 
Q 2306 3072 2169 3072 
Q 1681 3072 1420 2755 
Q 1159 2438 1159 1844 
L 1159 0 
L 581 0 
L 581 3500 
L 1159 3500 
L 1159 2956 
Q 1341 3275 1631 3429 
Q 1922 3584 2338 3584 
Q 2397 3584 2469 3576 
Q 2541 3569 2628 3553 
L 2631 2963 
z
" transform="scale(0.015625)"/>
       <path id="DejaVuSans-69" d="M 603 3500 
L 1178 3500 
L 1178 0 
L 603 0 
L 603 3500 
z
M 603 4863 
L 1178 4863 
L 1178 4134 
L 603 4134 
L 603 4863 
z
" transform="scale(0.015625)"/>
       <path id="DejaVuSans-6e" d="M 3513 2113 
L 3513 0 
L 2938 0 
L 2938 2094 
Q 2938 2591 2744 2837 
Q 2550 3084 2163 3084 
Q 1697 3084 1428 2787 
Q 1159 2491 1159 1978 
L 1159 0 
L 581 0 
L 581 3500 
L 1159 3500 
L 1159 2956 
Q 1366 3272 1645 3428 
Q 1925 3584 2291 3584 
Q 2894 3584 3203 3211 
Q 3513 2838 3513 2113 
z
" transform="scale(0.015625)"/>
       <path id="DejaVuSans-6f" d="M 1959 3097 
Q 1497 3097 1228 2736 
Q 959 2375 959 1747 
Q 959 1119 1226 758 
Q 1494 397 1959 397 
Q 2419 397 2687 759 
Q 2956 1122 2956 1747 
Q 2956 2369 2687 2733 
Q 2419 3097 1959 3097 
z
M 1959 3584 
Q 2709 3584 3137 3096 
Q 3566 2609 3566 1747 
Q 3566 888 3137 398 
Q 2709 -91 1959 -91 
Q 1206 -91 779 398 
Q 353 888 353 1747 
Q 353 2609 779 3096 
Q 1206 3584 1959 3584 
z
" transform="scale(0.015625)"/>
      </defs>
      <use xlink:href="#DejaVuSans-54"/>
      <use xlink:href="#DejaVuSans-72" x="46.333984"/>
      <use xlink:href="#DejaVuSans-69" x="87.447266"/>
      <use xlink:href="#DejaVuSans-6e" x="115.230469"/>
      <use xlink:href="#DejaVuSans-6f" x="178.609375"/>
     </g>
    </g>
    <g id="patch_36">
     <path d="M 275.034375 42.076563 
L 295.034375 42.076563 
L 295.034375 35.076563 
L 275.034375 35.076563 
z
" style="fill: #348abd"/>
    </g>
    <g id="text_20">
     <!-- Quokka -->
     <g transform="translate(303.034375 42.076563) scale(0.1 -0.1)">
      <defs>
       <path id="DejaVuSans-51" d="M 2522 4238 
Q 1834 4238 1429 3725 
Q 1025 3213 1025 2328 
Q 1025 1447 1429 934 
Q 1834 422 2522 422 
Q 3209 422 3611 934 
Q 4013 1447 4013 2328 
Q 4013 3213 3611 3725 
Q 3209 4238 2522 4238 
z
M 3406 84 
L 4238 -825 
L 3475 -825 
L 2784 -78 
Q 2681 -84 2626 -87 
Q 2572 -91 2522 -91 
Q 1538 -91 948 567 
Q 359 1225 359 2328 
Q 359 3434 948 4092 
Q 1538 4750 2522 4750 
Q 3503 4750 4090 4092 
Q 4678 3434 4678 2328 
Q 4678 1516 4351 937 
Q 4025 359 3406 84 
z
" transform="scale(0.015625)"/>
       <path id="DejaVuSans-75" d="M 544 1381 
L 544 3500 
L 1119 3500 
L 1119 1403 
Q 1119 906 1312 657 
Q 1506 409 1894 409 
Q 2359 409 2629 706 
Q 2900 1003 2900 1516 
L 2900 3500 
L 3475 3500 
L 3475 0 
L 2900 0 
L 2900 538 
Q 2691 219 2414 64 
Q 2138 -91 1772 -91 
Q 1169 -91 856 284 
Q 544 659 544 1381 
z
M 1991 3584 
L 1991 3584 
z
" transform="scale(0.015625)"/>
       <path id="DejaVuSans-6b" d="M 581 4863 
L 1159 4863 
L 1159 1991 
L 2875 3500 
L 3609 3500 
L 1753 1863 
L 3688 0 
L 2938 0 
L 1159 1709 
L 1159 0 
L 581 0 
L 581 4863 
z
" transform="scale(0.015625)"/>
       <path id="DejaVuSans-61" d="M 2194 1759 
Q 1497 1759 1228 1600 
Q 959 1441 959 1056 
Q 959 750 1161 570 
Q 1363 391 1709 391 
Q 2188 391 2477 730 
Q 2766 1069 2766 1631 
L 2766 1759 
L 2194 1759 
z
M 3341 1997 
L 3341 0 
L 2766 0 
L 2766 531 
Q 2569 213 2275 61 
Q 1981 -91 1556 -91 
Q 1019 -91 701 211 
Q 384 513 384 1019 
Q 384 1609 779 1909 
Q 1175 2209 1959 2209 
L 2766 2209 
L 2766 2266 
Q 2766 2663 2505 2880 
Q 2244 3097 1772 3097 
Q 1472 3097 1187 3025 
Q 903 2953 641 2809 
L 641 3341 
Q 956 3463 1253 3523 
Q 1550 3584 1831 3584 
Q 2591 3584 2966 3190 
Q 3341 2797 3341 1997 
z
" transform="scale(0.015625)"/>
      </defs>
      <use xlink:href="#DejaVuSans-51"/>
      <use xlink:href="#DejaVuSans-75" x="78.710938"/>
      <use xlink:href="#DejaVuSans-6f" x="142.089844"/>
      <use xlink:href="#DejaVuSans-6b" x="203.271484"/>
      <use xlink:href="#DejaVuSans-6b" x="261.181641"/>
      <use xlink:href="#DejaVuSans-61" x="317.341797"/>
     </g>
    </g>
    <g id="patch_37">
     <path d="M 275.034375 56.754687 
L 295.034375 56.754687 
L 295.034375 49.754687 
L 275.034375 49.754687 
z
" style="fill: #988ed5"/>
    </g>
    <g id="text_21">
     <!-- SparkSQL -->
     <g transform="translate(303.034375 56.754687) scale(0.1 -0.1)">
      <defs>
       <path id="DejaVuSans-53" d="M 3425 4513 
L 3425 3897 
Q 3066 4069 2747 4153 
Q 2428 4238 2131 4238 
Q 1616 4238 1336 4038 
Q 1056 3838 1056 3469 
Q 1056 3159 1242 3001 
Q 1428 2844 1947 2747 
L 2328 2669 
Q 3034 2534 3370 2195 
Q 3706 1856 3706 1288 
Q 3706 609 3251 259 
Q 2797 -91 1919 -91 
Q 1588 -91 1214 -16 
Q 841 59 441 206 
L 441 856 
Q 825 641 1194 531 
Q 1563 422 1919 422 
Q 2459 422 2753 634 
Q 3047 847 3047 1241 
Q 3047 1584 2836 1778 
Q 2625 1972 2144 2069 
L 1759 2144 
Q 1053 2284 737 2584 
Q 422 2884 422 3419 
Q 422 4038 858 4394 
Q 1294 4750 2059 4750 
Q 2388 4750 2728 4690 
Q 3069 4631 3425 4513 
z
" transform="scale(0.015625)"/>
       <path id="DejaVuSans-70" d="M 1159 525 
L 1159 -1331 
L 581 -1331 
L 581 3500 
L 1159 3500 
L 1159 2969 
Q 1341 3281 1617 3432 
Q 1894 3584 2278 3584 
Q 2916 3584 3314 3078 
Q 3713 2572 3713 1747 
Q 3713 922 3314 415 
Q 2916 -91 2278 -91 
Q 1894 -91 1617 61 
Q 1341 213 1159 525 
z
M 3116 1747 
Q 3116 2381 2855 2742 
Q 2594 3103 2138 3103 
Q 1681 3103 1420 2742 
Q 1159 2381 1159 1747 
Q 1159 1113 1420 752 
Q 1681 391 2138 391 
Q 2594 391 2855 752 
Q 3116 1113 3116 1747 
z
" transform="scale(0.015625)"/>
       <path id="DejaVuSans-4c" d="M 628 4666 
L 1259 4666 
L 1259 531 
L 3531 531 
L 3531 0 
L 628 0 
L 628 4666 
z
" transform="scale(0.015625)"/>
      </defs>
      <use xlink:href="#DejaVuSans-53"/>
      <use xlink:href="#DejaVuSans-70" x="63.476562"/>
      <use xlink:href="#DejaVuSans-61" x="126.953125"/>
      <use xlink:href="#DejaVuSans-72" x="188.232422"/>
      <use xlink:href="#DejaVuSans-6b" x="229.345703"/>
      <use xlink:href="#DejaVuSans-53" x="287.255859"/>
      <use xlink:href="#DejaVuSans-51" x="350.732422"/>
      <use xlink:href="#DejaVuSans-4c" x="429.443359"/>
     </g>
    </g>
   </g>
  </g>
  <g id="axes_2">
   <g id="patch_38">
    <path d="M 613.7125 358.935507 
L 1141.2 358.935507 
L 1141.2 10.8 
L 613.7125 10.8 
z
" style="fill: #e5e5e5"/>
   </g>
   <g id="matplotlib.axis_3">
    <g id="xtick_10">
     <g id="line2d_33">
      <path d="M 648.267162 358.935507 
L 648.267162 10.8 
" clip-path="url(#p4d6bf93d82)" style="fill: none; stroke: #ffffff; stroke-width: 0.8; stroke-linecap: square"/>
     </g>
     <g id="line2d_34">
      <g>
       <use xlink:href="#m3e1f11c35f" x="648.267162" y="358.935507" style="fill: #555555; stroke: #555555; stroke-width: 0.8"/>
      </g>
     </g>
     <g id="text_22">
      <!-- TPCH-1 -->
      <g style="fill: #555555" transform="translate(634.349511 398.089448) rotate(-40) scale(0.1 -0.1)">
       <use xlink:href="#DejaVuSans-Bold-54"/>
       <use xlink:href="#DejaVuSans-Bold-50" x="68.212891"/>
       <use xlink:href="#DejaVuSans-Bold-43" x="141.503906"/>
       <use xlink:href="#DejaVuSans-Bold-48" x="214.892578"/>
       <use xlink:href="#DejaVuSans-Bold-2d" x="298.583984"/>
       <use xlink:href="#DejaVuSans-Bold-31" x="340.087891"/>
      </g>
     </g>
    </g>
    <g id="xtick_11">
     <g id="line2d_35">
      <path d="M 704.682938 358.935507 
L 704.682938 10.8 
" clip-path="url(#p4d6bf93d82)" style="fill: none; stroke: #ffffff; stroke-width: 0.8; stroke-linecap: square"/>
     </g>
     <g id="line2d_36">
      <g>
       <use xlink:href="#m3e1f11c35f" x="704.682938" y="358.935507" style="fill: #555555; stroke: #555555; stroke-width: 0.8"/>
      </g>
     </g>
     <g id="text_23">
      <!-- TPCH-2 -->
      <g style="fill: #555555" transform="translate(690.765287 398.089448) rotate(-40) scale(0.1 -0.1)">
       <use xlink:href="#DejaVuSans-Bold-54"/>
       <use xlink:href="#DejaVuSans-Bold-50" x="68.212891"/>
       <use xlink:href="#DejaVuSans-Bold-43" x="141.503906"/>
       <use xlink:href="#DejaVuSans-Bold-48" x="214.892578"/>
       <use xlink:href="#DejaVuSans-Bold-2d" x="298.583984"/>
       <use xlink:href="#DejaVuSans-Bold-32" x="340.087891"/>
      </g>
     </g>
    </g>
    <g id="xtick_12">
     <g id="line2d_37">
      <path d="M 761.098713 358.935507 
L 761.098713 10.8 
" clip-path="url(#p4d6bf93d82)" style="fill: none; stroke: #ffffff; stroke-width: 0.8; stroke-linecap: square"/>
     </g>
     <g id="line2d_38">
      <g>
       <use xlink:href="#m3e1f11c35f" x="761.098713" y="358.935507" style="fill: #555555; stroke: #555555; stroke-width: 0.8"/>
      </g>
     </g>
     <g id="text_24">
      <!-- TPCH-3 -->
      <g style="fill: #555555" transform="translate(747.181062 398.089448) rotate(-40) scale(0.1 -0.1)">
       <use xlink:href="#DejaVuSans-Bold-54"/>
       <use xlink:href="#DejaVuSans-Bold-50" x="68.212891"/>
       <use xlink:href="#DejaVuSans-Bold-43" x="141.503906"/>
       <use xlink:href="#DejaVuSans-Bold-48" x="214.892578"/>
       <use xlink:href="#DejaVuSans-Bold-2d" x="298.583984"/>
       <use xlink:href="#DejaVuSans-Bold-33" x="340.087891"/>
      </g>
     </g>
    </g>
    <g id="xtick_13">
     <g id="line2d_39">
      <path d="M 817.514489 358.935507 
L 817.514489 10.8 
" clip-path="url(#p4d6bf93d82)" style="fill: none; stroke: #ffffff; stroke-width: 0.8; stroke-linecap: square"/>
     </g>
     <g id="line2d_40">
      <g>
       <use xlink:href="#m3e1f11c35f" x="817.514489" y="358.935507" style="fill: #555555; stroke: #555555; stroke-width: 0.8"/>
      </g>
     </g>
     <g id="text_25">
      <!-- TPCH-4 -->
      <g style="fill: #555555" transform="translate(803.596838 398.089448) rotate(-40) scale(0.1 -0.1)">
       <use xlink:href="#DejaVuSans-Bold-54"/>
       <use xlink:href="#DejaVuSans-Bold-50" x="68.212891"/>
       <use xlink:href="#DejaVuSans-Bold-43" x="141.503906"/>
       <use xlink:href="#DejaVuSans-Bold-48" x="214.892578"/>
       <use xlink:href="#DejaVuSans-Bold-2d" x="298.583984"/>
       <use xlink:href="#DejaVuSans-Bold-34" x="340.087891"/>
      </g>
     </g>
    </g>
    <g id="xtick_14">
     <g id="line2d_41">
      <path d="M 873.930264 358.935507 
L 873.930264 10.8 
" clip-path="url(#p4d6bf93d82)" style="fill: none; stroke: #ffffff; stroke-width: 0.8; stroke-linecap: square"/>
     </g>
     <g id="line2d_42">
      <g>
       <use xlink:href="#m3e1f11c35f" x="873.930264" y="358.935507" style="fill: #555555; stroke: #555555; stroke-width: 0.8"/>
      </g>
     </g>
     <g id="text_26">
      <!-- TPCH-5 -->
      <g style="fill: #555555" transform="translate(860.012613 398.089448) rotate(-40) scale(0.1 -0.1)">
       <use xlink:href="#DejaVuSans-Bold-54"/>
       <use xlink:href="#DejaVuSans-Bold-50" x="68.212891"/>
       <use xlink:href="#DejaVuSans-Bold-43" x="141.503906"/>
       <use xlink:href="#DejaVuSans-Bold-48" x="214.892578"/>
       <use xlink:href="#DejaVuSans-Bold-2d" x="298.583984"/>
       <use xlink:href="#DejaVuSans-Bold-35" x="340.087891"/>
      </g>
     </g>
    </g>
    <g id="xtick_15">
     <g id="line2d_43">
      <path d="M 930.346039 358.935507 
L 930.346039 10.8 
" clip-path="url(#p4d6bf93d82)" style="fill: none; stroke: #ffffff; stroke-width: 0.8; stroke-linecap: square"/>
     </g>
     <g id="line2d_44">
      <g>
       <use xlink:href="#m3e1f11c35f" x="930.346039" y="358.935507" style="fill: #555555; stroke: #555555; stroke-width: 0.8"/>
      </g>
     </g>
     <g id="text_27">
      <!-- TPCH-6 -->
      <g style="fill: #555555" transform="translate(916.428388 398.089448) rotate(-40) scale(0.1 -0.1)">
       <use xlink:href="#DejaVuSans-Bold-54"/>
       <use xlink:href="#DejaVuSans-Bold-50" x="68.212891"/>
       <use xlink:href="#DejaVuSans-Bold-43" x="141.503906"/>
       <use xlink:href="#DejaVuSans-Bold-48" x="214.892578"/>
       <use xlink:href="#DejaVuSans-Bold-2d" x="298.583984"/>
       <use xlink:href="#DejaVuSans-Bold-36" x="340.087891"/>
      </g>
     </g>
    </g>
    <g id="xtick_16">
     <g id="line2d_45">
      <path d="M 986.761815 358.935507 
L 986.761815 10.8 
" clip-path="url(#p4d6bf93d82)" style="fill: none; stroke: #ffffff; stroke-width: 0.8; stroke-linecap: square"/>
     </g>
     <g id="line2d_46">
      <g>
       <use xlink:href="#m3e1f11c35f" x="986.761815" y="358.935507" style="fill: #555555; stroke: #555555; stroke-width: 0.8"/>
      </g>
     </g>
     <g id="text_28">
      <!-- TPCH-7 -->
      <g style="fill: #555555" transform="translate(972.844164 398.089448) rotate(-40) scale(0.1 -0.1)">
       <use xlink:href="#DejaVuSans-Bold-54"/>
       <use xlink:href="#DejaVuSans-Bold-50" x="68.212891"/>
       <use xlink:href="#DejaVuSans-Bold-43" x="141.503906"/>
       <use xlink:href="#DejaVuSans-Bold-48" x="214.892578"/>
       <use xlink:href="#DejaVuSans-Bold-2d" x="298.583984"/>
       <use xlink:href="#DejaVuSans-Bold-37" x="340.087891"/>
      </g>
     </g>
    </g>
    <g id="xtick_17">
     <g id="line2d_47">
      <path d="M 1043.17759 358.935507 
L 1043.17759 10.8 
" clip-path="url(#p4d6bf93d82)" style="fill: none; stroke: #ffffff; stroke-width: 0.8; stroke-linecap: square"/>
     </g>
     <g id="line2d_48">
      <g>
       <use xlink:href="#m3e1f11c35f" x="1043.17759" y="358.935507" style="fill: #555555; stroke: #555555; stroke-width: 0.8"/>
      </g>
     </g>
     <g id="text_29">
      <!-- TPCH-8 -->
      <g style="fill: #555555" transform="translate(1029.259939 398.089448) rotate(-40) scale(0.1 -0.1)">
       <use xlink:href="#DejaVuSans-Bold-54"/>
       <use xlink:href="#DejaVuSans-Bold-50" x="68.212891"/>
       <use xlink:href="#DejaVuSans-Bold-43" x="141.503906"/>
       <use xlink:href="#DejaVuSans-Bold-48" x="214.892578"/>
       <use xlink:href="#DejaVuSans-Bold-2d" x="298.583984"/>
       <use xlink:href="#DejaVuSans-Bold-38" x="340.087891"/>
      </g>
     </g>
    </g>
    <g id="xtick_18">
     <g id="line2d_49">
      <path d="M 1099.593366 358.935507 
L 1099.593366 10.8 
" clip-path="url(#p4d6bf93d82)" style="fill: none; stroke: #ffffff; stroke-width: 0.8; stroke-linecap: square"/>
     </g>
     <g id="line2d_50">
      <g>
       <use xlink:href="#m3e1f11c35f" x="1099.593366" y="358.935507" style="fill: #555555; stroke: #555555; stroke-width: 0.8"/>
      </g>
     </g>
     <g id="text_30">
      <!-- TPCH-9 -->
      <g style="fill: #555555" transform="translate(1085.675715 398.089448) rotate(-40) scale(0.1 -0.1)">
       <use xlink:href="#DejaVuSans-Bold-54"/>
       <use xlink:href="#DejaVuSans-Bold-50" x="68.212891"/>
       <use xlink:href="#DejaVuSans-Bold-43" x="141.503906"/>
       <use xlink:href="#DejaVuSans-Bold-48" x="214.892578"/>
       <use xlink:href="#DejaVuSans-Bold-2d" x="298.583984"/>
       <use xlink:href="#DejaVuSans-Bold-39" x="340.087891"/>
      </g>
     </g>
    </g>
    <g id="text_31">
     <!-- CSV -->
     <g style="fill: #555555" transform="translate(859.4825 415.840081) scale(0.16 -0.16)">
      <defs>
       <path id="DejaVuSans-Bold-53" d="M 3834 4519 
L 3834 3531 
Q 3450 3703 3084 3790 
Q 2719 3878 2394 3878 
Q 1963 3878 1756 3759 
Q 1550 3641 1550 3391 
Q 1550 3203 1689 3098 
Q 1828 2994 2194 2919 
L 2706 2816 
Q 3484 2659 3812 2340 
Q 4141 2022 4141 1434 
Q 4141 663 3683 286 
Q 3225 -91 2284 -91 
Q 1841 -91 1394 -6 
Q 947 78 500 244 
L 500 1259 
Q 947 1022 1364 901 
Q 1781 781 2169 781 
Q 2563 781 2772 912 
Q 2981 1044 2981 1288 
Q 2981 1506 2839 1625 
Q 2697 1744 2272 1838 
L 1806 1941 
Q 1106 2091 782 2419 
Q 459 2747 459 3303 
Q 459 4000 909 4375 
Q 1359 4750 2203 4750 
Q 2588 4750 2994 4692 
Q 3400 4634 3834 4519 
z
" transform="scale(0.015625)"/>
       <path id="DejaVuSans-Bold-56" d="M 31 4666 
L 1241 4666 
L 2478 1222 
L 3713 4666 
L 4922 4666 
L 3194 0 
L 1759 0 
L 31 4666 
z
" transform="scale(0.015625)"/>
      </defs>
      <use xlink:href="#DejaVuSans-Bold-43"/>
      <use xlink:href="#DejaVuSans-Bold-53" x="75.263672"/>
      <use xlink:href="#DejaVuSans-Bold-56" x="147.285156"/>
     </g>
    </g>
   </g>
   <g id="matplotlib.axis_4">
    <g id="ytick_8">
     <g id="line2d_51">
      <path d="M 613.7125 358.935507 
L 1141.2 358.935507 
" clip-path="url(#p4d6bf93d82)" style="fill: none; stroke: #ffffff; stroke-width: 0.8; stroke-linecap: square"/>
     </g>
     <g id="line2d_52">
      <g>
       <use xlink:href="#mf6404dda6b" x="613.7125" y="358.935507" style="fill: #555555; stroke: #555555; stroke-width: 0.8"/>
      </g>
     </g>
     <g id="text_32">
      <!-- 0 -->
      <g style="fill: #555555" transform="translate(600.35 362.734726) scale(0.1 -0.1)">
       <use xlink:href="#DejaVuSans-30"/>
      </g>
     </g>
    </g>
    <g id="ytick_9">
     <g id="line2d_53">
      <path d="M 613.7125 296.377464 
L 1141.2 296.377464 
" clip-path="url(#p4d6bf93d82)" style="fill: none; stroke: #ffffff; stroke-width: 0.8; stroke-linecap: square"/>
     </g>
     <g id="line2d_54">
      <g>
       <use xlink:href="#mf6404dda6b" x="613.7125" y="296.377464" style="fill: #555555; stroke: #555555; stroke-width: 0.8"/>
      </g>
     </g>
     <g id="text_33">
      <!-- 20 -->
      <g style="fill: #555555" transform="translate(593.9875 300.176683) scale(0.1 -0.1)">
       <use xlink:href="#DejaVuSans-32"/>
       <use xlink:href="#DejaVuSans-30" x="63.623047"/>
      </g>
     </g>
    </g>
    <g id="ytick_10">
     <g id="line2d_55">
      <path d="M 613.7125 233.819422 
L 1141.2 233.819422 
" clip-path="url(#p4d6bf93d82)" style="fill: none; stroke: #ffffff; stroke-width: 0.8; stroke-linecap: square"/>
     </g>
     <g id="line2d_56">
      <g>
       <use xlink:href="#mf6404dda6b" x="613.7125" y="233.819422" style="fill: #555555; stroke: #555555; stroke-width: 0.8"/>
      </g>
     </g>
     <g id="text_34">
      <!-- 40 -->
      <g style="fill: #555555" transform="translate(593.9875 237.618641) scale(0.1 -0.1)">
       <defs>
        <path id="DejaVuSans-34" d="M 2419 4116 
L 825 1625 
L 2419 1625 
L 2419 4116 
z
M 2253 4666 
L 3047 4666 
L 3047 1625 
L 3713 1625 
L 3713 1100 
L 3047 1100 
L 3047 0 
L 2419 0 
L 2419 1100 
L 313 1100 
L 313 1709 
L 2253 4666 
z
" transform="scale(0.015625)"/>
       </defs>
       <use xlink:href="#DejaVuSans-34"/>
       <use xlink:href="#DejaVuSans-30" x="63.623047"/>
      </g>
     </g>
    </g>
    <g id="ytick_11">
     <g id="line2d_57">
      <path d="M 613.7125 171.261379 
L 1141.2 171.261379 
" clip-path="url(#p4d6bf93d82)" style="fill: none; stroke: #ffffff; stroke-width: 0.8; stroke-linecap: square"/>
     </g>
     <g id="line2d_58">
      <g>
       <use xlink:href="#mf6404dda6b" x="613.7125" y="171.261379" style="fill: #555555; stroke: #555555; stroke-width: 0.8"/>
      </g>
     </g>
     <g id="text_35">
      <!-- 60 -->
      <g style="fill: #555555" transform="translate(593.9875 175.060598) scale(0.1 -0.1)">
       <defs>
        <path id="DejaVuSans-36" d="M 2113 2584 
Q 1688 2584 1439 2293 
Q 1191 2003 1191 1497 
Q 1191 994 1439 701 
Q 1688 409 2113 409 
Q 2538 409 2786 701 
Q 3034 994 3034 1497 
Q 3034 2003 2786 2293 
Q 2538 2584 2113 2584 
z
M 3366 4563 
L 3366 3988 
Q 3128 4100 2886 4159 
Q 2644 4219 2406 4219 
Q 1781 4219 1451 3797 
Q 1122 3375 1075 2522 
Q 1259 2794 1537 2939 
Q 1816 3084 2150 3084 
Q 2853 3084 3261 2657 
Q 3669 2231 3669 1497 
Q 3669 778 3244 343 
Q 2819 -91 2113 -91 
Q 1303 -91 875 529 
Q 447 1150 447 2328 
Q 447 3434 972 4092 
Q 1497 4750 2381 4750 
Q 2619 4750 2861 4703 
Q 3103 4656 3366 4563 
z
" transform="scale(0.015625)"/>
       </defs>
       <use xlink:href="#DejaVuSans-36"/>
       <use xlink:href="#DejaVuSans-30" x="63.623047"/>
      </g>
     </g>
    </g>
    <g id="ytick_12">
     <g id="line2d_59">
      <path d="M 613.7125 108.703337 
L 1141.2 108.703337 
" clip-path="url(#p4d6bf93d82)" style="fill: none; stroke: #ffffff; stroke-width: 0.8; stroke-linecap: square"/>
     </g>
     <g id="line2d_60">
      <g>
       <use xlink:href="#mf6404dda6b" x="613.7125" y="108.703337" style="fill: #555555; stroke: #555555; stroke-width: 0.8"/>
      </g>
     </g>
     <g id="text_36">
      <!-- 80 -->
      <g style="fill: #555555" transform="translate(593.9875 112.502555) scale(0.1 -0.1)">
       <defs>
        <path id="DejaVuSans-38" d="M 2034 2216 
Q 1584 2216 1326 1975 
Q 1069 1734 1069 1313 
Q 1069 891 1326 650 
Q 1584 409 2034 409 
Q 2484 409 2743 651 
Q 3003 894 3003 1313 
Q 3003 1734 2745 1975 
Q 2488 2216 2034 2216 
z
M 1403 2484 
Q 997 2584 770 2862 
Q 544 3141 544 3541 
Q 544 4100 942 4425 
Q 1341 4750 2034 4750 
Q 2731 4750 3128 4425 
Q 3525 4100 3525 3541 
Q 3525 3141 3298 2862 
Q 3072 2584 2669 2484 
Q 3125 2378 3379 2068 
Q 3634 1759 3634 1313 
Q 3634 634 3220 271 
Q 2806 -91 2034 -91 
Q 1263 -91 848 271 
Q 434 634 434 1313 
Q 434 1759 690 2068 
Q 947 2378 1403 2484 
z
M 1172 3481 
Q 1172 3119 1398 2916 
Q 1625 2713 2034 2713 
Q 2441 2713 2670 2916 
Q 2900 3119 2900 3481 
Q 2900 3844 2670 4047 
Q 2441 4250 2034 4250 
Q 1625 4250 1398 4047 
Q 1172 3844 1172 3481 
z
" transform="scale(0.015625)"/>
       </defs>
       <use xlink:href="#DejaVuSans-38"/>
       <use xlink:href="#DejaVuSans-30" x="63.623047"/>
      </g>
     </g>
    </g>
    <g id="ytick_13">
     <g id="line2d_61">
      <path d="M 613.7125 46.145294 
L 1141.2 46.145294 
" clip-path="url(#p4d6bf93d82)" style="fill: none; stroke: #ffffff; stroke-width: 0.8; stroke-linecap: square"/>
     </g>
     <g id="line2d_62">
      <g>
       <use xlink:href="#mf6404dda6b" x="613.7125" y="46.145294" style="fill: #555555; stroke: #555555; stroke-width: 0.8"/>
      </g>
     </g>
     <g id="text_37">
      <!-- 100 -->
      <g style="fill: #555555" transform="translate(587.625 49.944513) scale(0.1 -0.1)">
       <use xlink:href="#DejaVuSans-31"/>
       <use xlink:href="#DejaVuSans-30" x="63.623047"/>
       <use xlink:href="#DejaVuSans-30" x="127.246094"/>
      </g>
     </g>
    </g>
   </g>
   <g id="patch_39">
    <path d="M 637.689205 358.935507 
L 644.741176 358.935507 
L 644.741176 300.130947 
L 637.689205 300.130947 
z
" clip-path="url(#p4d6bf93d82)" style="fill: #e24a33"/>
   </g>
   <g id="patch_40">
    <path d="M 694.10498 358.935507 
L 701.156952 358.935507 
L 701.156952 338.416469 
L 694.10498 338.416469 
z
" clip-path="url(#p4d6bf93d82)" style="fill: #e24a33"/>
   </g>
   <g id="patch_41">
    <path d="M 750.520755 358.935507 
L 757.572727 358.935507 
L 757.572727 285.367249 
L 750.520755 285.367249 
z
" clip-path="url(#p4d6bf93d82)" style="fill: #e24a33"/>
   </g>
   <g id="patch_42">
    <path d="M 806.936531 358.935507 
L 813.988503 358.935507 
L 813.988503 287.619338 
L 806.936531 287.619338 
z
" clip-path="url(#p4d6bf93d82)" style="fill: #e24a33"/>
   </g>
   <g id="patch_43">
    <path d="M 863.352306 358.935507 
L 870.404278 358.935507 
L 870.404278 285.242133 
L 863.352306 285.242133 
z
" clip-path="url(#p4d6bf93d82)" style="fill: #e24a33"/>
   </g>
   <g id="patch_44">
    <path d="M 919.768082 358.935507 
L 926.820053 358.935507 
L 926.820053 300.130947 
L 919.768082 300.130947 
z
" clip-path="url(#p4d6bf93d82)" style="fill: #e24a33"/>
   </g>
   <g id="patch_45">
    <path d="M 976.183857 358.935507 
L 983.235829 358.935507 
L 983.235829 285.242133 
L 976.183857 285.242133 
z
" clip-path="url(#p4d6bf93d82)" style="fill: #e24a33"/>
   </g>
   <g id="patch_46">
    <path d="M 1032.599632 358.935507 
L 1039.651604 358.935507 
L 1039.651604 283.490508 
L 1032.599632 283.490508 
z
" clip-path="url(#p4d6bf93d82)" style="fill: #e24a33"/>
   </g>
   <g id="patch_47">
    <path d="M 1089.015408 358.935507 
L 1096.06738 358.935507 
L 1096.06738 276.358891 
L 1089.015408 276.358891 
z
" clip-path="url(#p4d6bf93d82)" style="fill: #e24a33"/>
   </g>
   <g id="patch_48">
    <path d="M 644.741176 358.935507 
L 651.793148 358.935507 
L 651.793148 274.586413 
L 644.741176 274.586413 
z
" clip-path="url(#p4d6bf93d82)" style="fill: #348abd"/>
   </g>
   <g id="patch_49">
    <path d="M 701.156952 358.935507 
L 708.208924 358.935507 
L 708.208924 329.63749 
L 701.156952 329.63749 
z
" clip-path="url(#p4d6bf93d82)" style="fill: #348abd"/>
   </g>
   <g id="patch_50">
    <path d="M 757.572727 358.935507 
L 764.624699 358.935507 
L 764.624699 269.164716 
L 757.572727 269.164716 
z
" clip-path="url(#p4d6bf93d82)" style="fill: #348abd"/>
   </g>
   <g id="patch_51">
    <path d="M 813.988503 358.935507 
L 821.040475 358.935507 
L 821.040475 278.965476 
L 813.988503 278.965476 
z
" clip-path="url(#p4d6bf93d82)" style="fill: #348abd"/>
   </g>
   <g id="patch_52">
    <path d="M 870.404278 358.935507 
L 877.45625 358.935507 
L 877.45625 264.264336 
L 870.404278 264.264336 
z
" clip-path="url(#p4d6bf93d82)" style="fill: #348abd"/>
   </g>
   <g id="patch_53">
    <path d="M 926.820053 358.935507 
L 933.872025 358.935507 
L 933.872025 298.879786 
L 926.820053 298.879786 
z
" clip-path="url(#p4d6bf93d82)" style="fill: #348abd"/>
   </g>
   <g id="patch_54">
    <path d="M 983.235829 358.935507 
L 990.287801 358.935507 
L 990.287801 268.643399 
L 983.235829 268.643399 
z
" clip-path="url(#p4d6bf93d82)" style="fill: #348abd"/>
   </g>
   <g id="patch_55">
    <path d="M 1039.651604 358.935507 
L 1046.703576 358.935507 
L 1046.703576 254.567839 
L 1039.651604 254.567839 
z
" clip-path="url(#p4d6bf93d82)" style="fill: #348abd"/>
   </g>
   <g id="patch_56">
    <path d="M 1096.06738 358.935507 
L 1103.119352 358.935507 
L 1103.119352 240.80507 
L 1096.06738 240.80507 
z
" clip-path="url(#p4d6bf93d82)" style="fill: #348abd"/>
   </g>
   <g id="patch_57">
    <path d="M 651.793148 358.935507 
L 658.84512 358.935507 
L 658.84512 130.598652 
L 651.793148 130.598652 
z
" clip-path="url(#p4d6bf93d82)" style="fill: #988ed5"/>
   </g>
   <g id="patch_58">
    <path d="M 708.208924 358.935507 
L 715.260896 358.935507 
L 715.260896 293.979406 
L 708.208924 293.979406 
z
" clip-path="url(#p4d6bf93d82)" style="fill: #988ed5"/>
   </g>
   <g id="patch_59">
    <path d="M 764.624699 358.935507 
L 771.676671 358.935507 
L 771.676671 199.933815 
L 764.624699 199.933815 
z
" clip-path="url(#p4d6bf93d82)" style="fill: #988ed5"/>
   </g>
   <g id="patch_60">
    <path d="M 821.040475 358.935507 
L 828.092447 358.935507 
L 828.092447 183.460198 
L 821.040475 183.460198 
z
" clip-path="url(#p4d6bf93d82)" style="fill: #988ed5"/>
   </g>
   <g id="patch_61">
    <path d="M 877.45625 358.935507 
L 884.508222 358.935507 
L 884.508222 182.730354 
L 877.45625 182.730354 
z
" clip-path="url(#p4d6bf93d82)" style="fill: #988ed5"/>
   </g>
   <g id="patch_62">
    <path d="M 933.872025 358.935507 
L 940.923997 358.935507 
L 940.923997 233.715158 
L 933.872025 233.715158 
z
" clip-path="url(#p4d6bf93d82)" style="fill: #988ed5"/>
   </g>
   <g id="patch_63">
    <path d="M 990.287801 358.935507 
L 997.339773 358.935507 
L 997.339773 169.176111 
L 990.287801 169.176111 
z
" clip-path="url(#p4d6bf93d82)" style="fill: #988ed5"/>
   </g>
   <g id="patch_64">
    <path d="M 1046.703576 358.935507 
L 1053.755548 358.935507 
L 1053.755548 196.38886 
L 1046.703576 196.38886 
z
" clip-path="url(#p4d6bf93d82)" style="fill: #988ed5"/>
   </g>
   <g id="patch_65">
    <path d="M 1103.119352 358.935507 
L 1110.171324 358.935507 
L 1110.171324 176.891603 
L 1103.119352 176.891603 
z
" clip-path="url(#p4d6bf93d82)" style="fill: #988ed5"/>
   </g>
   <g id="patch_66">
    <path d="M 658.84512 358.935507 
L 665.897092 358.935507 
L 665.897092 113.916507 
L 658.84512 113.916507 
z
" clip-path="url(#p4d6bf93d82)" style="fill: #777777"/>
   </g>
   <g id="patch_67">
    <path d="M 715.260896 358.935507 
L 722.312868 358.935507 
L 722.312868 288.661972 
L 715.260896 288.661972 
z
" clip-path="url(#p4d6bf93d82)" style="fill: #777777"/>
   </g>
   <g id="patch_68">
    <path d="M 771.676671 358.935507 
L 778.728643 358.935507 
L 778.728643 83.68012 
L 771.676671 83.68012 
z
" clip-path="url(#p4d6bf93d82)" style="fill: #777777"/>
   </g>
   <g id="patch_69">
    <path d="M 828.092447 358.935507 
L 835.144418 358.935507 
L 835.144418 86.808022 
L 828.092447 86.808022 
z
" clip-path="url(#p4d6bf93d82)" style="fill: #777777"/>
   </g>
   <g id="patch_70">
    <path d="M 884.508222 358.935507 
L 891.560194 358.935507 
L 891.560194 81.594852 
L 884.508222 81.594852 
z
" clip-path="url(#p4d6bf93d82)" style="fill: #777777"/>
   </g>
   <g id="patch_71">
    <path d="M 940.923997 358.935507 
L 947.975969 358.935507 
L 947.975969 151.451332 
L 940.923997 151.451332 
z
" clip-path="url(#p4d6bf93d82)" style="fill: #777777"/>
   </g>
   <g id="patch_72">
    <path d="M 997.339773 358.935507 
L 1004.391745 358.935507 
L 1004.391745 73.253779 
L 997.339773 73.253779 
z
" clip-path="url(#p4d6bf93d82)" style="fill: #777777"/>
   </g>
   <g id="patch_73">
    <path d="M 1053.755548 358.935507 
L 1060.80752 358.935507 
L 1060.80752 59.699537 
L 1053.755548 59.699537 
z
" clip-path="url(#p4d6bf93d82)" style="fill: #777777"/>
   </g>
   <g id="patch_74">
    <path d="M 1110.171324 358.935507 
L 1117.223295 358.935507 
L 1117.223295 30.505783 
L 1110.171324 30.505783 
z
" clip-path="url(#p4d6bf93d82)" style="fill: #777777"/>
   </g>
   <g id="LineCollection_4">
    <path d="M 648.267162 276.031129 
L 648.267162 273.141697 
" clip-path="url(#p4d6bf93d82)" style="fill: none; stroke: #000000; stroke-width: 1.5"/>
    <path d="M 704.682938 330.115285 
L 704.682938 329.159695 
" clip-path="url(#p4d6bf93d82)" style="fill: none; stroke: #000000; stroke-width: 1.5"/>
    <path d="M 761.098713 270.728667 
L 761.098713 267.600765 
" clip-path="url(#p4d6bf93d82)" style="fill: none; stroke: #000000; stroke-width: 1.5"/>
    <path d="M 817.514489 280.744076 
L 817.514489 277.186875 
" clip-path="url(#p4d6bf93d82)" style="fill: none; stroke: #000000; stroke-width: 1.5"/>
    <path d="M 873.930264 268.150159 
L 873.930264 260.378513 
" clip-path="url(#p4d6bf93d82)" style="fill: none; stroke: #000000; stroke-width: 1.5"/>
    <path d="M 930.346039 300.007567 
L 930.346039 297.752005 
" clip-path="url(#p4d6bf93d82)" style="fill: none; stroke: #000000; stroke-width: 1.5"/>
    <path d="M 986.761815 272.295596 
L 986.761815 264.991202 
" clip-path="url(#p4d6bf93d82)" style="fill: none; stroke: #000000; stroke-width: 1.5"/>
    <path d="M 1043.17759 255.831966 
L 1043.17759 253.303713 
" clip-path="url(#p4d6bf93d82)" style="fill: none; stroke: #000000; stroke-width: 1.5"/>
    <path d="M 1099.593366 242.107319 
L 1099.593366 239.50282 
" clip-path="url(#p4d6bf93d82)" style="fill: none; stroke: #000000; stroke-width: 1.5"/>
   </g>
   <g id="LineCollection_5">
    <path d="M 655.319134 145.266478 
L 655.319134 115.930825 
" clip-path="url(#p4d6bf93d82)" style="fill: none; stroke: #000000; stroke-width: 1.5"/>
    <path d="M 711.73491 294.766577 
L 711.73491 293.192235 
" clip-path="url(#p4d6bf93d82)" style="fill: none; stroke: #000000; stroke-width: 1.5"/>
    <path d="M 768.150685 214.12475 
L 768.150685 185.74288 
" clip-path="url(#p4d6bf93d82)" style="fill: none; stroke: #000000; stroke-width: 1.5"/>
    <path d="M 824.566461 197.133817 
L 824.566461 169.786578 
" clip-path="url(#p4d6bf93d82)" style="fill: none; stroke: #000000; stroke-width: 1.5"/>
    <path d="M 880.982236 203.556952 
L 880.982236 161.903755 
" clip-path="url(#p4d6bf93d82)" style="fill: none; stroke: #000000; stroke-width: 1.5"/>
    <path d="M 937.398011 244.461373 
L 937.398011 222.968944 
" clip-path="url(#p4d6bf93d82)" style="fill: none; stroke: #000000; stroke-width: 1.5"/>
    <path d="M 993.813787 178.205587 
L 993.813787 160.146635 
" clip-path="url(#p4d6bf93d82)" style="fill: none; stroke: #000000; stroke-width: 1.5"/>
    <path d="M 1050.229562 197.039984 
L 1050.229562 195.737735 
" clip-path="url(#p4d6bf93d82)" style="fill: none; stroke: #000000; stroke-width: 1.5"/>
    <path d="M 1106.645338 192.320121 
L 1106.645338 161.463085 
" clip-path="url(#p4d6bf93d82)" style="fill: none; stroke: #000000; stroke-width: 1.5"/>
   </g>
   <g id="LineCollection_6">
    <path d="M 662.371106 115.722402 
L 662.371106 112.110612 
" clip-path="url(#p4d6bf93d82)" style="fill: none; stroke: #000000; stroke-width: 1.5"/>
    <path d="M 718.786882 290.967585 
L 718.786882 286.35636 
" clip-path="url(#p4d6bf93d82)" style="fill: none; stroke: #000000; stroke-width: 1.5"/>
    <path d="M 775.202657 89.097805 
L 775.202657 78.262434 
" clip-path="url(#p4d6bf93d82)" style="fill: none; stroke: #000000; stroke-width: 1.5"/>
    <path d="M 831.618432 89.935924 
L 831.618432 83.68012 
" clip-path="url(#p4d6bf93d82)" style="fill: none; stroke: #000000; stroke-width: 1.5"/>
    <path d="M 888.034208 86.372801 
L 888.034208 76.816902 
" clip-path="url(#p4d6bf93d82)" style="fill: none; stroke: #000000; stroke-width: 1.5"/>
    <path d="M 944.449983 156.229282 
L 944.449983 146.673383 
" clip-path="url(#p4d6bf93d82)" style="fill: none; stroke: #000000; stroke-width: 1.5"/>
    <path d="M 1000.865759 76.865569 
L 1000.865759 69.641989 
" clip-path="url(#p4d6bf93d82)" style="fill: none; stroke: #000000; stroke-width: 1.5"/>
    <path d="M 1057.281534 61.505432 
L 1057.281534 57.893641 
" clip-path="url(#p4d6bf93d82)" style="fill: none; stroke: #000000; stroke-width: 1.5"/>
    <path d="M 1113.697309 33.633686 
L 1113.697309 27.377881 
" clip-path="url(#p4d6bf93d82)" style="fill: none; stroke: #000000; stroke-width: 1.5"/>
   </g>
   <g id="patch_75">
    <path d="M 613.7125 358.935507 
L 613.7125 10.8 
" style="fill: none; stroke: #ffffff; stroke-linejoin: miter; stroke-linecap: square"/>
   </g>
   <g id="patch_76">
    <path d="M 1141.2 358.935507 
L 1141.2 10.8 
" style="fill: none; stroke: #ffffff; stroke-linejoin: miter; stroke-linecap: square"/>
   </g>
   <g id="patch_77">
    <path d="M 613.7125 358.935507 
L 1141.2 358.935507 
" style="fill: none; stroke: #ffffff; stroke-linejoin: miter; stroke-linecap: square"/>
   </g>
   <g id="patch_78">
    <path d="M 613.7125 10.8 
L 1141.2 10.8 
" style="fill: none; stroke: #ffffff; stroke-linejoin: miter; stroke-linecap: square"/>
   </g>
   <g id="legend_2">
    <g id="patch_79">
     <path d="M 620.7125 77.5125 
L 729.49375 77.5125 
Q 731.49375 77.5125 731.49375 75.5125 
L 731.49375 17.8 
Q 731.49375 15.8 729.49375 15.8 
L 620.7125 15.8 
Q 618.7125 15.8 618.7125 17.8 
L 618.7125 75.5125 
Q 618.7125 77.5125 620.7125 77.5125 
z
" style="fill: #e5e5e5; opacity: 0.8; stroke: #cccccc; stroke-width: 0.5; stroke-linejoin: miter"/>
    </g>
    <g id="patch_80">
     <path d="M 622.7125 27.398438 
L 642.7125 27.398438 
L 642.7125 20.398438 
L 622.7125 20.398438 
z
" style="fill: #e24a33"/>
    </g>
    <g id="text_38">
     <!-- Theoretical Min -->
     <g transform="translate(650.7125 27.398438) scale(0.1 -0.1)">
      <defs>
       <path id="DejaVuSans-68" d="M 3513 2113 
L 3513 0 
L 2938 0 
L 2938 2094 
Q 2938 2591 2744 2837 
Q 2550 3084 2163 3084 
Q 1697 3084 1428 2787 
Q 1159 2491 1159 1978 
L 1159 0 
L 581 0 
L 581 4863 
L 1159 4863 
L 1159 2956 
Q 1366 3272 1645 3428 
Q 1925 3584 2291 3584 
Q 2894 3584 3203 3211 
Q 3513 2838 3513 2113 
z
" transform="scale(0.015625)"/>
       <path id="DejaVuSans-65" d="M 3597 1894 
L 3597 1613 
L 953 1613 
Q 991 1019 1311 708 
Q 1631 397 2203 397 
Q 2534 397 2845 478 
Q 3156 559 3463 722 
L 3463 178 
Q 3153 47 2828 -22 
Q 2503 -91 2169 -91 
Q 1331 -91 842 396 
Q 353 884 353 1716 
Q 353 2575 817 3079 
Q 1281 3584 2069 3584 
Q 2775 3584 3186 3129 
Q 3597 2675 3597 1894 
z
M 3022 2063 
Q 3016 2534 2758 2815 
Q 2500 3097 2075 3097 
Q 1594 3097 1305 2825 
Q 1016 2553 972 2059 
L 3022 2063 
z
" transform="scale(0.015625)"/>
       <path id="DejaVuSans-74" d="M 1172 4494 
L 1172 3500 
L 2356 3500 
L 2356 3053 
L 1172 3053 
L 1172 1153 
Q 1172 725 1289 603 
Q 1406 481 1766 481 
L 2356 481 
L 2356 0 
L 1766 0 
Q 1100 0 847 248 
Q 594 497 594 1153 
L 594 3053 
L 172 3053 
L 172 3500 
L 594 3500 
L 594 4494 
L 1172 4494 
z
" transform="scale(0.015625)"/>
       <path id="DejaVuSans-63" d="M 3122 3366 
L 3122 2828 
Q 2878 2963 2633 3030 
Q 2388 3097 2138 3097 
Q 1578 3097 1268 2742 
Q 959 2388 959 1747 
Q 959 1106 1268 751 
Q 1578 397 2138 397 
Q 2388 397 2633 464 
Q 2878 531 3122 666 
L 3122 134 
Q 2881 22 2623 -34 
Q 2366 -91 2075 -91 
Q 1284 -91 818 406 
Q 353 903 353 1747 
Q 353 2603 823 3093 
Q 1294 3584 2113 3584 
Q 2378 3584 2631 3529 
Q 2884 3475 3122 3366 
z
" transform="scale(0.015625)"/>
       <path id="DejaVuSans-6c" d="M 603 4863 
L 1178 4863 
L 1178 0 
L 603 0 
L 603 4863 
z
" transform="scale(0.015625)"/>
       <path id="DejaVuSans-20" transform="scale(0.015625)"/>
       <path id="DejaVuSans-4d" d="M 628 4666 
L 1569 4666 
L 2759 1491 
L 3956 4666 
L 4897 4666 
L 4897 0 
L 4281 0 
L 4281 4097 
L 3078 897 
L 2444 897 
L 1241 4097 
L 1241 0 
L 628 0 
L 628 4666 
z
" transform="scale(0.015625)"/>
      </defs>
      <use xlink:href="#DejaVuSans-54"/>
      <use xlink:href="#DejaVuSans-68" x="61.083984"/>
      <use xlink:href="#DejaVuSans-65" x="124.462891"/>
      <use xlink:href="#DejaVuSans-6f" x="185.986328"/>
      <use xlink:href="#DejaVuSans-72" x="247.167969"/>
      <use xlink:href="#DejaVuSans-65" x="286.03125"/>
      <use xlink:href="#DejaVuSans-74" x="347.554688"/>
      <use xlink:href="#DejaVuSans-69" x="386.763672"/>
      <use xlink:href="#DejaVuSans-63" x="414.546875"/>
      <use xlink:href="#DejaVuSans-61" x="469.527344"/>
      <use xlink:href="#DejaVuSans-6c" x="530.806641"/>
      <use xlink:href="#DejaVuSans-20" x="558.589844"/>
      <use xlink:href="#DejaVuSans-4d" x="590.376953"/>
      <use xlink:href="#DejaVuSans-69" x="676.65625"/>
      <use xlink:href="#DejaVuSans-6e" x="704.439453"/>
     </g>
    </g>
    <g id="patch_81">
     <path d="M 622.7125 42.076563 
L 642.7125 42.076563 
L 642.7125 35.076563 
L 622.7125 35.076563 
z
" style="fill: #348abd"/>
    </g>
    <g id="text_39">
     <!-- Quokka -->
     <g transform="translate(650.7125 42.076563) scale(0.1 -0.1)">
      <use xlink:href="#DejaVuSans-51"/>
      <use xlink:href="#DejaVuSans-75" x="78.710938"/>
      <use xlink:href="#DejaVuSans-6f" x="142.089844"/>
      <use xlink:href="#DejaVuSans-6b" x="203.271484"/>
      <use xlink:href="#DejaVuSans-6b" x="261.181641"/>
      <use xlink:href="#DejaVuSans-61" x="317.341797"/>
     </g>
    </g>
    <g id="patch_82">
     <path d="M 622.7125 56.754687 
L 642.7125 56.754687 
L 642.7125 49.754687 
L 622.7125 49.754687 
z
" style="fill: #988ed5"/>
    </g>
    <g id="text_40">
     <!-- SparkSQL -->
     <g transform="translate(650.7125 56.754687) scale(0.1 -0.1)">
      <use xlink:href="#DejaVuSans-53"/>
      <use xlink:href="#DejaVuSans-70" x="63.476562"/>
      <use xlink:href="#DejaVuSans-61" x="126.953125"/>
      <use xlink:href="#DejaVuSans-72" x="188.232422"/>
      <use xlink:href="#DejaVuSans-6b" x="229.345703"/>
      <use xlink:href="#DejaVuSans-53" x="287.255859"/>
      <use xlink:href="#DejaVuSans-51" x="350.732422"/>
      <use xlink:href="#DejaVuSans-4c" x="429.443359"/>
     </g>
    </g>
    <g id="patch_83">
     <path d="M 622.7125 71.432813 
L 642.7125 71.432813 
L 642.7125 64.432813 
L 622.7125 64.432813 
z
" style="fill: #777777"/>
    </g>
    <g id="text_41">
     <!-- Trino -->
     <g transform="translate(650.7125 71.432813) scale(0.1 -0.1)">
      <use xlink:href="#DejaVuSans-54"/>
      <use xlink:href="#DejaVuSans-72" x="46.333984"/>
      <use xlink:href="#DejaVuSans-69" x="87.447266"/>
      <use xlink:href="#DejaVuSans-6e" x="115.230469"/>
      <use xlink:href="#DejaVuSans-6f" x="178.609375"/>
     </g>
    </g>
   </g>
  </g>
 </g>
 <defs>
  <clipPath id="p7e335bf61b">
   <rect x="49.55" y="10.8" width="527.4875" height="348.135507"/>
  </clipPath>
  <clipPath id="p4d6bf93d82">
   <rect x="613.7125" y="10.8" width="527.4875" height="348.135507"/>
  </clipPath>
 </defs>
</svg>
