<svg version="1.1" viewBox="0.0 0.0 653.0 401.0" fill="none" stroke="none" stroke-linecap="square" stroke-miterlimit="10" width="653" height="401" xmlns:xlink="http://www.w3.org/1999/xlink" xmlns="http://www.w3.org/2000/svg"><path fill="#ffffff" d="M0 0L653.0 0L653.0 401.0L0 401.0L0 0Z" fill-rule="nonzero"/><path stroke="#333333" stroke-width="1.0" stroke-linecap="butt" d="M101.5 360.5L632.5 360.5" fill-rule="nonzero"/><path stroke="#cccccc" stroke-width="1.0" stroke-linecap="butt" d="M101.5 273.5L632.5 273.5" fill-rule="nonzero"/><path stroke="#cccccc" stroke-width="1.0" stroke-linecap="butt" d="M101.5 185.5L632.5 185.5" fill-rule="nonzero"/><path stroke="#cccccc" stroke-width="1.0" stroke-linecap="butt" d="M101.5 97.5L632.5 97.5" fill-rule="nonzero"/><clipPath id="id_0"><path d="M101.46667 97.78333L632.95 97.78333L632.95 360.95L101.46667 360.95L101.46667 97.78333Z" clip-rule="nonzero"/></clipPath><path stroke="#000000" stroke-width="2.0" stroke-linecap="butt" stroke-opacity="0.0" clip-path="url(#id_0)" d="M149.0 361.0L127.0 361.0L127.0 266.0C127.0 264.89542 127.89543 264.0 129.0 264.0L147.0 264.0C148.10457 264.0 149.0 264.89542 149.0 266.0Z" fill-rule="nonzero"/><path fill="#4285f4" clip-path="url(#id_0)" d="M149.0 361.0L127.0 361.0L127.0 266.0C127.0 264.89542 127.89543 264.0 129.0 264.0L147.0 264.0C148.10457 264.0 149.0 264.89542 149.0 266.0Z" fill-rule="nonzero"/><path stroke="#000000" stroke-width="2.0" stroke-linecap="butt" stroke-opacity="0.0" clip-path="url(#id_0)" d="M222.0 361.0L200.0 361.0L200.0 284.0C200.0 282.89542 200.89543 282.0 202.0 282.0L220.0 282.0C221.10457 282.0 222.0 282.89542 222.0 284.0Z" fill-rule="nonzero"/><path fill="#4285f4" clip-path="url(#id_0)" d="M222.0 361.0L200.0 361.0L200.0 284.0C200.0 282.89542 200.89543 282.0 202.0 282.0L220.0 282.0C221.10457 282.0 222.0 282.89542 222.0 284.0Z" fill-rule="nonzero"/><path stroke="#000000" stroke-width="2.0" stroke-linecap="butt" stroke-opacity="0.0" clip-path="url(#id_0)" d="M294.0 361.0L272.0 361.0L272.0 223.0C272.0 221.89543 272.89542 221.0 274.0 221.0L292.0 221.0C293.10458 221.0 294.0 221.89543 294.0 223.0Z" fill-rule="nonzero"/><path fill="#4285f4" clip-path="url(#id_0)" d="M294.0 361.0L272.0 361.0L272.0 223.0C272.0 221.89543 272.89542 221.0 274.0 221.0L292.0 221.0C293.10458 221.0 294.0 221.89543 294.0 223.0Z" fill-rule="nonzero"/><path stroke="#000000" stroke-width="2.0" stroke-linecap="butt" stroke-opacity="0.0" clip-path="url(#id_0)" d="M366.0 361.0L344.0 361.0L344.0 266.0C344.0 264.89542 344.89542 264.0 346.0 264.0L364.0 264.0C365.10458 264.0 366.0 264.89542 366.0 266.0Z" fill-rule="nonzero"/><path fill="#4285f4" clip-path="url(#id_0)" d="M366.0 361.0L344.0 361.0L344.0 266.0C344.0 264.89542 344.89542 264.0 346.0 264.0L364.0 264.0C365.10458 264.0 366.0 264.89542 366.0 266.0Z" fill-rule="nonzero"/><path stroke="#000000" stroke-width="2.0" stroke-linecap="butt" stroke-opacity="0.0" clip-path="url(#id_0)" d="M439.0 361.0L417.0 361.0L417.0 345.0C417.0 343.89542 417.89542 343.0 419.0 343.0L437.0 343.0C438.10458 343.0 439.0 343.89542 439.0 345.0Z" fill-rule="nonzero"/><path fill="#4285f4" clip-path="url(#id_0)" d="M439.0 361.0L417.0 361.0L417.0 345.0C417.0 343.89542 417.89542 343.0 419.0 343.0L437.0 343.0C438.10458 343.0 439.0 343.89542 439.0 345.0Z" fill-rule="nonzero"/><path stroke="#000000" stroke-width="2.0" stroke-linecap="butt" stroke-opacity="0.0" clip-path="url(#id_0)" d="M511.0 361.0L489.0 361.0L489.0 310.0C489.0 308.89542 489.89542 308.0 491.0 308.0L509.0 308.0C510.10458 308.0 511.0 308.89542 511.0 310.0Z" fill-rule="nonzero"/><path fill="#4285f4" clip-path="url(#id_0)" d="M511.0 361.0L489.0 361.0L489.0 310.0C489.0 308.89542 489.89542 308.0 491.0 308.0L509.0 308.0C510.10458 308.0 511.0 308.89542 511.0 310.0Z" fill-rule="nonzero"/><path stroke="#000000" stroke-width="2.0" stroke-linecap="butt" stroke-opacity="0.0" clip-path="url(#id_0)" d="M583.0 361.0L561.0 361.0L561.0 328.0C561.0 326.89542 561.89545 326.0 563.0 326.0L581.0 326.0C582.10455 326.0 583.0 326.89542 583.0 328.0Z" fill-rule="nonzero"/><path fill="#4285f4" clip-path="url(#id_0)" d="M583.0 361.0L561.0 361.0L561.0 328.0C561.0 326.89542 561.89545 326.0 563.0 326.0L581.0 326.0C582.10455 326.0 583.0 326.89542 583.0 328.0Z" fill-rule="nonzero"/><path stroke="#000000" stroke-width="2.0" stroke-linecap="butt" stroke-opacity="0.0" clip-path="url(#id_0)" d="M173.0 361.0L151.0 361.0L151.0 117.0C151.0 115.89543 151.89543 115.0 153.0 115.0L171.0 115.0C172.10457 115.0 173.0 115.89543 173.0 117.0Z" fill-rule="nonzero"/><path fill="#ea4335" clip-path="url(#id_0)" d="M173.0 361.0L151.0 361.0L151.0 117.0C151.0 115.89543 151.89543 115.0 153.0 115.0L171.0 115.0C172.10457 115.0 173.0 115.89543 173.0 117.0Z" fill-rule="nonzero"/><path stroke="#000000" stroke-width="2.0" stroke-linecap="butt" stroke-opacity="0.0" clip-path="url(#id_0)" d="M246.0 361.0L224.0 361.0L224.0 223.0C224.0 221.89543 224.89543 221.0 226.0 221.0L244.0 221.0C245.10457 221.0 246.0 221.89543 246.0 223.0Z" fill-rule="nonzero"/><path fill="#ea4335" clip-path="url(#id_0)" d="M246.0 361.0L224.0 361.0L224.0 223.0C224.0 221.89543 224.89543 221.0 226.0 221.0L244.0 221.0C245.10457 221.0 246.0 221.89543 246.0 223.0Z" fill-rule="nonzero"/><path stroke="#000000" stroke-width="2.0" stroke-linecap="butt" stroke-opacity="0.0" clip-path="url(#id_0)" d="M318.0 361.0L296.0 361.0L296.0 214.0C296.0 212.89543 296.89542 212.0 298.0 212.0L316.0 212.0C317.10458 212.0 318.0 212.89543 318.0 214.0Z" fill-rule="nonzero"/><path fill="#ea4335" clip-path="url(#id_0)" d="M318.0 361.0L296.0 361.0L296.0 214.0C296.0 212.89543 296.89542 212.0 298.0 212.0L316.0 212.0C317.10458 212.0 318.0 212.89543 318.0 214.0Z" fill-rule="nonzero"/><path stroke="#000000" stroke-width="2.0" stroke-linecap="butt" stroke-opacity="0.0" clip-path="url(#id_0)" d="M390.0 361.0L368.0 361.0L368.0 152.0C368.0 150.89543 368.89542 150.0 370.0 150.0L388.0 150.0C389.10458 150.0 390.0 150.89543 390.0 152.0Z" fill-rule="nonzero"/><path fill="#ea4335" clip-path="url(#id_0)" d="M390.0 361.0L368.0 361.0L368.0 152.0C368.0 150.89543 368.89542 150.0 370.0 150.0L388.0 150.0C389.10458 150.0 390.0 150.89543 390.0 152.0Z" fill-rule="nonzero"/><path stroke="#000000" stroke-width="2.0" stroke-linecap="butt" stroke-opacity="0.0" clip-path="url(#id_0)" d="M463.0 361.0L441.0 361.0L441.0 310.0C441.0 308.89542 441.89542 308.0 443.0 308.0L461.0 308.0C462.10458 308.0 463.0 308.89542 463.0 310.0Z" fill-rule="nonzero"/><path fill="#ea4335" clip-path="url(#id_0)" d="M463.0 361.0L441.0 361.0L441.0 310.0C441.0 308.89542 441.89542 308.0 443.0 308.0L461.0 308.0C462.10458 308.0 463.0 308.89542 463.0 310.0Z" fill-rule="nonzero"/><path stroke="#000000" stroke-width="2.0" stroke-linecap="butt" stroke-opacity="0.0" clip-path="url(#id_0)" d="M535.0 361.0L513.0 361.0L513.0 205.0C513.0 203.89543 513.89545 203.0 515.0 203.0L533.0 203.0C534.10455 203.0 535.0 203.89543 535.0 205.0Z" fill-rule="nonzero"/><path fill="#ea4335" clip-path="url(#id_0)" d="M535.0 361.0L513.0 361.0L513.0 205.0C513.0 203.89543 513.89545 203.0 515.0 203.0L533.0 203.0C534.10455 203.0 535.0 203.89543 535.0 205.0Z" fill-rule="nonzero"/><path stroke="#000000" stroke-width="2.0" stroke-linecap="butt" stroke-opacity="0.0" clip-path="url(#id_0)" d="M607.0 361.0L585.0 361.0L585.0 240.0C585.0 238.89543 585.89545 238.0 587.0 238.0L605.0 238.0C606.10455 238.0 607.0 238.89543 607.0 240.0Z" fill-rule="nonzero"/><path fill="#ea4335" clip-path="url(#id_0)" d="M607.0 361.0L585.0 361.0L585.0 240.0C585.0 238.89543 585.89545 238.0 587.0 238.0L605.0 238.0C606.10455 238.0 607.0 238.89543 607.0 240.0Z" fill-rule="nonzero"/><path fill="#000000" d="M59.86691 295.17123L45.55441 295.17123L45.55441 288.82748Q45.55441 286.92123 45.945034 285.92123Q46.320034 284.92123 47.30441 284.32748Q48.27316 283.73373 49.46066 283.73373Q50.976284 283.73373 52.02316 284.7181Q53.070034 285.70248 53.351284 287.76498Q53.71066 287.01498 54.070034 286.62436Q54.820034 285.79623 55.976284 285.04623L59.86691 282.56186L59.86691 284.93686L56.882534 286.8431Q55.601284 287.67123 54.913784 288.20248Q54.226284 288.73373 53.96066 289.17123Q53.67941 289.5931 53.570034 290.0306Q53.507534 290.35873 53.507534 291.07748L53.507534 293.2806L59.86691 293.2806L59.86691 295.17123ZM51.86691 293.2806L51.86691 289.20248Q51.86691 287.9056 51.601284 287.18686Q51.33566 286.45248 50.74191 286.07748Q50.14816 285.68686 49.46066 285.68686Q48.445034 285.68686 47.788784 286.42123Q47.132534 287.1556 47.132534 288.74936L47.132534 293.2806L51.86691 293.2806ZM59.86691 274.63998L58.33566 274.63998Q60.101284 275.8431 60.101284 277.92123Q60.101284 278.8431 59.757534 279.63998Q59.39816 280.43686 58.86691 280.82748Q58.33566 281.20248 57.55441 281.35873Q57.038784 281.4681 55.913784 281.4681L49.49191 281.4681L49.49191 279.7181L55.24191 279.7181Q56.61691 279.7181 57.101284 279.60873Q57.788784 279.43686 58.195034 278.9056Q58.58566 278.35873 58.58566 277.57748Q58.58566 276.7806 58.17941 276.0931Q57.77316 275.38998 57.08566 275.10873Q56.382534 274.81186 55.05441 274.81186L49.49191 274.81186L49.49191 273.06186L59.86691 273.06186L59.86691 274.63998ZM59.86691 271.43686L49.49191 271.43686L49.49191 269.8431L50.976284 269.8431Q49.257534 268.70248 49.257534 266.54623Q49.257534 265.60873 49.601284 264.82748Q49.92941 264.0306 50.476284 263.63998Q51.02316 263.24936 51.77316 263.0931Q52.27316 262.99936 53.49191 262.99936L59.86691 262.99936L59.86691 264.76498L53.55441 264.76498Q52.476284 264.76498 51.945034 264.9681Q51.413784 265.17123 51.101284 265.70248Q50.788784 266.2181 50.788784 266.92123Q50.788784 268.04623 51.507534 268.85873Q52.21066 269.67123 54.195034 269.67123L59.86691 269.67123L59.86691 271.43686ZM58.288784 257.5931L59.851284 257.3431Q60.007534 258.07748 60.007534 258.67123Q60.007534 259.62436 59.71066 260.1556Q59.39816 260.67123 58.913784 260.88998Q58.413784 261.10873 56.83566 261.10873L50.86691 261.10873L50.86691 262.38998L49.49191 262.38998L49.49191 261.10873L46.92941 261.10873L45.86691 259.35873L49.49191 259.35873L49.49191 257.5931L50.86691 257.5931L50.86691 259.35873L56.92941 259.35873Q57.67941 259.35873 57.89816 259.26498Q58.101284 259.17123 58.24191 258.9681Q58.36691 258.74936 58.36691 258.35873Q58.36691 258.07748 58.288784 257.5931ZM47.570034 255.42125L45.55441 255.42125L45.55441 253.65562L47.570034 253.65562L47.570034 255.42125ZM59.86691 255.42125L49.49191 255.42125L49.49191 253.65562L59.86691 253.65562L59.86691 255.42125ZM59.86691 251.43687L49.49191 251.43687L49.49191 249.85875L50.945034 249.85875Q50.195034 249.37437 49.726284 248.56187Q49.257534 247.74937 49.257534 246.71812Q49.257534 245.56187 49.74191 244.8275Q50.21066 244.09312 51.070034 243.78062Q49.257534 242.54625 49.257534 240.5775Q49.257534 239.03062 50.11691 238.2025Q50.976284 237.37437 52.74191 237.37437L59.86691 237.37437L59.86691 239.12437L53.33566 239.12437Q52.27316 239.12437 51.820034 239.29625Q51.351284 239.46812 51.070034 239.92125Q50.788784 240.35875 50.788784 240.96812Q50.788784 242.06187 51.52316 242.79625Q52.24191 243.515 53.83566 243.515L59.86691 243.515L59.86691 245.265L53.132534 245.265Q51.96066 245.265 51.382534 245.7025Q50.788784 246.12437 50.788784 247.10875Q50.788784 247.84312 51.17941 248.48375Q51.570034 249.10875 52.320034 249.39Q53.070034 249.67125 54.49191 249.67125L59.86691 249.67125L59.86691 251.43687ZM56.52316 228.3275L56.757534 226.515Q58.33566 226.93687 59.226284 228.10875Q60.101284 229.265 60.101284 231.0775Q60.101284 233.34312 58.71066 234.68687Q57.30441 236.015 54.77316 236.015Q52.14816 236.015 50.71066 234.67125Q49.257534 233.3275 49.257534 231.17125Q49.257534 229.09312 50.67941 227.78062Q52.08566 226.4525 54.663784 226.4525Q54.820034 226.4525 55.132534 226.46812L55.132534 234.2025Q56.83566 234.10875 57.74191 233.23375Q58.64816 232.35875 58.64816 231.06187Q58.64816 230.09312 58.14816 229.42125Q57.632534 228.73375 56.52316 228.3275ZM53.67941 234.10875L53.67941 228.31187Q52.382534 228.42125 51.726284 228.96812Q50.71066 229.81187 50.71066 231.15562Q50.71066 232.35875 51.52316 233.18687Q52.320034 234.015 53.67941 234.10875ZM64.07003 215.0775Q62.24191 216.53062 59.788784 217.53062Q57.320034 218.53062 54.67941 218.53062Q52.351284 218.53062 50.226284 217.78062Q47.757534 216.90562 45.30441 215.0775L45.30441 213.81187Q47.33566 214.99937 48.21066 215.37437Q49.55441 215.96812 51.02316 216.31187Q52.851284 216.73375 54.695034 216.73375Q59.382534 216.73375 64.07003 213.81187L64.07003 215.0775ZM56.77316 212.14L56.49191 210.39Q57.538784 210.24937 58.101284 209.5775Q58.64816 208.90562 58.64816 207.7025Q58.64816 206.49937 58.163784 205.92125Q57.663784 205.3275 57.007534 205.3275Q56.413784 205.3275 56.070034 205.84312Q55.83566 206.2025 55.476284 207.64Q54.976284 209.5775 54.632534 210.3275Q54.27316 211.06187 53.64816 211.4525Q53.007534 211.84312 52.24191 211.84312Q51.55441 211.84312 50.96066 211.53062Q50.36691 211.2025 49.976284 210.65562Q49.67941 210.24937 49.476284 209.54625Q49.257534 208.8275 49.257534 208.015Q49.257534 206.79625 49.61691 205.87437Q49.96066 204.9525 50.570034 204.515Q51.163784 204.0775 52.163784 203.90562L52.39816 205.62437Q51.601284 205.74937 51.163784 206.31187Q50.71066 206.87437 50.71066 207.89Q50.71066 209.10875 51.11691 209.62437Q51.507534 210.14 52.038784 210.14Q52.382534 210.14 52.663784 209.92125Q52.945034 209.71812 53.132534 209.24937Q53.226284 208.98375 53.570034 207.7025Q54.070034 205.8275 54.39816 205.09312Q54.71066 204.35875 55.320034 203.93687Q55.913784 203.515 56.820034 203.515Q57.695034 203.515 58.476284 204.03062Q59.257534 204.54625 59.67941 205.515Q60.101284 206.48375 60.101284 207.7025Q60.101284 209.71812 59.257534 210.78062Q58.413784 211.84312 56.77316 212.14ZM56.52316 194.3275L56.757534 192.515Q58.33566 192.93687 59.226284 194.10875Q60.101284 195.265 60.101284 197.0775Q60.101284 199.34312 58.71066 200.68687Q57.30441 202.015 54.77316 202.015Q52.14816 202.015 50.71066 200.67125Q49.257534 199.3275 49.257534 197.17125Q49.257534 195.09312 50.67941 193.78062Q52.08566 192.4525 54.663784 192.4525Q54.820034 192.4525 55.132534 192.46812L55.132534 200.2025Q56.83566 200.10875 57.74191 199.23375Q58.64816 198.35875 58.64816 197.06187Q58.64816 196.09312 58.14816 195.42125Q57.632534 194.73375 56.52316 194.3275ZM53.67941 200.10875L53.67941 194.31187Q52.382534 194.42125 51.726284 194.96812Q50.71066 195.81187 50.71066 197.15562Q50.71066 198.35875 51.52316 199.18687Q52.320034 200.015 53.67941 200.10875ZM56.070034 183.65562L56.288784 181.93687Q58.08566 182.21812 59.101284 183.39Q60.101284 184.54625 60.101284 186.24937Q60.101284 188.37437 58.71066 189.67125Q57.320034 190.96812 54.726284 190.96812Q53.038784 190.96812 51.788784 190.42125Q50.52316 189.85875 49.89816 188.71812Q49.257534 187.5775 49.257534 186.23375Q49.257534 184.54625 50.11691 183.48375Q50.976284 182.40562 52.538784 182.09312L52.80441 183.81187Q51.757534 184.04625 51.24191 184.67125Q50.71066 185.29625 50.71066 186.17125Q50.71066 187.49937 51.663784 188.3275Q52.61691 189.15562 54.663784 189.15562Q56.757534 189.15562 57.71066 188.35875Q58.64816 187.56187 58.64816 186.265Q58.64816 185.23375 58.02316 184.54625Q57.382534 183.84312 56.070034 183.65562ZM54.67941 181.0775Q51.80441 181.0775 50.413784 179.48375Q49.257534 178.14 49.257534 176.21812Q49.257534 174.0775 50.663784 172.73375Q52.070034 171.37437 54.538784 171.37437Q56.538784 171.37437 57.695034 171.96812Q58.83566 172.56187 59.476284 173.71812Q60.101284 174.85875 60.101284 176.21812Q60.101284 178.40562 58.71066 179.74937Q57.30441 181.0775 54.67941 181.0775ZM54.67941 179.28062Q56.67941 179.28062 57.663784 178.42125Q58.64816 177.54625 58.64816 176.21812Q58.64816 174.90562 57.663784 174.04625Q56.663784 173.17125 54.61691 173.17125Q52.695034 173.17125 51.71066 174.04625Q50.71066 174.92125 50.71066 176.21812Q50.71066 177.54625 51.71066 178.42125Q52.695034 179.28062 54.67941 179.28062ZM59.86691 169.43687L49.49191 169.43687L49.49191 167.84312L50.976284 167.84312Q49.257534 166.7025 49.257534 164.54625Q49.257534 163.60875 49.601284 162.8275Q49.92941 162.03062 50.476284 161.64Q51.02316 161.24937 51.77316 161.09312Q52.27316 160.99937 53.49191 160.99937L59.86691 160.99937L59.86691 162.765L53.55441 162.765Q52.476284 162.765 51.945034 162.96812Q51.413784 163.17125 51.101284 163.7025Q50.788784 164.21812 50.788784 164.92125Q50.788784 166.04625 51.507534 166.85875Q52.21066 167.67125 54.195034 167.67125L59.86691 167.67125L59.86691 169.43687ZM59.86691 152.7025L58.55441 152.7025Q60.101284 153.68687 60.101284 155.60875Q60.101284 156.84312 59.413784 157.89Q58.726284 158.92125 57.507534 159.49937Q56.288784 160.06187 54.695034 160.06187Q53.132534 160.06187 51.86691 159.54625Q50.601284 159.03062 49.92941 157.99937Q49.257534 156.9525 49.257534 155.68687Q49.257534 154.74937 49.663784 154.015Q50.05441 153.28062 50.67941 152.81187L45.55441 152.81187L45.55441 151.0775L59.86691 151.0775L59.86691 152.7025ZM54.695034 158.265Q56.67941 158.265 57.663784 157.42125Q58.64816 156.5775 58.64816 155.43687Q58.64816 154.28062 57.71066 153.48375Q56.77316 152.67125 54.83566 152.67125Q52.71066 152.67125 51.71066 153.49937Q50.71066 154.31187 50.71066 155.515Q50.71066 156.68687 51.67941 157.48375Q52.632534 158.265 54.695034 158.265ZM56.77316 149.14L56.49191 147.39Q57.538784 147.24937 58.101284 146.5775Q58.64816 145.90562 58.64816 144.7025Q58.64816 143.49937 58.163784 142.92125Q57.663784 142.3275 57.007534 142.3275Q56.413784 142.3275 56.070034 142.84312Q55.83566 143.2025 55.476284 144.64Q54.976284 146.5775 54.632534 147.3275Q54.27316 148.06187 53.64816 148.4525Q53.007534 148.84312 52.24191 148.84312Q51.55441 148.84312 50.96066 148.53062Q50.36691 148.2025 49.976284 147.65562Q49.67941 147.24937 49.476284 146.54625Q49.257534 145.8275 49.257534 145.015Q49.257534 143.79625 49.61691 142.87437Q49.96066 141.9525 50.570034 141.515Q51.163784 141.0775 52.163784 140.90562L52.39816 142.62437Q51.601284 142.74937 51.163784 143.31187Q50.71066 143.87437 50.71066 144.89Q50.71066 146.10875 51.11691 146.62437Q51.507534 147.14 52.038784 147.14Q52.382534 147.14 52.663784 146.92125Q52.945034 146.71812 53.132534 146.24937Q53.226284 145.98375 53.570034 144.7025Q54.070034 142.8275 54.39816 142.09312Q54.71066 141.35875 55.320034 140.93687Q55.913784 140.515 56.820034 140.515Q57.695034 140.515 58.476284 141.03062Q59.257534 141.54625 59.67941 142.515Q60.101284 143.48375 60.101284 144.7025Q60.101284 146.71812 59.257534 147.78062Q58.413784 148.84312 56.77316 149.14ZM64.07003 137.28062L64.07003 138.53062Q59.382534 135.62437 54.695034 135.62437Q52.851284 135.62437 51.05441 136.03062Q49.58566 136.37437 48.24191 136.96812Q47.351284 137.34312 45.30441 138.53062L45.30441 137.28062Q47.757534 135.43687 50.226284 134.56187Q52.351284 133.81187 54.67941 133.81187Q57.320034 133.81187 59.788784 134.8275Q62.24191 135.8275 64.07003 137.28062Z" fill-rule="nonzero"/><path fill="#000000" d="M88.96667 360.71564Q88.96667 359.1844 89.27917 358.2625Q89.59167 357.325 90.20104 356.825Q90.82604 356.325 91.76354 356.325Q92.45104 356.325 92.96667 356.60626Q93.49792 356.8875 93.84167 357.41876Q94.18542 357.9344 94.37292 358.6844Q94.56042 359.4344 94.56042 360.71564Q94.56042 362.23126 94.24792 363.15314Q93.95104 364.075 93.32604 364.59064Q92.71667 365.09064 91.76354 365.09064Q90.52917 365.09064 89.81042 364.2Q88.96667 363.1375 88.96667 360.71564ZM90.04479 360.71564Q90.04479 362.825 90.54479 363.52814Q91.04479 364.23126 91.76354 364.23126Q92.49792 364.23126 92.98229 363.52814Q93.48229 362.825 93.48229 360.71564Q93.48229 358.59064 92.98229 357.90314Q92.49792 357.2 91.74792 357.2Q91.02917 357.2 90.59167 357.8094Q90.04479 358.59064 90.04479 360.71564Z" fill-rule="nonzero"/><path fill="#000000" d="M85.93542 277.22778L84.88854 277.22778L84.88854 270.50903Q84.49792 270.8684 83.87292 271.2434Q83.26354 271.60278 82.77917 271.77466L82.77917 270.75903Q83.65417 270.33716 84.31042 269.75903Q84.98229 269.16528 85.26354 268.60278L85.93542 268.60278L85.93542 277.22778ZM88.96667 272.9934Q88.96667 271.46216 89.27917 270.54028Q89.59167 269.60278 90.20104 269.10278Q90.82604 268.60278 91.76354 268.60278Q92.45104 268.60278 92.96667 268.88403Q93.49792 269.16528 93.84167 269.69653Q94.18542 270.21216 94.37292 270.96216Q94.56042 271.71216 94.56042 272.9934Q94.56042 274.50903 94.24792 275.4309Q93.95104 276.35278 93.32604 276.8684Q92.71667 277.3684 91.76354 277.3684Q90.52917 277.3684 89.81042 276.47778Q88.96667 275.41528 88.96667 272.9934ZM90.04479 272.9934Q90.04479 275.10278 90.54479 275.8059Q91.04479 276.50903 91.76354 276.50903Q92.49792 276.50903 92.98229 275.8059Q93.48229 275.10278 93.48229 272.9934Q93.48229 270.8684 92.98229 270.1809Q92.49792 269.47778 91.74792 269.47778Q91.02917 269.47778 90.59167 270.08716Q90.04479 270.8684 90.04479 272.9934Z" fill-rule="nonzero"/><path fill="#000000" d="M87.51354 188.48993L87.51354 189.50555L81.82604 189.50555Q81.82604 189.13055 81.95104 188.77118Q82.16979 188.19305 82.63854 187.63055Q83.12292 187.06805 84.02917 186.33368Q85.43542 185.17743 85.91979 184.50555Q86.41979 183.83368 86.41979 183.23993Q86.41979 182.61493 85.96667 182.19305Q85.51354 181.75555 84.79479 181.75555Q84.02917 181.75555 83.57604 182.20868Q83.12292 182.6618 83.10729 183.4743L82.02917 183.36493Q82.13854 182.14618 82.85729 181.52118Q83.59167 180.88055 84.82604 180.88055Q86.06042 180.88055 86.77917 181.56805Q87.49792 182.25555 87.49792 183.27118Q87.49792 183.7868 87.27917 184.2868Q87.07604 184.77118 86.57604 185.33368Q86.09167 185.88055 84.96667 186.83368Q84.01354 187.63055 83.73229 187.92743Q83.46667 188.20868 83.29479 188.48993L87.51354 188.48993ZM88.96667 185.27118Q88.96667 183.73993 89.27917 182.81805Q89.59167 181.88055 90.20104 181.38055Q90.82604 180.88055 91.76354 180.88055Q92.45104 180.88055 92.96667 181.1618Q93.49792 181.44305 93.84167 181.9743Q94.18542 182.48993 94.37292 183.23993Q94.56042 183.98993 94.56042 185.27118Q94.56042 186.7868 94.24792 187.70868Q93.95104 188.63055 93.32604 189.14618Q92.71667 189.64618 91.76354 189.64618Q90.52917 189.64618 89.81042 188.75555Q88.96667 187.69305 88.96667 185.27118ZM90.04479 185.27118Q90.04479 187.38055 90.54479 188.08368Q91.04479 188.7868 91.76354 188.7868Q92.49792 188.7868 92.98229 188.08368Q93.48229 187.38055 93.48229 185.27118Q93.48229 183.14618 92.98229 182.45868Q92.49792 181.75555 91.74792 181.75555Q91.02917 181.75555 90.59167 182.36493Q90.04479 183.14618 90.04479 185.27118Z" fill-rule="nonzero"/><path fill="#000000" d="M81.96667 99.51771L83.02917 99.37708Q83.20104 100.26771 83.63854 100.67396Q84.07604 101.06458 84.70104 101.06458Q85.45104 101.06458 85.96667 100.54896Q86.48229 100.03333 86.48229 99.26771Q86.48229 98.54896 85.99792 98.08021Q85.52917 97.59583 84.79479 97.59583Q84.49792 97.59583 84.04479 97.72083L84.16979 96.78333Q84.27917 96.79896 84.34167 96.79896Q85.01354 96.79896 85.54479 96.45521Q86.09167 96.09583 86.09167 95.36146Q86.09167 94.78333 85.70104 94.40833Q85.31042 94.01771 84.68542 94.01771Q84.07604 94.01771 83.65417 94.40833Q83.24792 94.79896 83.13854 95.56458L82.07604 95.37708Q82.26354 94.33021 82.95104 93.75208Q83.63854 93.15833 84.65417 93.15833Q85.35729 93.15833 85.95104 93.47083Q86.54479 93.76771 86.85729 94.28333Q87.16979 94.79896 87.16979 95.39271Q87.16979 95.93958 86.87292 96.40833Q86.57604 96.86146 85.99792 97.12708Q86.74792 97.29896 87.16979 97.86146Q87.59167 98.40833 87.59167 99.25208Q87.59167 100.37708 86.76354 101.15833Q85.95104 101.93958 84.70104 101.93958Q83.57604 101.93958 82.82604 101.26771Q82.07604 100.58021 81.96667 99.51771ZM88.96667 97.54896Q88.96667 96.01771 89.27917 95.09583Q89.59167 94.15833 90.20104 93.65833Q90.82604 93.15833 91.76354 93.15833Q92.45104 93.15833 92.96667 93.43958Q93.49792 93.72083 93.84167 94.25208Q94.18542 94.76771 94.37292 95.51771Q94.56042 96.26771 94.56042 97.54896Q94.56042 99.06458 94.24792 99.98646Q93.95104 100.90833 93.32604 101.42396Q92.71667 101.92396 91.76354 101.92396Q90.52917 101.92396 89.81042 101.03333Q88.96667 99.97083 88.96667 97.54896ZM90.04479 97.54896Q90.04479 99.65833 90.54479 100.36146Q91.04479 101.06458 91.76354 101.06458Q92.49792 101.06458 92.98229 100.36146Q93.48229 99.65833 93.48229 97.54896Q93.48229 95.42396 92.98229 94.73646Q92.49792 94.03333 91.74792 94.03333Q91.02917 94.03333 90.59167 94.64271Q90.04479 95.42396 90.04479 97.54896Z" fill-rule="nonzero"/><path fill="#000000" d="M131.38574 377.95L131.38574 370.3719L128.55762 370.3719L128.55762 369.35626L135.37012 369.35626L135.37012 370.3719L132.52637 370.3719L132.52637 377.95L131.38574 377.95ZM136.19824 377.95L136.19824 369.35626L139.44824 369.35626Q140.29199 369.35626 140.74512 369.4344Q141.38574 369.54376 141.80762 369.84064Q142.24512 370.1375 142.49512 370.66876Q142.76074 371.2 142.76074 371.84064Q142.76074 372.9344 142.05762 373.7Q141.37012 374.45 139.54199 374.45L137.33887 374.45L137.33887 377.95L136.19824 377.95ZM137.33887 373.45L139.55762 373.45Q140.66699 373.45 141.12012 373.04376Q141.58887 372.6219 141.58887 371.8719Q141.58887 371.34064 141.30762 370.96564Q141.04199 370.575 140.60449 370.45Q140.30762 370.3719 139.54199 370.3719L137.33887 370.3719L137.33887 373.45ZM150.33887 374.9344L151.46387 375.23126Q151.10449 376.6219 150.18262 377.35626Q149.26074 378.09064 147.91699 378.09064Q146.52637 378.09064 145.65137 377.52814Q144.77637 376.96564 144.32324 375.90314Q143.87012 374.825 143.87012 373.59064Q143.87012 372.2469 144.38574 371.2469Q144.90137 370.2469 145.83887 369.73126Q146.79199 369.21564 147.93262 369.21564Q149.21387 369.21564 150.08887 369.8719Q150.97949 370.52814 151.32324 371.71564L150.19824 371.98126Q149.90137 371.04376 149.32324 370.6219Q148.76074 370.1844 147.90137 370.1844Q146.91699 370.1844 146.24512 370.66876Q145.58887 371.1375 145.30762 371.9344Q145.04199 372.73126 145.04199 373.59064Q145.04199 374.6844 145.35449 375.4969Q145.68262 376.3094 146.35449 376.71564Q147.02637 377.1219 147.82324 377.1219Q148.77637 377.1219 149.43262 376.575Q150.10449 376.02814 150.33887 374.9344ZM153.24512 377.95L153.24512 369.35626L154.37012 369.35626L154.37012 372.8875L158.83887 372.8875L158.83887 369.35626L159.97949 369.35626L159.97949 377.95L158.83887 377.95L158.83887 373.90314L154.37012 373.90314L154.37012 377.95L153.24512 377.95ZM161.65137 375.3719L161.65137 374.3094L164.90137 374.3094L164.90137 375.3719L161.65137 375.3719ZM169.74512 377.95L168.69824 377.95L168.69824 371.23126Q168.30762 371.59064 167.68262 371.96564Q167.07324 372.325 166.58887 372.4969L166.58887 371.48126Q167.46387 371.0594 168.12012 370.48126Q168.79199 369.8875 169.07324 369.325L169.74512 369.325L169.74512 377.95Z" fill-rule="nonzero"/><path fill="#000000" d="M203.6964 377.95L203.6964 370.3719L200.86827 370.3719L200.86827 369.35626L207.68077 369.35626L207.68077 370.3719L204.83702 370.3719L204.83702 377.95L203.6964 377.95ZM208.5089 377.95L208.5089 369.35626L211.7589 369.35626Q212.60265 369.35626 213.05577 369.4344Q213.6964 369.54376 214.11827 369.84064Q214.55577 370.1375 214.80577 370.66876Q215.0714 371.2 215.0714 371.84064Q215.0714 372.9344 214.36827 373.7Q213.68077 374.45 211.85265 374.45L209.64952 374.45L209.64952 377.95L208.5089 377.95ZM209.64952 373.45L211.86827 373.45Q212.97765 373.45 213.43077 373.04376Q213.89952 372.6219 213.89952 371.8719Q213.89952 371.34064 213.61827 370.96564Q213.35265 370.575 212.91515 370.45Q212.61827 370.3719 211.85265 370.3719L209.64952 370.3719L209.64952 373.45ZM222.64952 374.9344L223.77452 375.23126Q223.41515 376.6219 222.49327 377.35626Q221.5714 378.09064 220.22765 378.09064Q218.83702 378.09064 217.96202 377.52814Q217.08702 376.96564 216.6339 375.90314Q216.18077 374.825 216.18077 373.59064Q216.18077 372.2469 216.6964 371.2469Q217.21202 370.2469 218.14952 369.73126Q219.10265 369.21564 220.24327 369.21564Q221.52452 369.21564 222.39952 369.8719Q223.29015 370.52814 223.6339 371.71564L222.5089 371.98126Q222.21202 371.04376 221.6339 370.6219Q221.0714 370.1844 220.21202 370.1844Q219.22765 370.1844 218.55577 370.66876Q217.89952 371.1375 217.61827 371.9344Q217.35265 372.73126 217.35265 373.59064Q217.35265 374.6844 217.66515 375.4969Q217.99327 376.3094 218.66515 376.71564Q219.33702 377.1219 220.1339 377.1219Q221.08702 377.1219 221.74327 376.575Q222.41515 376.02814 222.64952 374.9344ZM225.55577 377.95L225.55577 369.35626L226.68077 369.35626L226.68077 372.8875L231.14952 372.8875L231.14952 369.35626L232.29015 369.35626L232.29015 377.95L231.14952 377.95L231.14952 373.90314L226.68077 373.90314L226.68077 377.95L225.55577 377.95ZM233.96202 375.3719L233.96202 374.3094L237.21202 374.3094L237.21202 375.3719L233.96202 375.3719ZM238.08702 375.6844L239.14952 375.54376Q239.3214 376.4344 239.7589 376.84064Q240.1964 377.23126 240.8214 377.23126Q241.5714 377.23126 242.08702 376.71564Q242.60265 376.2 242.60265 375.4344Q242.60265 374.71564 242.11827 374.2469Q241.64952 373.7625 240.91515 373.7625Q240.61827 373.7625 240.16515 373.8875L240.29015 372.95Q240.39952 372.96564 240.46202 372.96564Q241.1339 372.96564 241.66515 372.6219Q242.21202 372.2625 242.21202 371.52814Q242.21202 370.95 241.8214 370.575Q241.43077 370.1844 240.80577 370.1844Q240.1964 370.1844 239.77452 370.575Q239.36827 370.96564 239.2589 371.73126L238.1964 371.54376Q238.3839 370.4969 239.0714 369.91876Q239.7589 369.325 240.77452 369.325Q241.47765 369.325 242.0714 369.6375Q242.66515 369.9344 242.97765 370.45Q243.29015 370.96564 243.29015 371.5594Q243.29015 372.10626 242.99327 372.575Q242.6964 373.02814 242.11827 373.29376Q242.86827 373.46564 243.29015 374.02814Q243.71202 374.575 243.71202 375.41876Q243.71202 376.54376 242.8839 377.325Q242.0714 378.10626 240.8214 378.10626Q239.6964 378.10626 238.9464 377.4344Q238.1964 376.7469 238.08702 375.6844Z" fill-rule="nonzero"/><path fill="#000000" d="M276.00705 377.95L276.00705 370.3719L273.17892 370.3719L273.17892 369.35626L279.99142 369.35626L279.99142 370.3719L277.14767 370.3719L277.14767 377.95L276.00705 377.95ZM280.81955 377.95L280.81955 369.35626L284.06955 369.35626Q284.9133 369.35626 285.36642 369.4344Q286.00705 369.54376 286.42892 369.84064Q286.86642 370.1375 287.11642 370.66876Q287.38205 371.2 287.38205 371.84064Q287.38205 372.9344 286.67892 373.7Q285.99142 374.45 284.1633 374.45L281.96017 374.45L281.96017 377.95L280.81955 377.95ZM281.96017 373.45L284.17892 373.45Q285.2883 373.45 285.74142 373.04376Q286.21017 372.6219 286.21017 371.8719Q286.21017 371.34064 285.92892 370.96564Q285.6633 370.575 285.2258 370.45Q284.92892 370.3719 284.1633 370.3719L281.96017 370.3719L281.96017 373.45ZM294.96017 374.9344L296.08517 375.23126Q295.7258 376.6219 294.80392 377.35626Q293.88205 378.09064 292.5383 378.09064Q291.14767 378.09064 290.27267 377.52814Q289.39767 376.96564 288.94455 375.90314Q288.49142 374.825 288.49142 373.59064Q288.49142 372.2469 289.00705 371.2469Q289.52267 370.2469 290.46017 369.73126Q291.4133 369.21564 292.55392 369.21564Q293.83517 369.21564 294.71017 369.8719Q295.6008 370.52814 295.94455 371.71564L294.81955 371.98126Q294.52267 371.04376 293.94455 370.6219Q293.38205 370.1844 292.52267 370.1844Q291.5383 370.1844 290.86642 370.66876Q290.21017 371.1375 289.92892 371.9344Q289.6633 372.73126 289.6633 373.59064Q289.6633 374.6844 289.9758 375.4969Q290.30392 376.3094 290.9758 376.71564Q291.64767 377.1219 292.44455 377.1219Q293.39767 377.1219 294.05392 376.575Q294.7258 376.02814 294.96017 374.9344ZM297.86642 377.95L297.86642 369.35626L298.99142 369.35626L298.99142 372.8875L303.46017 372.8875L303.46017 369.35626L304.6008 369.35626L304.6008 377.95L303.46017 377.95L303.46017 373.90314L298.99142 373.90314L298.99142 377.95L297.86642 377.95ZM306.27267 375.3719L306.27267 374.3094L309.52267 374.3094L309.52267 375.3719L306.27267 375.3719ZM313.77267 377.95L313.77267 375.8875L310.05392 375.8875L310.05392 374.91876L313.9758 369.35626L314.83517 369.35626L314.83517 374.91876L315.99142 374.91876L315.99142 375.8875L314.83517 375.8875L314.83517 377.95L313.77267 377.95ZM313.77267 374.91876L313.77267 371.0594L311.08517 374.91876L313.77267 374.91876Z" fill-rule="nonzero"/><path fill="#000000" d="M348.31772 377.95L348.31772 370.3719L345.4896 370.3719L345.4896 369.35626L352.3021 369.35626L352.3021 370.3719L349.45834 370.3719L349.45834 377.95L348.31772 377.95ZM353.13022 377.95L353.13022 369.35626L356.38022 369.35626Q357.22397 369.35626 357.6771 369.4344Q358.31772 369.54376 358.7396 369.84064Q359.1771 370.1375 359.4271 370.66876Q359.69272 371.2 359.69272 371.84064Q359.69272 372.9344 358.9896 373.7Q358.3021 374.45 356.47397 374.45L354.27084 374.45L354.27084 377.95L353.13022 377.95ZM354.27084 373.45L356.4896 373.45Q357.59897 373.45 358.0521 373.04376Q358.52084 372.6219 358.52084 371.8719Q358.52084 371.34064 358.2396 370.96564Q357.97397 370.575 357.53647 370.45Q357.2396 370.3719 356.47397 370.3719L354.27084 370.3719L354.27084 373.45ZM367.27084 374.9344L368.39584 375.23126Q368.03647 376.6219 367.1146 377.35626Q366.19272 378.09064 364.84897 378.09064Q363.45834 378.09064 362.58334 377.52814Q361.70834 376.96564 361.25522 375.90314Q360.8021 374.825 360.8021 373.59064Q360.8021 372.2469 361.31772 371.2469Q361.83334 370.2469 362.77084 369.73126Q363.72397 369.21564 364.8646 369.21564Q366.14584 369.21564 367.02084 369.8719Q367.91147 370.52814 368.25522 371.71564L367.13022 371.98126Q366.83334 371.04376 366.25522 370.6219Q365.69272 370.1844 364.83334 370.1844Q363.84897 370.1844 363.1771 370.66876Q362.52084 371.1375 362.2396 371.9344Q361.97397 372.73126 361.97397 373.59064Q361.97397 374.6844 362.28647 375.4969Q362.6146 376.3094 363.28647 376.71564Q363.95834 377.1219 364.75522 377.1219Q365.70834 377.1219 366.3646 376.575Q367.03647 376.02814 367.27084 374.9344ZM370.1771 377.95L370.1771 369.35626L371.3021 369.35626L371.3021 372.8875L375.77084 372.8875L375.77084 369.35626L376.91147 369.35626L376.91147 377.95L375.77084 377.95L375.77084 373.90314L371.3021 373.90314L371.3021 377.95L370.1771 377.95ZM378.58334 375.3719L378.58334 374.3094L381.83334 374.3094L381.83334 375.3719L378.58334 375.3719ZM382.70834 375.7L383.81772 375.60626Q383.94272 376.41876 384.38022 376.825Q384.83334 377.23126 385.47397 377.23126Q386.22397 377.23126 386.75522 376.65314Q387.28647 376.075 387.28647 375.1375Q387.28647 374.23126 386.77084 373.71564Q386.27084 373.1844 385.44272 373.1844Q384.94272 373.1844 384.52084 373.41876Q384.1146 373.65314 383.88022 374.0125L382.89584 373.8875L383.72397 369.48126L388.00522 369.48126L388.00522 370.48126L384.56772 370.48126L384.1146 372.79376Q384.88022 372.2469 385.72397 372.2469Q386.84897 372.2469 387.6146 373.02814Q388.39584 373.8094 388.39584 375.04376Q388.39584 376.2 387.72397 377.0594Q386.89584 378.09064 385.47397 378.09064Q384.3021 378.09064 383.5521 377.4344Q382.81772 376.77814 382.70834 375.7Z" fill-rule="nonzero"/><path fill="#000000" d="M420.62836 377.95L420.62836 370.3719L417.80023 370.3719L417.80023 369.35626L424.61273 369.35626L424.61273 370.3719L421.76898 370.3719L421.76898 377.95L420.62836 377.95ZM425.44086 377.95L425.44086 369.35626L428.69086 369.35626Q429.5346 369.35626 429.98773 369.4344Q430.62836 369.54376 431.05023 369.84064Q431.48773 370.1375 431.73773 370.66876Q432.00336 371.2 432.00336 371.84064Q432.00336 372.9344 431.30023 373.7Q430.61273 374.45 428.7846 374.45L426.58148 374.45L426.58148 377.95L425.44086 377.95ZM426.58148 373.45L428.80023 373.45Q429.9096 373.45 430.36273 373.04376Q430.83148 372.6219 430.83148 371.8719Q430.83148 371.34064 430.55023 370.96564Q430.2846 370.575 429.8471 370.45Q429.55023 370.3719 428.7846 370.3719L426.58148 370.3719L426.58148 373.45ZM439.58148 374.9344L440.70648 375.23126Q440.3471 376.6219 439.42523 377.35626Q438.50336 378.09064 437.1596 378.09064Q435.76898 378.09064 434.89398 377.52814Q434.01898 376.96564 433.56586 375.90314Q433.11273 374.825 433.11273 373.59064Q433.11273 372.2469 433.62836 371.2469Q434.14398 370.2469 435.08148 369.73126Q436.0346 369.21564 437.17523 369.21564Q438.45648 369.21564 439.33148 369.8719Q440.2221 370.52814 440.56586 371.71564L439.44086 371.98126Q439.14398 371.04376 438.56586 370.6219Q438.00336 370.1844 437.14398 370.1844Q436.1596 370.1844 435.48773 370.66876Q434.83148 371.1375 434.55023 371.9344Q434.2846 372.73126 434.2846 373.59064Q434.2846 374.6844 434.5971 375.4969Q434.92523 376.3094 435.5971 376.71564Q436.26898 377.1219 437.06586 377.1219Q438.01898 377.1219 438.67523 376.575Q439.3471 376.02814 439.58148 374.9344ZM442.48773 377.95L442.48773 369.35626L443.61273 369.35626L443.61273 372.8875L448.08148 372.8875L448.08148 369.35626L449.2221 369.35626L449.2221 377.95L448.08148 377.95L448.08148 373.90314L443.61273 373.90314L443.61273 377.95L442.48773 377.95ZM450.89398 375.3719L450.89398 374.3094L454.14398 374.3094L454.14398 375.3719L450.89398 375.3719ZM460.48773 371.46564L459.44086 371.54376Q459.30023 370.91876 459.05023 370.6375Q458.61273 370.1844 457.98773 370.1844Q457.48773 370.1844 457.0971 370.46564Q456.61273 370.84064 456.31586 371.54376Q456.0346 372.23126 456.01898 373.5125Q456.39398 372.9344 456.94086 372.65314Q457.50336 372.3719 458.11273 372.3719Q459.1596 372.3719 459.89398 373.15314Q460.64398 373.9344 460.64398 375.15314Q460.64398 375.96564 460.2846 376.66876Q459.94086 377.35626 459.33148 377.73126Q458.7221 378.09064 457.95648 378.09064Q456.62836 378.09064 455.80023 377.1219Q454.9721 376.15314 454.9721 373.9344Q454.9721 371.4344 455.89398 370.3094Q456.69086 369.325 458.05023 369.325Q459.06586 369.325 459.70648 369.90314Q460.36273 370.46564 460.48773 371.46564ZM456.19086 375.16876Q456.19086 375.71564 456.4096 376.21564Q456.64398 376.7 457.05023 376.96564Q457.4721 377.23126 457.94086 377.23126Q458.5971 377.23126 459.08148 376.7Q459.56586 376.15314 459.56586 375.23126Q459.56586 374.34064 459.08148 373.825Q458.61273 373.3094 457.89398 373.3094Q457.17523 373.3094 456.67523 373.825Q456.19086 374.34064 456.19086 375.16876Z" fill-rule="nonzero"/><path fill="#000000" d="M492.93903 377.95L492.93903 370.3719L490.1109 370.3719L490.1109 369.35626L496.9234 369.35626L496.9234 370.3719L494.07965 370.3719L494.07965 377.95L492.93903 377.95ZM497.75153 377.95L497.75153 369.35626L501.00153 369.35626Q501.84528 369.35626 502.2984 369.4344Q502.93903 369.54376 503.3609 369.84064Q503.7984 370.1375 504.0484 370.66876Q504.31403 371.2 504.31403 371.84064Q504.31403 372.9344 503.6109 373.7Q502.9234 374.45 501.09528 374.45L498.89215 374.45L498.89215 377.95L497.75153 377.95ZM498.89215 373.45L501.1109 373.45Q502.22028 373.45 502.6734 373.04376Q503.14215 372.6219 503.14215 371.8719Q503.14215 371.34064 502.8609 370.96564Q502.59528 370.575 502.15778 370.45Q501.8609 370.3719 501.09528 370.3719L498.89215 370.3719L498.89215 373.45ZM511.89215 374.9344L513.01715 375.23126Q512.6578 376.6219 511.7359 377.35626Q510.81403 378.09064 509.47028 378.09064Q508.07965 378.09064 507.20465 377.52814Q506.32965 376.96564 505.87653 375.90314Q505.4234 374.825 505.4234 373.59064Q505.4234 372.2469 505.93903 371.2469Q506.45465 370.2469 507.39215 369.73126Q508.34528 369.21564 509.4859 369.21564Q510.76715 369.21564 511.64215 369.8719Q512.5328 370.52814 512.8765 371.71564L511.75153 371.98126Q511.45465 371.04376 510.87653 370.6219Q510.31403 370.1844 509.45465 370.1844Q508.47028 370.1844 507.7984 370.66876Q507.14215 371.1375 506.8609 371.9344Q506.59528 372.73126 506.59528 373.59064Q506.59528 374.6844 506.90778 375.4969Q507.2359 376.3094 507.90778 376.71564Q508.57965 377.1219 509.37653 377.1219Q510.32965 377.1219 510.9859 376.575Q511.65778 376.02814 511.89215 374.9344ZM514.7984 377.95L514.7984 369.35626L515.9234 369.35626L515.9234 372.8875L520.39215 372.8875L520.39215 369.35626L521.5328 369.35626L521.5328 377.95L520.39215 377.95L520.39215 373.90314L515.9234 373.90314L515.9234 377.95L514.7984 377.95ZM523.20465 375.3719L523.20465 374.3094L526.45465 374.3094L526.45465 375.3719L523.20465 375.3719ZM527.39215 370.48126L527.39215 369.46564L532.95465 369.46564L532.95465 370.29376Q532.14215 371.16876 531.32965 372.6219Q530.5328 374.0594 530.0953 375.59064Q529.76715 376.66876 529.689 377.95L528.5953 377.95Q528.6109 376.9344 528.9859 375.4969Q529.3765 374.0594 530.07965 372.73126Q530.7984 371.40314 531.6109 370.48126L527.39215 370.48126Z" fill-rule="nonzero"/><path fill="#000000" d="M561.7497 377.95L561.7497 370.3719L558.9216 370.3719L558.9216 369.35626L565.7341 369.35626L565.7341 370.3719L562.8903 370.3719L562.8903 377.95L561.7497 377.95ZM566.5622 377.95L566.5622 369.35626L569.8122 369.35626Q570.65594 369.35626 571.1091 369.4344Q571.7497 369.54376 572.1716 369.84064Q572.6091 370.1375 572.8591 370.66876Q573.1247 371.2 573.1247 371.84064Q573.1247 372.9344 572.4216 373.7Q571.7341 374.45 569.90594 374.45L567.7028 374.45L567.7028 377.95L566.5622 377.95ZM567.7028 373.45L569.9216 373.45Q571.03094 373.45 571.4841 373.04376Q571.9528 372.6219 571.9528 371.8719Q571.9528 371.34064 571.6716 370.96564Q571.40594 370.575 570.96844 370.45Q570.6716 370.3719 569.90594 370.3719L567.7028 370.3719L567.7028 373.45ZM580.7028 374.9344L581.8278 375.23126Q581.46844 376.6219 580.5466 377.35626Q579.6247 378.09064 578.28094 378.09064Q576.8903 378.09064 576.0153 377.52814Q575.1403 376.96564 574.6872 375.90314Q574.2341 374.825 574.2341 373.59064Q574.2341 372.2469 574.7497 371.2469Q575.2653 370.2469 576.2028 369.73126Q577.15594 369.21564 578.2966 369.21564Q579.5778 369.21564 580.4528 369.8719Q581.34344 370.52814 581.6872 371.71564L580.5622 371.98126Q580.2653 371.04376 579.6872 370.6219Q579.1247 370.1844 578.2653 370.1844Q577.28094 370.1844 576.6091 370.66876Q575.9528 371.1375 575.6716 371.9344Q575.40594 372.73126 575.40594 373.59064Q575.40594 374.6844 575.71844 375.4969Q576.0466 376.3094 576.71844 376.71564Q577.3903 377.1219 578.1872 377.1219Q579.1403 377.1219 579.7966 376.575Q580.46844 376.02814 580.7028 374.9344ZM583.6091 377.95L583.6091 369.35626L584.7341 369.35626L584.7341 372.8875L589.2028 372.8875L589.2028 369.35626L590.34344 369.35626L590.34344 377.95L589.2028 377.95L589.2028 373.90314L584.7341 373.90314L584.7341 377.95L583.6091 377.95ZM592.0153 375.3719L592.0153 374.3094L595.2653 374.3094L595.2653 375.3719L592.0153 375.3719ZM600.1091 377.95L599.0622 377.95L599.0622 371.23126Q598.6716 371.59064 598.0466 371.96564Q597.4372 372.325 596.9528 372.4969L596.9528 371.48126Q597.8278 371.0594 598.4841 370.48126Q599.15594 369.8875 599.4372 369.325L600.1091 369.325L600.1091 377.95ZM608.6872 376.9344L608.6872 377.95L602.9997 377.95Q602.9997 377.575 603.1247 377.21564Q603.34344 376.6375 603.8122 376.075Q604.2966 375.5125 605.2028 374.77814Q606.6091 373.6219 607.09344 372.95Q607.59344 372.27814 607.59344 371.6844Q607.59344 371.0594 607.1403 370.6375Q606.6872 370.2 605.96844 370.2Q605.2028 370.2 604.7497 370.65314Q604.2966 371.10626 604.28094 371.91876L603.2028 371.8094Q603.3122 370.59064 604.03094 369.96564Q604.7653 369.325 605.9997 369.325Q607.2341 369.325 607.9528 370.0125Q608.6716 370.7 608.6716 371.71564Q608.6716 372.23126 608.4528 372.73126Q608.2497 373.21564 607.7497 373.77814Q607.2653 374.325 606.1403 375.27814Q605.1872 376.075 604.90594 376.3719Q604.6403 376.65314 604.46844 376.9344L608.6872 376.9344Z" fill-rule="nonzero"/><path fill="#4285f4" d="M455.91406 118.416664C455.91406 117.86438 456.3618 117.416664 456.91406 117.416664L466.91406 117.416664C467.46634 117.416664 467.91406 117.86438 467.91406 118.416664L467.91406 128.41667C467.91406 128.96895 467.46634 129.41667 466.91406 129.41667L456.91406 129.41667C456.3618 129.41667 455.91406 128.96895 455.91406 128.41667Z" fill-rule="nonzero"/><path fill="#1a1a1a" d="M488.3047 128.88542Q489.6328 129.79167 490.7422 130.21355L490.1797 131.52605Q488.6328 130.97917 487.10156 129.77605Q485.5078 130.66667 483.58594 130.66667Q481.64844 130.66667 480.0547 129.72917Q478.47656 128.79167 477.6172 127.08855Q476.77344 125.38542 476.77344 123.26042Q476.77344 121.13542 477.6328 119.40105Q478.4922 117.66667 480.0703 116.76042Q481.66406 115.83855 483.6328 115.83855Q485.6172 115.83855 487.1953 116.79167Q488.78906 117.72917 489.6172 119.4323Q490.46094 121.1198 490.46094 123.2448Q490.46094 125.01042 489.9297 126.4323Q489.39844 127.83855 488.3047 128.88542ZM484.1328 126.46355Q485.77344 126.91667 486.83594 127.82292Q488.5078 126.3073 488.5078 123.2448Q488.5078 121.51042 487.91406 120.21355Q487.33594 118.91667 486.1953 118.19792Q485.0547 117.47917 483.6328 117.47917Q481.52344 117.47917 480.1172 118.9323Q478.72656 120.3698 478.72656 123.26042Q478.72656 126.0573 480.10156 127.5573Q481.4922 129.04167 483.6328 129.04167Q484.64844 129.04167 485.5547 128.65105Q484.66406 128.08855 483.6797 127.83855L484.1328 126.46355ZM500.02344 130.41667L500.02344 128.88542Q498.8203 130.65105 496.7422 130.65105Q495.8203 130.65105 495.02344 130.3073Q494.22656 129.94792 493.83594 129.41667Q493.46094 128.88542 493.3047 128.10417Q493.1953 127.58855 493.1953 126.46355L493.1953 120.04167L494.9453 120.04167L494.9453 125.79167Q494.9453 127.16667 495.0547 127.65105Q495.22656 128.33855 495.7578 128.7448Q496.3047 129.13542 497.08594 129.13542Q497.8828 129.13542 498.5703 128.72917Q499.27344 128.32292 499.5547 127.63542Q499.85156 126.9323 499.85156 125.60417L499.85156 120.04167L501.60156 120.04167L501.60156 130.41667L500.02344 130.41667ZM502.58594 125.22917Q502.58594 122.35417 504.1797 120.96355Q505.52344 119.8073 507.4453 119.8073Q509.58594 119.8073 510.9297 121.21355Q512.28906 122.6198 512.28906 125.08855Q512.28906 127.08855 511.6953 128.2448Q511.10156 129.38542 509.9453 130.02605Q508.8047 130.65105 507.4453 130.65105Q505.2578 130.65105 503.91406 129.26042Q502.58594 127.85417 502.58594 125.22917ZM504.3828 125.22917Q504.3828 127.22917 505.2422 128.21355Q506.1172 129.19792 507.4453 129.19792Q508.7578 129.19792 509.6172 128.21355Q510.4922 127.21355 510.4922 125.16667Q510.4922 123.2448 509.6172 122.26042Q508.7422 121.26042 507.4453 121.26042Q506.1172 121.26042 505.2422 122.26042Q504.3828 123.2448 504.3828 125.22917ZM514.2422 130.41667L514.2422 116.10417L516.0078 116.10417L516.0078 124.26042L520.16406 120.04167L522.4297 120.04167L518.47656 123.88542L522.83594 130.41667L520.66406 130.41667L517.2422 125.1198L516.0078 126.3073L516.0078 130.41667L514.2422 130.41667ZM524.2422 130.41667L524.2422 116.10417L526.0078 116.10417L526.0078 124.26042L530.16406 120.04167L532.4297 120.04167L528.47656 123.88542L532.83594 130.41667L530.66406 130.41667L527.2422 125.1198L526.0078 126.3073L526.0078 130.41667L524.2422 130.41667ZM541.0078 129.13542Q540.02344 129.96355 539.1172 130.3073Q538.21094 130.65105 537.1797 130.65105Q535.47656 130.65105 534.5547 129.82292Q533.6328 128.97917 533.6328 127.6823Q533.6328 126.91667 533.97656 126.29167Q534.33594 125.66667 534.89844 125.29167Q535.46094 124.90105 536.16406 124.69792Q536.6797 124.57292 537.72656 124.4323Q539.85156 124.1823 540.85156 123.83855Q540.8672 123.47917 540.8672 123.3698Q540.8672 122.3073 540.3672 121.85417Q539.6953 121.26042 538.3672 121.26042Q537.1172 121.26042 536.52344 121.69792Q535.9453 122.13542 535.66406 123.2448L533.9453 123.01042Q534.1797 121.90105 534.71094 121.22917Q535.2422 120.54167 536.2578 120.1823Q537.27344 119.8073 538.6172 119.8073Q539.9453 119.8073 540.77344 120.1198Q541.60156 120.4323 541.9922 120.91667Q542.3828 121.38542 542.53906 122.10417Q542.6328 122.5573 542.6328 123.72917L542.6328 126.07292Q542.6328 128.52605 542.7422 129.1823Q542.85156 129.82292 543.1953 130.41667L541.35156 130.41667Q541.08594 129.8698 541.0078 129.13542ZM540.85156 125.21355Q539.89844 125.60417 537.97656 125.8698Q536.89844 126.02605 536.4453 126.22917Q536.0078 126.41667 535.7578 126.79167Q535.5078 127.16667 535.5078 127.63542Q535.5078 128.33855 536.03906 128.8073Q536.5703 129.27605 537.60156 129.27605Q538.6172 129.27605 539.39844 128.83855Q540.1953 128.38542 540.5703 127.6198Q540.85156 127.01042 540.85156 125.85417L540.85156 125.21355Z" fill-rule="nonzero"/><path fill="#ea4335" d="M559.91406 118.416664C559.91406 117.86438 560.36176 117.416664 560.91406 117.416664L570.91406 117.416664C571.4664 117.416664 571.91406 117.86438 571.91406 118.416664L571.91406 128.41667C571.91406 128.96895 571.4664 129.41667 570.91406 129.41667L560.91406 129.41667C560.36176 129.41667 559.91406 128.96895 559.91406 128.41667Z" fill-rule="nonzero"/><path fill="#1a1a1a" d="M580.8203 125.82292L582.60156 125.66667Q582.72656 126.72917 583.1797 127.41667Q583.64844 128.10417 584.6172 128.54167Q585.60156 128.96355 586.83594 128.96355Q587.91406 128.96355 588.7422 128.65105Q589.5703 128.32292 589.97656 127.76042Q590.3828 127.19792 590.3828 126.52605Q590.3828 125.85417 589.9922 125.35417Q589.60156 124.85417 588.71094 124.51042Q588.1328 124.27605 586.14844 123.8073Q584.1797 123.33855 583.39844 122.91667Q582.3672 122.38542 581.8672 121.58855Q581.3672 120.79167 581.3672 119.8073Q581.3672 118.71355 581.97656 117.77605Q582.58594 116.83855 583.77344 116.35417Q584.96094 115.85417 586.39844 115.85417Q587.9922 115.85417 589.21094 116.3698Q590.4297 116.88542 591.0703 117.88542Q591.72656 118.8698 591.77344 120.13542L589.96094 120.27605Q589.8203 118.91667 588.97656 118.22917Q588.1328 117.52605 586.47656 117.52605Q584.7578 117.52605 583.96094 118.16667Q583.1797 118.79167 583.1797 119.66667Q583.1797 120.44792 583.7422 120.94792Q584.28906 121.44792 586.60156 121.96355Q588.91406 122.47917 589.77344 122.8698Q591.02344 123.44792 591.6172 124.33855Q592.21094 125.21355 592.21094 126.3698Q592.21094 127.51042 591.5547 128.52605Q590.89844 129.54167 589.66406 130.10417Q588.4453 130.66667 586.91406 130.66667Q584.97656 130.66667 583.66406 130.10417Q582.35156 129.52605 581.60156 128.38542Q580.85156 127.2448 580.8203 125.82292ZM594.22656 134.38542L594.22656 120.04167L595.83594 120.04167L595.83594 121.38542Q596.39844 120.60417 597.10156 120.21355Q597.8203 119.8073 598.83594 119.8073Q600.16406 119.8073 601.1797 120.4948Q602.1953 121.1823 602.71094 122.4323Q603.2422 123.66667 603.2422 125.15105Q603.2422 126.7448 602.66406 128.02605Q602.10156 129.29167 601.0078 129.97917Q599.91406 130.65105 598.71094 130.65105Q597.83594 130.65105 597.1328 130.27605Q596.4453 129.90105 595.9922 129.33855L595.9922 134.38542L594.22656 134.38542ZM595.8203 125.29167Q595.8203 127.29167 596.6328 128.2448Q597.4453 129.19792 598.60156 129.19792Q599.77344 129.19792 600.60156 128.21355Q601.4453 127.22917 601.4453 125.13542Q601.4453 123.16667 600.6172 122.1823Q599.8047 121.1823 598.6797 121.1823Q597.5547 121.1823 596.6797 122.2448Q595.8203 123.29167 595.8203 125.29167ZM612.0078 129.13542Q611.02344 129.96355 610.1172 130.3073Q609.21094 130.65105 608.1797 130.65105Q606.47656 130.65105 605.5547 129.82292Q604.6328 128.97917 604.6328 127.6823Q604.6328 126.91667 604.97656 126.29167Q605.33594 125.66667 605.89844 125.29167Q606.46094 124.90105 607.16406 124.69792Q607.6797 124.57292 608.72656 124.4323Q610.85156 124.1823 611.85156 123.83855Q611.8672 123.47917 611.8672 123.3698Q611.8672 122.3073 611.3672 121.85417Q610.6953 121.26042 609.3672 121.26042Q608.1172 121.26042 607.52344 121.69792Q606.9453 122.13542 606.66406 123.2448L604.9453 123.01042Q605.1797 121.90105 605.71094 121.22917Q606.2422 120.54167 607.2578 120.1823Q608.27344 119.8073 609.6172 119.8073Q610.9453 119.8073 611.77344 120.1198Q612.60156 120.4323 612.9922 120.91667Q613.3828 121.38542 613.53906 122.10417Q613.6328 122.5573 613.6328 123.72917L613.6328 126.07292Q613.6328 128.52605 613.7422 129.1823Q613.85156 129.82292 614.1953 130.41667L612.35156 130.41667Q612.08594 129.8698 612.0078 129.13542ZM611.85156 125.21355Q610.89844 125.60417 608.97656 125.8698Q607.89844 126.02605 607.4453 126.22917Q607.0078 126.41667 606.7578 126.79167Q606.5078 127.16667 606.5078 127.63542Q606.5078 128.33855 607.03906 128.8073Q607.5703 129.27605 608.60156 129.27605Q609.6172 129.27605 610.39844 128.83855Q611.1953 128.38542 611.5703 127.6198Q611.85156 127.01042 611.85156 125.85417L611.85156 125.21355ZM616.21094 130.41667L616.21094 120.04167L617.78906 120.04167L617.78906 121.6198Q618.39844 120.51042 618.91406 120.16667Q619.4297 119.8073 620.03906 119.8073Q620.9297 119.8073 621.85156 120.3698L621.2422 122.01042Q620.60156 121.6198 619.96094 121.6198Q619.3828 121.6198 618.91406 121.97917Q618.46094 122.32292 618.2578 122.9323Q617.97656 123.8698 617.97656 124.97917L617.97656 130.41667L616.21094 130.41667ZM623.2422 130.41667L623.2422 116.10417L625.0078 116.10417L625.0078 124.26042L629.16406 120.04167L631.4297 120.04167L627.47656 123.88542L631.83594 130.41667L629.66406 130.41667L626.2422 125.1198L625.0078 126.3073L625.0078 130.41667L623.2422 130.41667Z" fill-rule="nonzero"/><path fill="#000000" d="M191.73438 57.05L191.73438 54.175L185.875 54.175L185.875 51.76875L192.07812 42.675L194.39062 42.675L194.39062 51.753124L196.17188 51.753124L196.17188 54.175L194.39062 54.175L194.39062 57.05L191.73438 57.05ZM191.73438 51.753124L191.73438 46.8625L188.4375 51.753124L191.73438 51.753124ZM196.625 57.05L200.35938 51.70625L196.78125 46.675L200.125 46.675L201.95312 49.534374L203.89062 46.675L207.10938 46.675L203.59375 51.596874L207.4375 57.05L204.0625 57.05L201.95312 53.83125L199.82812 57.05L196.625 57.05ZM223.98438 49.7375L221.28125 50.2375Q221.14062 49.425 220.65625 49.01875Q220.17188 48.596874 219.40625 48.596874Q218.375 48.596874 217.76562 49.315624Q217.15625 50.01875 217.15625 51.675Q217.15625 53.51875 217.76562 54.284374Q218.39062 55.05 219.4375 55.05Q220.21875 55.05 220.71875 54.6125Q221.21875 54.159374 221.42188 53.08125L224.10938 53.534374Q223.70312 55.39375 222.5 56.346874Q221.3125 57.284374 219.3125 57.284374Q217.03125 57.284374 215.67188 55.846874Q214.32812 54.409374 214.32812 51.878124Q214.32812 49.3 215.6875 47.878124Q217.04688 46.440624 219.35938 46.440624Q221.25 46.440624 222.35938 47.26875Q223.48438 48.08125 223.98438 49.7375ZM225.39062 53.3625L228.125 53.08125Q228.23438 54.01875 228.8125 54.565624Q229.39062 55.096874 230.14062 55.096874Q231.0 55.096874 231.59375 54.409374Q232.20312 53.70625 232.20312 52.3Q232.20312 50.971874 231.60938 50.315624Q231.01562 49.659374 230.0625 49.659374Q228.89062 49.659374 227.95312 50.70625L225.71875 50.378124L227.125 42.925L234.39062 42.925L234.39062 45.503124L229.20312 45.503124L228.78125 47.925Q229.70312 47.471874 230.65625 47.471874Q232.48438 47.471874 233.75 48.8Q235.01562 50.128124 235.01562 52.2375Q235.01562 54.01875 234.0 55.39375Q232.59375 57.3 230.10938 57.3Q228.14062 57.3 226.89062 56.2375Q225.64062 55.159374 225.39062 53.3625ZM236.9375 57.05L236.9375 54.3L239.6875 54.3L239.6875 57.05L236.9375 57.05ZM247.73438 57.05L247.73438 54.175L241.875 54.175L241.875 51.76875L248.07812 42.675L250.39062 42.675L250.39062 51.753124L252.17188 51.753124L252.17188 54.175L250.39062 54.175L250.39062 57.05L247.73438 57.05ZM247.73438 51.753124L247.73438 46.8625L244.4375 51.753124L247.73438 51.753124ZM252.625 57.05L256.35938 51.70625L252.78125 46.675L256.125 46.675L257.95312 49.534374L259.89062 46.675L263.10938 46.675L259.59375 51.596874L263.4375 57.05L260.0625 57.05L257.95312 53.83125L255.82812 57.05L252.625 57.05ZM264.9375 57.05L264.9375 42.7375L267.6875 42.7375L267.6875 57.05L264.9375 57.05ZM271.98438 49.846874L269.5 49.39375Q269.92188 47.89375 270.9375 47.175Q271.96875 46.440624 273.98438 46.440624Q275.82812 46.440624 276.71875 46.878124Q277.625 47.315624 277.98438 47.9875Q278.35938 48.64375 278.35938 50.440624L278.32812 53.64375Q278.32812 55.003124 278.45312 55.659374Q278.59375 56.3 278.95312 57.05L276.23438 57.05Q276.125 56.76875 275.96875 56.2375Q275.90625 55.9875 275.875 55.909374Q275.17188 56.596874 274.35938 56.940624Q273.5625 57.284374 272.65625 57.284374Q271.0625 57.284374 270.14062 56.425Q269.21875 55.55 269.21875 54.221874Q269.21875 53.33125 269.625 52.64375Q270.04688 51.95625 270.79688 51.596874Q271.5625 51.221874 273.0 50.95625Q274.92188 50.596874 275.65625 50.284374L275.65625 50.003124Q275.65625 49.221874 275.26562 48.89375Q274.875 48.55 273.79688 48.55Q273.0625 48.55 272.64062 48.83125Q272.23438 49.1125 271.98438 49.846874ZM275.65625 52.065624Q275.125 52.2375 273.98438 52.4875Q272.84375 52.7375 272.5 52.971874Q271.95312 53.346874 271.95312 53.940624Q271.95312 54.503124 272.375 54.925Q272.8125 55.346874 273.48438 55.346874Q274.21875 55.346874 274.89062 54.8625Q275.39062 54.4875 275.54688 53.95625Q275.65625 53.596874 275.65625 52.6125L275.65625 52.065624ZM283.5625 57.05L280.8125 57.05L280.8125 46.675L283.375 46.675L283.375 48.159374Q284.01562 47.1125 284.53125 46.784374Q285.0625 46.440624 285.73438 46.440624Q286.67188 46.440624 287.53125 46.95625L286.6875 49.346874Q286.0 48.909374 285.40625 48.909374Q284.82812 48.909374 284.42188 49.221874Q284.01562 49.534374 283.78125 50.378124Q283.5625 51.20625 283.5625 53.846874L283.5625 57.05ZM288.6875 57.7375L291.8125 58.1125Q291.89062 58.659374 292.17188 58.8625Q292.5625 59.159374 293.40625 59.159374Q294.48438 59.159374 295.01562 58.83125Q295.375 58.628124 295.5625 58.14375Q295.6875 57.8 295.6875 56.878124L295.6875 55.3625Q294.46875 57.05 292.59375 57.05Q290.5 57.05 289.28125 55.284374Q288.32812 53.878124 288.32812 51.8Q288.32812 49.190624 289.57812 47.815624Q290.82812 46.440624 292.70312 46.440624Q294.625 46.440624 295.875 48.128124L295.875 46.675L298.4375 46.675L298.4375 55.9875Q298.4375 57.815624 298.125 58.721874Q297.82812 59.64375 297.28125 60.159374Q296.73438 60.675 295.8125 60.95625Q294.90625 61.253124 293.51562 61.253124Q290.875 61.253124 289.76562 60.346874Q288.67188 59.45625 288.67188 58.065624Q288.67188 57.925 288.6875 57.7375ZM291.14062 51.64375Q291.14062 53.3 291.76562 54.065624Q292.40625 54.83125 293.34375 54.83125Q294.35938 54.83125 295.04688 54.05Q295.75 53.253124 295.75 51.721874Q295.75 50.1125 295.07812 49.33125Q294.42188 48.55 293.40625 48.55Q292.40625 48.55 291.76562 49.315624Q291.14062 50.08125 291.14062 51.64375ZM306.9375 53.753124L309.67188 54.20625Q309.15625 55.70625 308.01562 56.503124Q306.875 57.284374 305.17188 57.284374Q302.45312 57.284374 301.15625 55.51875Q300.14062 54.096874 300.14062 51.940624Q300.14062 49.3625 301.48438 47.909374Q302.82812 46.440624 304.89062 46.440624Q307.20312 46.440624 308.53125 47.971874Q309.875 49.503124 309.82812 52.659374L302.95312 52.659374Q302.98438 53.878124 303.60938 54.565624Q304.25 55.2375 305.1875 55.2375Q305.84375 55.2375 306.28125 54.89375Q306.71875 54.534374 306.9375 53.753124ZM307.09375 50.971874Q307.0625 49.784374 306.46875 49.175Q305.89062 48.55 305.0625 48.55Q304.15625 48.55 303.57812 49.190624Q302.98438 49.846874 303.0 50.971874L307.09375 50.971874ZM311.875 54.3L314.60938 54.3L314.60938 56.26875Q314.60938 57.45625 314.40625 58.14375Q314.20312 58.83125 313.625 59.378124Q313.0625 59.925 312.1875 60.2375L311.64062 59.1125Q312.46875 58.83125 312.8125 58.346874Q313.17188 57.878124 313.20312 57.05L311.875 57.05L311.875 54.3ZM323.95312 57.05L323.95312 42.7375L328.59375 42.7375Q331.23438 42.7375 332.03125 42.940624Q333.26562 43.26875 334.09375 44.346874Q334.92188 45.425 334.92188 47.14375Q334.92188 48.45625 334.4375 49.3625Q333.96875 50.253124 333.21875 50.76875Q332.48438 51.284374 331.73438 51.440624Q330.6875 51.64375 328.73438 51.64375L326.84375 51.64375L326.84375 57.05L323.95312 57.05ZM326.84375 45.159374L326.84375 49.221874L328.42188 49.221874Q330.14062 49.221874 330.71875 49.003124Q331.29688 48.76875 331.60938 48.3Q331.9375 47.815624 331.9375 47.175Q331.9375 46.39375 331.48438 45.89375Q331.03125 45.378124 330.32812 45.253124Q329.8125 45.159374 328.25 45.159374L326.84375 45.159374ZM338.98438 49.846874L336.5 49.39375Q336.92188 47.89375 337.9375 47.175Q338.96875 46.440624 340.98438 46.440624Q342.82812 46.440624 343.71875 46.878124Q344.625 47.315624 344.98438 47.9875Q345.35938 48.64375 345.35938 50.440624L345.32812 53.64375Q345.32812 55.003124 345.45312 55.659374Q345.59375 56.3 345.95312 57.05L343.23438 57.05Q343.125 56.76875 342.96875 56.2375Q342.90625 55.9875 342.875 55.909374Q342.17188 56.596874 341.35938 56.940624Q340.5625 57.284374 339.65625 57.284374Q338.0625 57.284374 337.14062 56.425Q336.21875 55.55 336.21875 54.221874Q336.21875 53.33125 336.625 52.64375Q337.04688 51.95625 337.79688 51.596874Q338.5625 51.221874 340.0 50.95625Q341.92188 50.596874 342.65625 50.284374L342.65625 50.003124Q342.65625 49.221874 342.26562 48.89375Q341.875 48.55 340.79688 48.55Q340.0625 48.55 339.64062 48.83125Q339.23438 49.1125 338.98438 49.846874ZM342.65625 52.065624Q342.125 52.2375 340.98438 52.4875Q339.84375 52.7375 339.5 52.971874Q338.95312 53.346874 338.95312 53.940624Q338.95312 54.503124 339.375 54.925Q339.8125 55.346874 340.48438 55.346874Q341.21875 55.346874 341.89062 54.8625Q342.39062 54.4875 342.54688 53.95625Q342.65625 53.596874 342.65625 52.6125L342.65625 52.065624ZM350.5625 57.05L347.8125 57.05L347.8125 46.675L350.375 46.675L350.375 48.159374Q351.01562 47.1125 351.53125 46.784374Q352.0625 46.440624 352.73438 46.440624Q353.67188 46.440624 354.53125 46.95625L353.6875 49.346874Q353.0 48.909374 352.40625 48.909374Q351.82812 48.909374 351.42188 49.221874Q351.01562 49.534374 350.78125 50.378124Q350.5625 51.20625 350.5625 53.846874L350.5625 57.05ZM362.71875 61.003124L362.71875 55.784374Q362.17188 56.471874 361.375 56.878124Q360.57812 57.284374 359.64062 57.284374Q357.875 57.284374 356.73438 55.95625Q355.39062 54.409374 355.39062 51.753124Q355.39062 49.253124 356.65625 47.846874Q357.92188 46.440624 359.79688 46.440624Q360.82812 46.440624 361.57812 46.878124Q362.34375 47.315624 362.92188 48.20625L362.92188 46.675L365.45312 46.675L365.45312 61.003124L362.71875 61.003124ZM362.79688 51.7375Q362.79688 50.14375 362.14062 49.378124Q361.5 48.596874 360.53125 48.596874Q359.53125 48.596874 358.85938 49.39375Q358.1875 50.175 358.1875 51.89375Q358.1875 53.596874 358.82812 54.3625Q359.48438 55.1125 360.42188 55.1125Q361.375 55.1125 362.07812 54.26875Q362.79688 53.409374 362.79688 51.7375ZM374.76562 57.05L374.76562 55.503124Q374.20312 56.33125 373.26562 56.815624Q372.34375 57.284374 371.32812 57.284374Q370.28125 57.284374 369.45312 56.83125Q368.625 56.3625 368.25 55.534374Q367.875 54.70625 367.875 53.2375L367.875 46.675L370.625 46.675L370.625 51.440624Q370.625 53.628124 370.76562 54.128124Q370.92188 54.6125 371.3125 54.909374Q371.71875 55.190624 372.34375 55.190624Q373.04688 55.190624 373.59375 54.815624Q374.15625 54.425 374.35938 53.8625Q374.5625 53.284374 374.5625 51.05L374.5625 46.675L377.3125 46.675L377.3125 57.05L374.76562 57.05ZM385.9375 53.753124L388.67188 54.20625Q388.15625 55.70625 387.01562 56.503124Q385.875 57.284374 384.17188 57.284374Q381.45312 57.284374 380.15625 55.51875Q379.14062 54.096874 379.14062 51.940624Q379.14062 49.3625 380.48438 47.909374Q381.82812 46.440624 383.89062 46.440624Q386.20312 46.440624 387.53125 47.971874Q388.875 49.503124 388.82812 52.659374L381.95312 52.659374Q381.98438 53.878124 382.60938 54.565624Q383.25 55.2375 384.1875 55.2375Q384.84375 55.2375 385.28125 54.89375Q385.71875 54.534374 385.9375 53.753124ZM386.09375 50.971874Q386.0625 49.784374 385.46875 49.175Q384.89062 48.55 384.0625 48.55Q383.15625 48.55 382.57812 49.190624Q381.98438 49.846874 382.0 50.971874L386.09375 50.971874ZM395.6875 46.675L395.6875 48.8625L393.8125 48.8625L393.8125 53.05Q393.8125 54.315624 393.85938 54.534374Q393.92188 54.7375 394.10938 54.878124Q394.3125 55.003124 394.57812 55.003124Q394.95312 55.003124 395.6875 54.7375L395.92188 56.878124Q394.95312 57.284374 393.75 57.284374Q393.0 57.284374 392.40625 57.034374Q391.8125 56.784374 391.53125 56.39375Q391.26562 55.9875 391.15625 55.315624Q391.0625 54.846874 391.0625 53.39375L391.0625 48.8625L389.79688 48.8625L389.79688 46.675L391.0625 46.675L391.0625 44.6125L393.8125 43.01875L393.8125 46.675L395.6875 46.675ZM403.96875 57.05L403.96875 42.7375L413.79688 42.7375L413.79688 45.159374L406.85938 45.159374L406.85938 48.55L412.84375 48.55L412.84375 50.971874L406.85938 50.971874L406.85938 57.05L403.96875 57.05ZM415.29688 51.721874Q415.29688 50.346874 415.96875 49.065624Q416.65625 47.784374 417.89062 47.1125Q419.125 46.440624 420.64062 46.440624Q423.0 46.440624 424.5 47.971874Q426.0 49.503124 426.0 51.83125Q426.0 54.190624 424.48438 55.7375Q422.96875 57.284374 420.65625 57.284374Q419.23438 57.284374 417.9375 56.64375Q416.65625 55.9875 415.96875 54.753124Q415.29688 53.503124 415.29688 51.721874ZM418.10938 51.8625Q418.10938 53.409374 418.84375 54.2375Q419.57812 55.05 420.65625 55.05Q421.73438 55.05 422.45312 54.2375Q423.1875 53.409374 423.1875 51.846874Q423.1875 50.315624 422.45312 49.503124Q421.73438 48.675 420.65625 48.675Q419.57812 48.675 418.84375 49.503124Q418.10938 50.315624 418.10938 51.8625ZM430.5625 57.05L427.8125 57.05L427.8125 46.675L430.375 46.675L430.375 48.159374Q431.01562 47.1125 431.53125 46.784374Q432.0625 46.440624 432.73438 46.440624Q433.67188 46.440624 434.53125 46.95625L433.6875 49.346874Q433.0 48.909374 432.40625 48.909374Q431.82812 48.909374 431.42188 49.221874Q431.01562 49.534374 430.78125 50.378124Q430.5625 51.20625 430.5625 53.846874L430.5625 57.05ZM435.73438 46.675L438.26562 46.675L438.26562 48.096874Q439.625 46.440624 441.5 46.440624Q442.48438 46.440624 443.21875 46.8625Q443.95312 47.26875 444.42188 48.096874Q445.10938 47.26875 445.89062 46.8625Q446.6875 46.440624 447.59375 46.440624Q448.73438 46.440624 449.51562 46.909374Q450.3125 47.378124 450.70312 48.26875Q450.98438 48.940624 450.98438 50.425L450.98438 57.05L448.23438 57.05L448.23438 51.128124Q448.23438 49.58125 447.95312 49.128124Q447.57812 48.55 446.78125 48.55Q446.20312 48.55 445.6875 48.909374Q445.1875 49.253124 444.96875 49.925Q444.75 50.596874 444.75 52.065624L444.75 57.05L442.0 57.05L442.0 51.3625Q442.0 49.846874 441.84375 49.409374Q441.70312 48.971874 441.39062 48.76875Q441.09375 48.55 440.5625 48.55Q439.9375 48.55 439.42188 48.89375Q438.92188 49.221874 438.6875 49.878124Q438.46875 50.51875 438.46875 52.003124L438.46875 57.05L435.73438 57.05L435.73438 46.675ZM454.98438 49.846874L452.5 49.39375Q452.92188 47.89375 453.9375 47.175Q454.96875 46.440624 456.98438 46.440624Q458.82812 46.440624 459.71875 46.878124Q460.625 47.315624 460.98438 47.9875Q461.35938 48.64375 461.35938 50.440624L461.32812 53.64375Q461.32812 55.003124 461.45312 55.659374Q461.59375 56.3 461.95312 57.05L459.23438 57.05Q459.125 56.76875 458.96875 56.2375Q458.90625 55.9875 458.875 55.909374Q458.17188 56.596874 457.35938 56.940624Q456.5625 57.284374 455.65625 57.284374Q454.0625 57.284374 453.14062 56.425Q452.21875 55.55 452.21875 54.221874Q452.21875 53.33125 452.625 52.64375Q453.04688 51.95625 453.79688 51.596874Q454.5625 51.221874 456.0 50.95625Q457.92188 50.596874 458.65625 50.284374L458.65625 50.003124Q458.65625 49.221874 458.26562 48.89375Q457.875 48.55 456.79688 48.55Q456.0625 48.55 455.64062 48.83125Q455.23438 49.1125 454.98438 49.846874ZM458.65625 52.065624Q458.125 52.2375 456.98438 52.4875Q455.84375 52.7375 455.5 52.971874Q454.95312 53.346874 454.95312 53.940624Q454.95312 54.503124 455.375 54.925Q455.8125 55.346874 456.48438 55.346874Q457.21875 55.346874 457.89062 54.8625Q458.39062 54.4875 458.54688 53.95625Q458.65625 53.596874 458.65625 52.6125L458.65625 52.065624ZM468.6875 46.675L468.6875 48.8625L466.8125 48.8625L466.8125 53.05Q466.8125 54.315624 466.85938 54.534374Q466.92188 54.7375 467.10938 54.878124Q467.3125 55.003124 467.57812 55.003124Q467.95312 55.003124 468.6875 54.7375L468.92188 56.878124Q467.95312 57.284374 466.75 57.284374Q466.0 57.284374 465.40625 57.034374Q464.8125 56.784374 464.53125 56.39375Q464.26562 55.9875 464.15625 55.315624Q464.0625 54.846874 464.0625 53.39375L464.0625 48.8625L462.79688 48.8625L462.79688 46.675L464.0625 46.675L464.0625 44.6125L466.8125 43.01875L466.8125 46.675L468.6875 46.675Z" fill-rule="nonzero"/></svg>