<svg version="1.1" viewBox="0.0 0.0 600.0 371.0" fill="none" stroke="none" stroke-linecap="square" stroke-miterlimit="10" width="600" height="371" xmlns:xlink="http://www.w3.org/1999/xlink" xmlns="http://www.w3.org/2000/svg"><path fill="#ffffff" d="M0 0L600.0 0L600.0 371.0L0 371.0L0 0Z" fill-rule="nonzero"/><path stroke="#333333" stroke-width="1.0" stroke-linecap="butt" d="M77.5 300.5L581.5 300.5" fill-rule="nonzero"/><path stroke="#cccccc" stroke-width="1.0" stroke-linecap="butt" d="M77.5 238.5L581.5 238.5" fill-rule="nonzero"/><path stroke="#cccccc" stroke-width="1.0" stroke-linecap="butt" d="M77.5 176.5L581.5 176.5" fill-rule="nonzero"/><path stroke="#cccccc" stroke-width="1.0" stroke-linecap="butt" d="M77.5 114.5L581.5 114.5" fill-rule="nonzero"/><path stroke="#cccccc" stroke-width="1.0" stroke-linecap="butt" d="M77.5 51.5L581.5 51.5" fill-rule="nonzero"/><clipPath id="id_0"><path d="M77.55 51.916668L581.45 51.916668L581.45 300.45L77.55 300.45L77.55 51.916668Z" clip-rule="nonzero"/></clipPath><path stroke="#000000" stroke-width="2.0" stroke-linecap="butt" stroke-opacity="0.0" clip-path="url(#id_0)" d="M92.0 300.0L87.0 300.0L87.0 264.0C87.0 262.89542 87.89543 262.0 89.0 262.0L90.0 262.0C91.10457 262.0 92.0 262.89542 92.0 264.0Z" fill-rule="nonzero"/><path fill="#4285f4" clip-path="url(#id_0)" d="M92.0 300.0L87.0 300.0L87.0 264.0C87.0 262.89542 87.89543 262.0 89.0 262.0L90.0 262.0C91.10457 262.0 92.0 262.89542 92.0 264.0Z" fill-rule="nonzero"/><path stroke="#000000" stroke-width="2.0" stroke-linecap="butt" stroke-opacity="0.0" clip-path="url(#id_0)" d="M114.0 300.0L109.0 300.0L109.0 274.0C109.0 272.89542 109.89543 272.0 111.0 272.0L112.0 272.0C113.10457 272.0 114.0 272.89542 114.0 274.0Z" fill-rule="nonzero"/><path fill="#4285f4" clip-path="url(#id_0)" d="M114.0 300.0L109.0 300.0L109.0 274.0C109.0 272.89542 109.89543 272.0 111.0 272.0L112.0 272.0C113.10457 272.0 114.0 272.89542 114.0 274.0Z" fill-rule="nonzero"/><path stroke="#000000" stroke-width="2.0" stroke-linecap="butt" stroke-opacity="0.0" clip-path="url(#id_0)" d="M137.0 300.0L132.0 300.0L132.0 253.0C132.0 251.89543 132.89543 251.0 134.0 251.0L135.0 251.0C136.10457 251.0 137.0 251.89543 137.0 253.0Z" fill-rule="nonzero"/><path fill="#4285f4" clip-path="url(#id_0)" d="M137.0 300.0L132.0 300.0L132.0 253.0C132.0 251.89543 132.89543 251.0 134.0 251.0L135.0 251.0C136.10457 251.0 137.0 251.89543 137.0 253.0Z" fill-rule="nonzero"/><path stroke="#000000" stroke-width="2.0" stroke-linecap="butt" stroke-opacity="0.0" clip-path="url(#id_0)" d="M159.0 300.0L154.0 300.0L154.0 259.0C154.0 257.89542 154.89543 257.0 156.0 257.0L157.0 257.0C158.10457 257.0 159.0 257.89542 159.0 259.0Z" fill-rule="nonzero"/><path fill="#4285f4" clip-path="url(#id_0)" d="M159.0 300.0L154.0 300.0L154.0 259.0C154.0 257.89542 154.89543 257.0 156.0 257.0L157.0 257.0C158.10457 257.0 159.0 257.89542 159.0 259.0Z" fill-rule="nonzero"/><path stroke="#000000" stroke-width="2.0" stroke-linecap="butt" stroke-opacity="0.0" clip-path="url(#id_0)" d="M182.0 300.0L177.0 300.0L177.0 243.0C177.0 241.89543 177.89543 241.0 179.0 241.0L180.0 241.0C181.10457 241.0 182.0 241.89543 182.0 243.0Z" fill-rule="nonzero"/><path fill="#4285f4" clip-path="url(#id_0)" d="M182.0 300.0L177.0 300.0L177.0 243.0C177.0 241.89543 177.89543 241.0 179.0 241.0L180.0 241.0C181.10457 241.0 182.0 241.89543 182.0 243.0Z" fill-rule="nonzero"/><path stroke="#000000" stroke-width="2.0" stroke-linecap="butt" stroke-opacity="0.0" clip-path="url(#id_0)" d="M204.0 300.0L199.0 300.0L199.0 289.0C199.0 287.89542 199.89543 287.0 201.0 287.0L202.0 287.0C203.10457 287.0 204.0 287.89542 204.0 289.0Z" fill-rule="nonzero"/><path fill="#4285f4" clip-path="url(#id_0)" d="M204.0 300.0L199.0 300.0L199.0 289.0C199.0 287.89542 199.89543 287.0 201.0 287.0L202.0 287.0C203.10457 287.0 204.0 287.89542 204.0 289.0Z" fill-rule="nonzero"/><path stroke="#000000" stroke-width="2.0" stroke-linecap="butt" stroke-opacity="0.0" clip-path="url(#id_0)" d="M227.0 300.0L222.0 300.0L222.0 259.0C222.0 257.89542 222.89543 257.0 224.0 257.0L225.0 257.0C226.10457 257.0 227.0 257.89542 227.0 259.0Z" fill-rule="nonzero"/><path fill="#4285f4" clip-path="url(#id_0)" d="M227.0 300.0L222.0 300.0L222.0 259.0C222.0 257.89542 222.89543 257.0 224.0 257.0L225.0 257.0C226.10457 257.0 227.0 257.89542 227.0 259.0Z" fill-rule="nonzero"/><path stroke="#000000" stroke-width="2.0" stroke-linecap="butt" stroke-opacity="0.0" clip-path="url(#id_0)" d="M250.0 300.0L245.0 300.0L245.0 231.0C245.0 229.89543 245.89543 229.0 247.0 229.0L248.0 229.0C249.10457 229.0 250.0 229.89543 250.0 231.0Z" fill-rule="nonzero"/><path fill="#4285f4" clip-path="url(#id_0)" d="M250.0 300.0L245.0 300.0L245.0 231.0C245.0 229.89543 245.89543 229.0 247.0 229.0L248.0 229.0C249.10457 229.0 250.0 229.89543 250.0 231.0Z" fill-rule="nonzero"/><path stroke="#000000" stroke-width="2.0" stroke-linecap="butt" stroke-opacity="0.0" clip-path="url(#id_0)" d="M272.0 300.0L267.0 300.0L267.0 203.0C267.0 201.89543 267.89542 201.0 269.0 201.0L270.0 201.0C271.10458 201.0 272.0 201.89543 272.0 203.0Z" fill-rule="nonzero"/><path fill="#4285f4" clip-path="url(#id_0)" d="M272.0 300.0L267.0 300.0L267.0 203.0C267.0 201.89543 267.89542 201.0 269.0 201.0L270.0 201.0C271.10458 201.0 272.0 201.89543 272.0 203.0Z" fill-rule="nonzero"/><path stroke="#000000" stroke-width="2.0" stroke-linecap="butt" stroke-opacity="0.0" clip-path="url(#id_0)" d="M295.0 300.0L290.0 300.0L290.0 261.0C290.0 259.89542 290.89542 259.0 292.0 259.0L293.0 259.0C294.10458 259.0 295.0 259.89542 295.0 261.0Z" fill-rule="nonzero"/><path fill="#4285f4" clip-path="url(#id_0)" d="M295.0 300.0L290.0 300.0L290.0 261.0C290.0 259.89542 290.89542 259.0 292.0 259.0L293.0 259.0C294.10458 259.0 295.0 259.89542 295.0 261.0Z" fill-rule="nonzero"/><path stroke="#000000" stroke-width="2.0" stroke-linecap="butt" stroke-opacity="0.0" clip-path="url(#id_0)" d="M317.0 300.0L312.0 300.0L312.0 274.0C312.0 272.89542 312.89542 272.0 314.0 272.0L315.0 272.0C316.10458 272.0 317.0 272.89542 317.0 274.0Z" fill-rule="nonzero"/><path fill="#4285f4" clip-path="url(#id_0)" d="M317.0 300.0L312.0 300.0L312.0 274.0C312.0 272.89542 312.89542 272.0 314.0 272.0L315.0 272.0C316.10458 272.0 317.0 272.89542 317.0 274.0Z" fill-rule="nonzero"/><path stroke="#000000" stroke-width="2.0" stroke-linecap="butt" stroke-opacity="0.0" clip-path="url(#id_0)" d="M340.0 300.0L335.0 300.0L335.0 279.0C335.0 277.89542 335.89542 277.0 337.0 277.0L338.0 277.0C339.10458 277.0 340.0 277.89542 340.0 279.0Z" fill-rule="nonzero"/><path fill="#4285f4" clip-path="url(#id_0)" d="M340.0 300.0L335.0 300.0L335.0 279.0C335.0 277.89542 335.89542 277.0 337.0 277.0L338.0 277.0C339.10458 277.0 340.0 277.89542 340.0 279.0Z" fill-rule="nonzero"/><path stroke="#000000" stroke-width="2.0" stroke-linecap="butt" stroke-opacity="0.0" clip-path="url(#id_0)" d="M362.0 300.0L357.0 300.0L357.0 255.0C357.0 253.89543 357.89542 253.0 359.0 253.0L360.0 253.0C361.10458 253.0 362.0 253.89543 362.0 255.0Z" fill-rule="nonzero"/><path fill="#4285f4" clip-path="url(#id_0)" d="M362.0 300.0L357.0 300.0L357.0 255.0C357.0 253.89543 357.89542 253.0 359.0 253.0L360.0 253.0C361.10458 253.0 362.0 253.89543 362.0 255.0Z" fill-rule="nonzero"/><path stroke="#000000" stroke-width="2.0" stroke-linecap="butt" stroke-opacity="0.0" clip-path="url(#id_0)" d="M385.0 300.0L380.0 300.0L380.0 286.0C380.0 284.89542 380.89542 284.0 382.0 284.0L383.0 284.0C384.10458 284.0 385.0 284.89542 385.0 286.0Z" fill-rule="nonzero"/><path fill="#4285f4" clip-path="url(#id_0)" d="M385.0 300.0L380.0 300.0L380.0 286.0C380.0 284.89542 380.89542 284.0 382.0 284.0L383.0 284.0C384.10458 284.0 385.0 284.89542 385.0 286.0Z" fill-rule="nonzero"/><path stroke="#000000" stroke-width="2.0" stroke-linecap="butt" stroke-opacity="0.0" clip-path="url(#id_0)" d="M407.0 300.0L402.0 300.0L402.0 282.0C402.0 280.89542 402.89542 280.0 404.0 280.0L405.0 280.0C406.10458 280.0 407.0 280.89542 407.0 282.0Z" fill-rule="nonzero"/><path fill="#4285f4" clip-path="url(#id_0)" d="M407.0 300.0L402.0 300.0L402.0 282.0C402.0 280.89542 402.89542 280.0 404.0 280.0L405.0 280.0C406.10458 280.0 407.0 280.89542 407.0 282.0Z" fill-rule="nonzero"/><path stroke="#000000" stroke-width="2.0" stroke-linecap="butt" stroke-opacity="0.0" clip-path="url(#id_0)" d="M430.0 300.0L425.0 300.0L425.0 286.0C425.0 284.89542 425.89542 284.0 427.0 284.0L428.0 284.0C429.10458 284.0 430.0 284.89542 430.0 286.0Z" fill-rule="nonzero"/><path fill="#4285f4" clip-path="url(#id_0)" d="M430.0 300.0L425.0 300.0L425.0 286.0C425.0 284.89542 425.89542 284.0 427.0 284.0L428.0 284.0C429.10458 284.0 430.0 284.89542 430.0 286.0Z" fill-rule="nonzero"/><path stroke="#000000" stroke-width="2.0" stroke-linecap="butt" stroke-opacity="0.0" clip-path="url(#id_0)" d="M453.0 300.0L448.0 300.0L448.0 187.0C448.0 185.89543 448.89542 185.0 450.0 185.0L451.0 185.0C452.10458 185.0 453.0 185.89543 453.0 187.0Z" fill-rule="nonzero"/><path fill="#4285f4" clip-path="url(#id_0)" d="M453.0 300.0L448.0 300.0L448.0 187.0C448.0 185.89543 448.89542 185.0 450.0 185.0L451.0 185.0C452.10458 185.0 453.0 185.89543 453.0 187.0Z" fill-rule="nonzero"/><path stroke="#000000" stroke-width="2.0" stroke-linecap="butt" stroke-opacity="0.0" clip-path="url(#id_0)" d="M475.0 300.0L470.0 300.0L470.0 108.0C470.0 106.89543 470.89542 106.0 472.0 106.0L473.0 106.0C474.10458 106.0 475.0 106.89543 475.0 108.0Z" fill-rule="nonzero"/><path fill="#4285f4" clip-path="url(#id_0)" d="M475.0 300.0L470.0 300.0L470.0 108.0C470.0 106.89543 470.89542 106.0 472.0 106.0L473.0 106.0C474.10458 106.0 475.0 106.89543 475.0 108.0Z" fill-rule="nonzero"/><path stroke="#000000" stroke-width="2.0" stroke-linecap="butt" stroke-opacity="0.0" clip-path="url(#id_0)" d="M498.0 300.0L493.0 300.0L493.0 249.0C493.0 247.89543 493.89542 247.0 495.0 247.0L496.0 247.0C497.10458 247.0 498.0 247.89543 498.0 249.0Z" fill-rule="nonzero"/><path fill="#4285f4" clip-path="url(#id_0)" d="M498.0 300.0L493.0 300.0L493.0 249.0C493.0 247.89543 493.89542 247.0 495.0 247.0L496.0 247.0C497.10458 247.0 498.0 247.89543 498.0 249.0Z" fill-rule="nonzero"/><path stroke="#000000" stroke-width="2.0" stroke-linecap="butt" stroke-opacity="0.0" clip-path="url(#id_0)" d="M520.0 300.0L515.0 300.0L515.0 219.0C515.0 217.89543 515.89545 217.0 517.0 217.0L518.0 217.0C519.10455 217.0 520.0 217.89543 520.0 219.0Z" fill-rule="nonzero"/><path fill="#4285f4" clip-path="url(#id_0)" d="M520.0 300.0L515.0 300.0L515.0 219.0C515.0 217.89543 515.89545 217.0 517.0 217.0L518.0 217.0C519.10455 217.0 520.0 217.89543 520.0 219.0Z" fill-rule="nonzero"/><path stroke="#000000" stroke-width="2.0" stroke-linecap="butt" stroke-opacity="0.0" clip-path="url(#id_0)" d="M565.0 300.0L560.0 300.0L560.0 287.0C560.0 285.89542 560.89545 285.0 562.0 285.0L563.0 285.0C564.10455 285.0 565.0 285.89542 565.0 287.0Z" fill-rule="nonzero"/><path fill="#4285f4" clip-path="url(#id_0)" d="M565.0 300.0L560.0 300.0L560.0 287.0C560.0 285.89542 560.89545 285.0 562.0 285.0L563.0 285.0C564.10455 285.0 565.0 285.89542 565.0 287.0Z" fill-rule="nonzero"/><path stroke="#000000" stroke-width="2.0" stroke-linecap="butt" stroke-opacity="0.0" clip-path="url(#id_0)" d="M99.0 300.0L94.0 300.0L94.0 176.0C94.0 174.89543 94.89543 174.0 96.0 174.0L97.0 174.0C98.10457 174.0 99.0 174.89543 99.0 176.0Z" fill-rule="nonzero"/><path fill="#ea4335" clip-path="url(#id_0)" d="M99.0 300.0L94.0 300.0L94.0 176.0C94.0 174.89543 94.89543 174.0 96.0 174.0L97.0 174.0C98.10457 174.0 99.0 174.89543 99.0 176.0Z" fill-rule="nonzero"/><path stroke="#000000" stroke-width="2.0" stroke-linecap="butt" stroke-opacity="0.0" clip-path="url(#id_0)" d="M121.0 300.0L116.0 300.0L116.0 245.0C116.0 243.89543 116.89543 243.0 118.0 243.0L119.0 243.0C120.10457 243.0 121.0 243.89543 121.0 245.0Z" fill-rule="nonzero"/><path fill="#ea4335" clip-path="url(#id_0)" d="M121.0 300.0L116.0 300.0L116.0 245.0C116.0 243.89543 116.89543 243.0 118.0 243.0L119.0 243.0C120.10457 243.0 121.0 243.89543 121.0 245.0Z" fill-rule="nonzero"/><path stroke="#000000" stroke-width="2.0" stroke-linecap="butt" stroke-opacity="0.0" clip-path="url(#id_0)" d="M144.0 300.0L139.0 300.0L139.0 218.0C139.0 216.89543 139.89543 216.0 141.0 216.0L142.0 216.0C143.10457 216.0 144.0 216.89543 144.0 218.0Z" fill-rule="nonzero"/><path fill="#ea4335" clip-path="url(#id_0)" d="M144.0 300.0L139.0 300.0L139.0 218.0C139.0 216.89543 139.89543 216.0 141.0 216.0L142.0 216.0C143.10457 216.0 144.0 216.89543 144.0 218.0Z" fill-rule="nonzero"/><path stroke="#000000" stroke-width="2.0" stroke-linecap="butt" stroke-opacity="0.0" clip-path="url(#id_0)" d="M166.0 300.0L161.0 300.0L161.0 235.0C161.0 233.89543 161.89543 233.0 163.0 233.0L164.0 233.0C165.10457 233.0 166.0 233.89543 166.0 235.0Z" fill-rule="nonzero"/><path fill="#ea4335" clip-path="url(#id_0)" d="M166.0 300.0L161.0 300.0L161.0 235.0C161.0 233.89543 161.89543 233.0 163.0 233.0L164.0 233.0C165.10457 233.0 166.0 233.89543 166.0 235.0Z" fill-rule="nonzero"/><path stroke="#000000" stroke-width="2.0" stroke-linecap="butt" stroke-opacity="0.0" clip-path="url(#id_0)" d="M189.0 300.0L184.0 300.0L184.0 189.0C184.0 187.89543 184.89543 187.0 186.0 187.0L187.0 187.0C188.10457 187.0 189.0 187.89543 189.0 189.0Z" fill-rule="nonzero"/><path fill="#ea4335" clip-path="url(#id_0)" d="M189.0 300.0L184.0 300.0L184.0 189.0C184.0 187.89543 184.89543 187.0 186.0 187.0L187.0 187.0C188.10457 187.0 189.0 187.89543 189.0 189.0Z" fill-rule="nonzero"/><path stroke="#000000" stroke-width="2.0" stroke-linecap="butt" stroke-opacity="0.0" clip-path="url(#id_0)" d="M211.0 300.0L206.0 300.0L206.0 268.0C206.0 266.89542 206.89543 266.0 208.0 266.0L209.0 266.0C210.10457 266.0 211.0 266.89542 211.0 268.0Z" fill-rule="nonzero"/><path fill="#ea4335" clip-path="url(#id_0)" d="M211.0 300.0L206.0 300.0L206.0 268.0C206.0 266.89542 206.89543 266.0 208.0 266.0L209.0 266.0C210.10457 266.0 211.0 266.89542 211.0 268.0Z" fill-rule="nonzero"/><path stroke="#000000" stroke-width="2.0" stroke-linecap="butt" stroke-opacity="0.0" clip-path="url(#id_0)" d="M234.0 300.0L229.0 300.0L229.0 217.0C229.0 215.89543 229.89543 215.0 231.0 215.0L232.0 215.0C233.10457 215.0 234.0 215.89543 234.0 217.0Z" fill-rule="nonzero"/><path fill="#ea4335" clip-path="url(#id_0)" d="M234.0 300.0L229.0 300.0L229.0 217.0C229.0 215.89543 229.89543 215.0 231.0 215.0L232.0 215.0C233.10457 215.0 234.0 215.89543 234.0 217.0Z" fill-rule="nonzero"/><path stroke="#000000" stroke-width="2.0" stroke-linecap="butt" stroke-opacity="0.0" clip-path="url(#id_0)" d="M257.0 300.0L252.0 300.0L252.0 203.0C252.0 201.89543 252.89543 201.0 254.0 201.0L255.0 201.0C256.10458 201.0 257.0 201.89543 257.0 203.0Z" fill-rule="nonzero"/><path fill="#ea4335" clip-path="url(#id_0)" d="M257.0 300.0L252.0 300.0L252.0 203.0C252.0 201.89543 252.89543 201.0 254.0 201.0L255.0 201.0C256.10458 201.0 257.0 201.89543 257.0 203.0Z" fill-rule="nonzero"/><path stroke="#000000" stroke-width="2.0" stroke-linecap="butt" stroke-opacity="0.0" clip-path="url(#id_0)" d="M279.0 300.0L274.0 300.0L274.0 160.0C274.0 158.89543 274.89542 158.0 276.0 158.0L277.0 158.0C278.10458 158.0 279.0 158.89543 279.0 160.0Z" fill-rule="nonzero"/><path fill="#ea4335" clip-path="url(#id_0)" d="M279.0 300.0L274.0 300.0L274.0 160.0C274.0 158.89543 274.89542 158.0 276.0 158.0L277.0 158.0C278.10458 158.0 279.0 158.89543 279.0 160.0Z" fill-rule="nonzero"/><path stroke="#000000" stroke-width="2.0" stroke-linecap="butt" stroke-opacity="0.0" clip-path="url(#id_0)" d="M302.0 300.0L297.0 300.0L297.0 225.0C297.0 223.89543 297.89542 223.0 299.0 223.0L300.0 223.0C301.10458 223.0 302.0 223.89543 302.0 225.0Z" fill-rule="nonzero"/><path fill="#ea4335" clip-path="url(#id_0)" d="M302.0 300.0L297.0 300.0L297.0 225.0C297.0 223.89543 297.89542 223.0 299.0 223.0L300.0 223.0C301.10458 223.0 302.0 223.89543 302.0 225.0Z" fill-rule="nonzero"/><path stroke="#000000" stroke-width="2.0" stroke-linecap="butt" stroke-opacity="0.0" clip-path="url(#id_0)" d="M324.0 300.0L319.0 300.0L319.0 254.0C319.0 252.89543 319.89542 252.0 321.0 252.0L322.0 252.0C323.10458 252.0 324.0 252.89543 324.0 254.0Z" fill-rule="nonzero"/><path fill="#ea4335" clip-path="url(#id_0)" d="M324.0 300.0L319.0 300.0L319.0 254.0C319.0 252.89543 319.89542 252.0 321.0 252.0L322.0 252.0C323.10458 252.0 324.0 252.89543 324.0 254.0Z" fill-rule="nonzero"/><path stroke="#000000" stroke-width="2.0" stroke-linecap="butt" stroke-opacity="0.0" clip-path="url(#id_0)" d="M347.0 300.0L342.0 300.0L342.0 242.0C342.0 240.89543 342.89542 240.0 344.0 240.0L345.0 240.0C346.10458 240.0 347.0 240.89543 347.0 242.0Z" fill-rule="nonzero"/><path fill="#ea4335" clip-path="url(#id_0)" d="M347.0 300.0L342.0 300.0L342.0 242.0C342.0 240.89543 342.89542 240.0 344.0 240.0L345.0 240.0C346.10458 240.0 347.0 240.89543 347.0 242.0Z" fill-rule="nonzero"/><path stroke="#000000" stroke-width="2.0" stroke-linecap="butt" stroke-opacity="0.0" clip-path="url(#id_0)" d="M369.0 300.0L364.0 300.0L364.0 229.0C364.0 227.89543 364.89542 227.0 366.0 227.0L367.0 227.0C368.10458 227.0 369.0 227.89543 369.0 229.0Z" fill-rule="nonzero"/><path fill="#ea4335" clip-path="url(#id_0)" d="M369.0 300.0L364.0 300.0L364.0 229.0C364.0 227.89543 364.89542 227.0 366.0 227.0L367.0 227.0C368.10458 227.0 369.0 227.89543 369.0 229.0Z" fill-rule="nonzero"/><path stroke="#000000" stroke-width="2.0" stroke-linecap="butt" stroke-opacity="0.0" clip-path="url(#id_0)" d="M392.0 300.0L387.0 300.0L387.0 254.0C387.0 252.89543 387.89542 252.0 389.0 252.0L390.0 252.0C391.10458 252.0 392.0 252.89543 392.0 254.0Z" fill-rule="nonzero"/><path fill="#ea4335" clip-path="url(#id_0)" d="M392.0 300.0L387.0 300.0L387.0 254.0C387.0 252.89543 387.89542 252.0 389.0 252.0L390.0 252.0C391.10458 252.0 392.0 252.89543 392.0 254.0Z" fill-rule="nonzero"/><path stroke="#000000" stroke-width="2.0" stroke-linecap="butt" stroke-opacity="0.0" clip-path="url(#id_0)" d="M414.0 300.0L409.0 300.0L409.0 232.0C409.0 230.89543 409.89542 230.0 411.0 230.0L412.0 230.0C413.10458 230.0 414.0 230.89543 414.0 232.0Z" fill-rule="nonzero"/><path fill="#ea4335" clip-path="url(#id_0)" d="M414.0 300.0L409.0 300.0L409.0 232.0C409.0 230.89543 409.89542 230.0 411.0 230.0L412.0 230.0C413.10458 230.0 414.0 230.89543 414.0 232.0Z" fill-rule="nonzero"/><path stroke="#000000" stroke-width="2.0" stroke-linecap="butt" stroke-opacity="0.0" clip-path="url(#id_0)" d="M437.0 300.0L432.0 300.0L432.0 253.0C432.0 251.89543 432.89542 251.0 434.0 251.0L435.0 251.0C436.10458 251.0 437.0 251.89543 437.0 253.0Z" fill-rule="nonzero"/><path fill="#ea4335" clip-path="url(#id_0)" d="M437.0 300.0L432.0 300.0L432.0 253.0C432.0 251.89543 432.89542 251.0 434.0 251.0L435.0 251.0C436.10458 251.0 437.0 251.89543 437.0 253.0Z" fill-rule="nonzero"/><path stroke="#000000" stroke-width="2.0" stroke-linecap="butt" stroke-opacity="0.0" clip-path="url(#id_0)" d="M460.0 300.0L455.0 300.0L455.0 185.0C455.0 183.89543 455.89542 183.0 457.0 183.0L458.0 183.0C459.10458 183.0 460.0 183.89543 460.0 185.0Z" fill-rule="nonzero"/><path fill="#ea4335" clip-path="url(#id_0)" d="M460.0 300.0L455.0 300.0L455.0 185.0C455.0 183.89543 455.89542 183.0 457.0 183.0L458.0 183.0C459.10458 183.0 460.0 183.89543 460.0 185.0Z" fill-rule="nonzero"/><path stroke="#000000" stroke-width="2.0" stroke-linecap="butt" stroke-opacity="0.0" clip-path="url(#id_0)" d="M482.0 300.0L477.0 300.0L477.0 62.0C477.0 60.89543 477.89542 60.0 479.0 60.0L480.0 60.0C481.10458 60.0 482.0 60.89543 482.0 62.0Z" fill-rule="nonzero"/><path fill="#ea4335" clip-path="url(#id_0)" d="M482.0 300.0L477.0 300.0L477.0 62.0C477.0 60.89543 477.89542 60.0 479.0 60.0L480.0 60.0C481.10458 60.0 482.0 60.89543 482.0 62.0Z" fill-rule="nonzero"/><path stroke="#000000" stroke-width="2.0" stroke-linecap="butt" stroke-opacity="0.0" clip-path="url(#id_0)" d="M505.0 300.0L500.0 300.0L500.0 251.0C500.0 249.89543 500.89542 249.0 502.0 249.0L503.0 249.0C504.10458 249.0 505.0 249.89543 505.0 251.0Z" fill-rule="nonzero"/><path fill="#ea4335" clip-path="url(#id_0)" d="M505.0 300.0L500.0 300.0L500.0 251.0C500.0 249.89543 500.89542 249.0 502.0 249.0L503.0 249.0C504.10458 249.0 505.0 249.89543 505.0 251.0Z" fill-rule="nonzero"/><path stroke="#000000" stroke-width="2.0" stroke-linecap="butt" stroke-opacity="0.0" clip-path="url(#id_0)" d="M527.0 300.0L522.0 300.0L522.0 239.0C522.0 237.89543 522.89545 237.0 524.0 237.0L525.0 237.0C526.10455 237.0 527.0 237.89543 527.0 239.0Z" fill-rule="nonzero"/><path fill="#ea4335" clip-path="url(#id_0)" d="M527.0 300.0L522.0 300.0L522.0 239.0C522.0 237.89543 522.89545 237.0 524.0 237.0L525.0 237.0C526.10455 237.0 527.0 237.89543 527.0 239.0Z" fill-rule="nonzero"/><path stroke="#000000" stroke-width="2.0" stroke-linecap="butt" stroke-opacity="0.0" clip-path="url(#id_0)" d="M550.0 300.0L545.0 300.0L545.0 137.0C545.0 135.89543 545.89545 135.0 547.0 135.0L548.0 135.0C549.10455 135.0 550.0 135.89543 550.0 137.0Z" fill-rule="nonzero"/><path fill="#ea4335" clip-path="url(#id_0)" d="M550.0 300.0L545.0 300.0L545.0 137.0C545.0 135.89543 545.89545 135.0 547.0 135.0L548.0 135.0C549.10455 135.0 550.0 135.89543 550.0 137.0Z" fill-rule="nonzero"/><path stroke="#000000" stroke-width="2.0" stroke-linecap="butt" stroke-opacity="0.0" clip-path="url(#id_0)" d="M572.0 300.0L567.0 300.0L567.0 259.0C567.0 257.89542 567.89545 257.0 569.0 257.0L570.0 257.0C571.10455 257.0 572.0 257.89542 572.0 259.0Z" fill-rule="nonzero"/><path fill="#ea4335" clip-path="url(#id_0)" d="M572.0 300.0L567.0 300.0L567.0 259.0C567.0 257.89542 567.89545 257.0 569.0 257.0L570.0 257.0C571.10455 257.0 572.0 257.89542 572.0 259.0Z" fill-rule="nonzero"/><path fill="#000000" d="M296.3125 349.45L296.3125 342.3094L293.76562 342.3094L293.76562 340.85626L300.57812 340.85626L300.57812 342.3094L298.04688 342.3094L298.04688 349.45L296.3125 349.45ZM301.375 349.45L301.375 340.85626L304.15625 340.85626Q305.73438 340.85626 306.21875 340.98126Q306.95312 341.1844 307.45312 341.84064Q307.95312 342.48126 307.95312 343.4969Q307.95312 344.29376 307.65625 344.84064Q307.375 345.3719 306.9375 345.6844Q306.5 345.98126 306.03125 346.09064Q305.42188 346.21564 304.23438 346.21564L303.10938 346.21564L303.10938 349.45L301.375 349.45ZM303.10938 342.3094L303.10938 344.7469L304.0625 344.7469Q305.07812 344.7469 305.42188 344.6219Q305.78125 344.48126 305.96875 344.2Q306.17188 343.90314 306.17188 343.52814Q306.17188 343.0594 305.89062 342.7625Q305.60938 342.45 305.1875 342.3719Q304.89062 342.3094 303.95312 342.3094L303.10938 342.3094ZM314.875 346.29376L316.54688 346.825Q316.17188 348.23126 315.26562 348.91876Q314.35938 349.59064 312.98438 349.59064Q311.26562 349.59064 310.15625 348.4344Q309.0625 347.2625 309.0625 345.23126Q309.0625 343.09064 310.17188 341.90314Q311.28125 340.71564 313.09375 340.71564Q314.67188 340.71564 315.65625 341.6375Q316.23438 342.2 316.53125 343.23126L314.8125 343.6375Q314.65625 342.96564 314.17188 342.59064Q313.6875 342.2 313.0 342.2Q312.04688 342.2 311.45312 342.8875Q310.85938 343.5594 310.85938 345.10626Q310.85938 346.73126 311.4375 347.41876Q312.03125 348.10626 312.96875 348.10626Q313.65625 348.10626 314.15625 347.66876Q314.65625 347.23126 314.875 346.29376ZM317.17188 347.15314L317.17188 345.5125L320.40625 345.5125L320.40625 347.15314L317.17188 347.15314ZM321.375 349.45L321.375 340.85626L323.10938 340.85626L323.10938 344.2469L326.51562 344.2469L326.51562 340.85626L328.25 340.85626L328.25 349.45L326.51562 349.45L326.51562 345.7L323.10938 345.7L323.10938 349.45L321.375 349.45ZM339.28125 348.35626Q339.92188 348.8094 340.67188 349.09064L340.03125 350.3094Q339.64062 350.2 339.26562 349.9969Q339.1875 349.95 338.10938 349.23126Q337.26562 349.59064 336.25 349.59064Q334.26562 349.59064 333.14062 348.4344Q332.01562 347.2625 332.01562 345.15314Q332.01562 343.04376 333.14062 341.8875Q334.26562 340.71564 336.20312 340.71564Q338.10938 340.71564 339.21875 341.8875Q340.34375 343.04376 340.34375 345.15314Q340.34375 346.2625 340.03125 347.10626Q339.79688 347.7625 339.28125 348.35626ZM337.89062 347.3875Q338.23438 346.98126 338.39062 346.4344Q338.5625 345.8719 338.5625 345.15314Q338.5625 343.66876 337.90625 342.9344Q337.25 342.2 336.1875 342.2Q335.125 342.2 334.46875 342.9344Q333.8125 343.66876 333.8125 345.15314Q333.8125 346.65314 334.46875 347.40314Q335.125 348.15314 336.14062 348.15314Q336.51562 348.15314 336.84375 348.02814Q336.3125 347.6844 335.76562 347.4969L336.26562 346.4969Q337.10938 346.79376 337.89062 347.3875ZM345.45312 349.45L345.45312 348.5125Q345.125 349.0125 344.5625 349.3094Q344.01562 349.59064 343.39062 349.59064Q342.76562 349.59064 342.26562 349.325Q341.76562 349.04376 341.54688 348.54376Q341.32812 348.04376 341.32812 347.16876L341.32812 343.23126L342.96875 343.23126L342.96875 346.09064Q342.96875 347.40314 343.0625 347.7Q343.15625 347.9969 343.39062 348.16876Q343.64062 348.34064 344.0 348.34064Q344.42188 348.34064 344.75 348.10626Q345.09375 347.8719 345.21875 347.52814Q345.34375 347.1844 345.34375 345.85626L345.34375 343.23126L346.98438 343.23126L346.98438 349.45L345.45312 349.45ZM351.96875 347.46564L353.60938 347.7469Q353.29688 348.65314 352.60938 349.1219Q351.92188 349.59064 350.90625 349.59064Q349.28125 349.59064 348.5 348.52814Q347.875 347.6844 347.875 346.3875Q347.875 344.84064 348.6875 343.96564Q349.5 343.09064 350.73438 343.09064Q352.125 343.09064 352.92188 344.0125Q353.73438 344.91876 353.6875 346.8094L349.5625 346.8094Q349.59375 347.54376 349.96875 347.95Q350.34375 348.35626 350.92188 348.35626Q351.29688 348.35626 351.5625 348.15314Q351.82812 347.9344 351.96875 347.46564ZM352.0625 345.8094Q352.04688 345.09064 351.6875 344.71564Q351.34375 344.34064 350.82812 344.34064Q350.29688 344.34064 349.9375 344.73126Q349.59375 345.1375 349.59375 345.8094L352.0625 345.8094ZM356.9375 349.45L355.29688 349.45L355.29688 343.23126L356.82812 343.23126L356.82812 344.10626Q357.21875 343.48126 357.53125 343.29376Q357.84375 343.09064 358.23438 343.09064Q358.79688 343.09064 359.32812 343.40314L358.8125 344.825Q358.39062 344.5594 358.04688 344.5594Q357.6875 344.5594 357.45312 344.7625Q357.21875 344.95 357.07812 345.45Q356.9375 345.9344 356.9375 347.52814L356.9375 349.45ZM359.57812 343.23126L361.32812 343.23126L362.82812 347.6375L364.28125 343.23126L365.98438 343.23126L363.78125 349.21564L363.39062 350.29376Q363.17188 350.84064 362.96875 351.1219Q362.78125 351.41876 362.51562 351.59064Q362.26562 351.77814 361.89062 351.8719Q361.53125 351.98126 361.0625 351.98126Q360.57812 351.98126 360.125 351.8719L359.98438 350.59064Q360.375 350.66876 360.67188 350.66876Q361.25 350.66876 361.51562 350.325Q361.79688 349.9969 361.95312 349.46564L359.57812 343.23126Z" fill-rule="nonzero"/><path fill="#000000" d="M29.550013 214.30833L20.956263 214.30833L20.956263 210.65208Q20.956263 209.27708 21.190638 208.65208Q21.425013 208.02708 22.018763 207.65208Q22.612513 207.27708 23.362513 207.27708Q24.331263 207.27708 24.971888 207.85521Q25.596888 208.41771 25.753138 209.54271Q26.081263 208.98021 26.487513 208.62083Q26.878138 208.24583 27.878138 207.63646L29.550013 206.57396L29.550013 208.65208L27.675013 209.90208Q26.675013 210.57396 26.425013 210.82396Q26.159388 211.07396 26.065638 211.35521Q25.956263 211.62083 25.956263 212.21458L25.956263 212.57396L29.550013 212.57396L29.550013 214.30833ZM24.596888 212.57396L24.596888 211.29271Q24.596888 210.04271 24.487513 209.73021Q24.378138 209.41771 24.128138 209.24583Q23.862513 209.05833 23.471888 209.05833Q23.050013 209.05833 22.784388 209.29271Q22.518763 209.52708 22.440638 209.94896Q22.409388 210.16771 22.409388 211.21458L22.409388 212.57396L24.596888 212.57396ZM29.550013 202.23021L28.612513 202.23021Q29.112513 202.55833 29.409388 203.12083Q29.690638 203.66771 29.690638 204.29271Q29.690638 204.91771 29.425013 205.41771Q29.143763 205.91771 28.643763 206.13646Q28.143763 206.35521 27.268763 206.35521L23.331263 206.35521L23.331263 204.71458L26.190638 204.71458Q27.503138 204.71458 27.800013 204.62083Q28.096888 204.52708 28.268763 204.29271Q28.440638 204.04271 28.440638 203.68333Q28.440638 203.26146 28.206263 202.93333Q27.971888 202.58958 27.628138 202.46458Q27.284388 202.33958 25.956263 202.33958L23.331263 202.33958L23.331263 200.69896L29.550013 200.69896L29.550013 202.23021ZM29.550013 193.66771L29.550013 195.30833L26.378138 195.30833Q25.362513 195.30833 25.065638 195.41771Q24.768763 195.51146 24.612513 195.76146Q24.440638 195.99583 24.440638 196.32396Q24.440638 196.76146 24.675013 197.10521Q24.909388 197.43333 25.300013 197.55833Q25.690638 197.68333 26.737513 197.68333L29.550013 197.68333L29.550013 199.33958L23.331263 199.33958L23.331263 197.80833L24.237513 197.80833Q23.190638 196.99583 23.190638 195.74583Q23.190638 195.21458 23.393763 194.76146Q23.581263 194.30833 23.893763 194.07396Q24.190638 193.83958 24.581263 193.76146Q24.956263 193.66771 25.675013 193.66771L29.550013 193.66771ZM23.331263 189.46458L24.643763 189.46458L24.643763 190.58958L27.143763 190.58958Q27.909388 190.58958 28.034388 190.55833Q28.159388 190.52708 28.253138 190.41771Q28.331263 190.29271 28.331263 190.13646Q28.331263 189.90208 28.159388 189.48021L29.440638 189.33958Q29.690638 189.90208 29.690638 190.63646Q29.690638 191.07396 29.550013 191.43333Q29.393763 191.79271 29.159388 191.96458Q28.909388 192.12083 28.518763 192.19896Q28.221888 192.24583 27.346888 192.24583L24.643763 192.24583L24.643763 192.99583L23.331263 192.99583L23.331263 192.24583L22.096888 192.24583L21.128138 190.58958L23.331263 190.58958L23.331263 189.46458ZM22.487513 188.32396L20.956263 188.32396L20.956263 186.66771L22.487513 186.66771L22.487513 188.32396ZM29.550013 188.32396L23.331263 188.32396L23.331263 186.66771L29.550013 186.66771L29.550013 188.32396ZM23.331263 185.44896L23.331263 183.93333L24.175013 183.93333Q23.190638 183.10521 23.190638 181.98021Q23.190638 181.38646 23.440638 180.94896Q23.675013 180.51146 24.175013 180.23021Q23.675013 179.82396 23.440638 179.35521Q23.190638 178.87083 23.190638 178.32396Q23.190638 177.65208 23.471888 177.18333Q23.737513 176.69896 24.284388 176.46458Q24.675013 176.29271 25.565638 176.29271L29.550013 176.29271L29.550013 177.93333L25.987513 177.93333Q25.065638 177.93333 24.800013 178.10521Q24.440638 178.33958 24.440638 178.80833Q24.440638 179.15208 24.659388 179.46458Q24.862513 179.76146 25.268763 179.90208Q25.675013 180.04271 26.565638 180.04271L29.550013 180.04271L29.550013 181.68333L26.143763 181.68333Q25.237513 181.68333 24.971888 181.77708Q24.706263 181.85521 24.581263 182.04271Q24.440638 182.23021 24.440638 182.54271Q24.440638 182.91771 24.659388 183.23021Q24.862513 183.52708 25.253138 183.66771Q25.628138 183.79271 26.518763 183.79271L29.550013 183.79271L29.550013 185.44896L23.331263 185.44896ZM27.565638 170.71458L27.846888 169.07396Q28.753138 169.38646 29.221888 170.07396Q29.690638 170.76146 29.690638 171.77708Q29.690638 173.40208 28.628138 174.18333Q27.784388 174.80833 26.487513 174.80833Q24.940638 174.80833 24.065638 173.99583Q23.190638 173.18333 23.190638 171.94896Q23.190638 170.55833 24.112513 169.76146Q25.018763 168.94896 26.909388 168.99583L26.909388 173.12083Q27.643763 173.08958 28.050013 172.71458Q28.456263 172.33958 28.456263 171.76146Q28.456263 171.38646 28.253138 171.12083Q28.034388 170.85521 27.565638 170.71458ZM25.909388 170.62083Q25.190638 170.63646 24.815638 170.99583Q24.440638 171.33958 24.440638 171.85521Q24.440638 172.38646 24.831263 172.74583Q25.237513 173.08958 25.909388 173.08958L25.909388 170.62083ZM32.08126 161.58958L32.08126 162.71458Q30.721888 163.62083 29.268763 164.08958Q27.800013 164.55833 26.440638 164.55833Q24.737513 164.55833 23.237513 163.98021Q21.925013 163.46458 20.815638 162.69896L20.815638 161.57396Q22.581263 162.37083 23.831263 162.68333Q25.081263 162.98021 26.471888 162.98021Q27.440638 162.98021 28.456263 162.80833Q29.456263 162.62083 30.362513 162.30833Q30.956263 162.10521 32.08126 161.58958ZM27.768763 160.90208L27.518763 159.24583Q28.003138 159.13646 28.253138 158.82396Q28.503138 158.49583 28.503138 157.91771Q28.503138 157.27708 28.268763 156.96458Q28.096888 156.74583 27.831263 156.74583Q27.643763 156.74583 27.518763 156.85521Q27.393763 156.98021 27.300013 157.40208Q26.862513 159.40208 26.503138 159.93333Q25.987513 160.66771 25.096888 160.66771Q24.284388 160.66771 23.737513 160.04271Q23.190638 159.40208 23.190638 158.05833Q23.190638 156.77708 23.612513 156.15208Q24.018763 155.52708 24.831263 155.29271L25.112513 156.85521Q24.753138 156.94896 24.565638 157.23021Q24.362513 157.51146 24.362513 158.02708Q24.362513 158.66771 24.550013 158.94896Q24.675013 159.13646 24.878138 159.13646Q25.065638 159.13646 25.190638 158.98021Q25.346888 158.76146 25.643763 157.44896Q25.940638 156.12083 26.378138 155.60521Q26.815638 155.08958 27.596888 155.08958Q28.456263 155.08958 29.081263 155.80833Q29.690638 156.51146 29.690638 157.91771Q29.690638 159.18333 29.175013 159.93333Q28.659388 160.66771 27.768763 160.90208ZM32.08126 153.77708Q31.034388 153.29271 30.471888 153.08958Q29.925013 152.88646 29.206263 152.73021Q28.471888 152.55833 27.815638 152.48021Q27.159388 152.38646 26.471888 152.38646Q25.081263 152.38646 23.831263 152.68333Q22.581263 152.98021 20.815638 153.79271L20.815638 152.66771Q22.065638 151.79271 23.487513 151.30833Q24.893763 150.80833 26.346888 150.80833Q27.581263 150.80833 28.971888 151.19896Q30.550013 151.63646 32.08126 152.63646L32.08126 153.77708Z" fill-rule="nonzero"/><path fill="#000000" d="M67.84688 295.825Q69.09688 295.825 69.8 296.71564Q70.62813 297.7625 70.62813 300.21564Q70.62813 302.65314 69.78438 303.71564Q69.09688 304.59064 67.84688 304.59064Q66.59688 304.59064 65.81563 303.6375Q65.05 302.66876 65.05 300.2Q65.05 297.7625 65.89375 296.7Q66.59688 295.825 67.84688 295.825ZM67.84688 297.1844Q67.55 297.1844 67.31563 297.3875Q67.08125 297.575 66.94063 298.0594Q66.78438 298.7 66.78438 300.21564Q66.78438 301.73126 66.925 302.29376Q67.08125 302.85626 67.31563 303.04376Q67.55 303.23126 67.84688 303.23126Q68.14375 303.23126 68.37813 303.04376Q68.6125 302.85626 68.7375 302.35626Q68.90938 301.73126 68.90938 300.21564Q68.90938 298.7 68.75313 298.1375Q68.6125 297.575 68.37813 297.3875Q68.14375 297.1844 67.84688 297.1844Z" fill-rule="nonzero"/><path fill="#000000" d="M63.628124 240.78542L63.628124 242.31667L57.846874 242.31667Q57.940624 241.44167 58.409374 240.67604Q58.878124 239.89479 60.26875 238.61354Q61.378124 237.58229 61.628124 237.20729Q61.971874 236.69167 61.971874 236.19167Q61.971874 235.64479 61.675 235.34792Q61.378124 235.05104 60.8625 235.05104Q60.346874 235.05104 60.034374 235.36354Q59.7375 235.67604 59.690624 236.39479L58.05 236.23854Q58.190624 234.87917 58.95625 234.28542Q59.7375 233.69167 60.89375 233.69167Q62.175 233.69167 62.89375 234.37917Q63.628124 235.06667 63.628124 236.08229Q63.628124 236.66042 63.409374 237.19167Q63.20625 237.70729 62.753124 238.28542Q62.45625 238.66042 61.675 239.37917Q60.89375 240.09792 60.690624 240.33229Q60.4875 240.56667 60.346874 240.78542L63.628124 240.78542ZM65.08125 240.11354L66.72188 239.94167Q66.8 240.48854 67.14375 240.81667Q67.4875 241.14479 67.94063 241.14479Q68.45625 241.14479 68.81563 240.72292Q69.175 240.30104 69.175 239.45729Q69.175 238.67604 68.81563 238.28542Q68.45625 237.87917 67.89375 237.87917Q67.175 237.87917 66.6125 238.50417L65.28438 238.31667L66.12813 233.84792L70.4875 233.84792L70.4875 235.37917L67.37813 235.37917L67.1125 236.84792Q67.675 236.56667 68.2375 236.56667Q69.33125 236.56667 70.09688 237.36354Q70.8625 238.16042 70.8625 239.42604Q70.8625 240.48854 70.25313 241.33229Q69.40938 242.45729 67.925 242.45729Q66.7375 242.45729 65.9875 241.83229Q65.2375 241.19167 65.08125 240.11354Z" fill-rule="nonzero"/><path fill="#000000" d="M58.08125 177.98021L59.721874 177.80833Q59.8 178.35521 60.14375 178.68333Q60.4875 179.01146 60.940624 179.01146Q61.45625 179.01146 61.815624 178.58958Q62.175 178.16771 62.175 177.32396Q62.175 176.54271 61.815624 176.15208Q61.45625 175.74583 60.89375 175.74583Q60.175 175.74583 59.6125 176.37083L58.284374 176.18333L59.128124 171.71458L63.4875 171.71458L63.4875 173.24583L60.378124 173.24583L60.1125 174.71458Q60.675 174.43333 61.2375 174.43333Q62.33125 174.43333 63.096874 175.23021Q63.8625 176.02708 63.8625 177.29271Q63.8625 178.35521 63.253124 179.19896Q62.409374 180.32396 60.925 180.32396Q59.7375 180.32396 58.9875 179.69896Q58.2375 179.05833 58.08125 177.98021ZM67.84688 171.55833Q69.09688 171.55833 69.8 172.44896Q70.62813 173.49583 70.62813 175.94896Q70.62813 178.38646 69.78438 179.44896Q69.09688 180.32396 67.84688 180.32396Q66.59688 180.32396 65.81563 179.37083Q65.05 178.40208 65.05 175.93333Q65.05 173.49583 65.89375 172.43333Q66.59688 171.55833 67.84688 171.55833ZM67.84688 172.91771Q67.55 172.91771 67.31563 173.12083Q67.08125 173.30833 66.94063 173.79271Q66.78438 174.43333 66.78438 175.94896Q66.78438 177.46458 66.925 178.02708Q67.08125 178.58958 67.31563 178.77708Q67.55 178.96458 67.84688 178.96458Q68.14375 178.96458 68.37813 178.77708Q68.6125 178.58958 68.7375 178.08958Q68.90938 177.46458 68.90938 175.94896Q68.90938 174.43333 68.75313 173.87083Q68.6125 173.30833 68.37813 173.12083Q68.14375 172.91771 67.84688 172.91771Z" fill-rule="nonzero"/><path fill="#000000" d="M58.065624 111.1125L58.065624 109.58125L63.690624 109.58125L63.690624 110.76875Q62.9875 111.45625 62.26875 112.7375Q61.55 114.01875 61.175 115.47188Q60.8 116.90938 60.8 118.05L59.221874 118.05Q59.253124 116.26875 59.940624 114.425Q60.64375 112.56563 61.8 111.1125L58.065624 111.1125ZM65.08125 115.84688L66.72188 115.675Q66.8 116.22188 67.14375 116.55Q67.4875 116.87813 67.94063 116.87813Q68.45625 116.87813 68.81563 116.45625Q69.175 116.03438 69.175 115.19063Q69.175 114.40938 68.81563 114.01875Q68.45625 113.6125 67.89375 113.6125Q67.175 113.6125 66.6125 114.2375L65.28438 114.05L66.12813 109.58125L70.4875 109.58125L70.4875 111.1125L67.37813 111.1125L67.1125 112.58125Q67.675 112.3 68.2375 112.3Q69.33125 112.3 70.09688 113.09688Q70.8625 113.89375 70.8625 115.15938Q70.8625 116.22188 70.25313 117.06563Q69.40938 118.19063 67.925 118.19063Q66.7375 118.19063 65.9875 117.56563Q65.2375 116.925 65.08125 115.84688Z" fill-rule="nonzero"/><path fill="#000000" d="M55.26875 55.916668L53.628124 55.916668L53.628124 49.713543Q52.721874 50.557293 51.503124 50.963543L51.503124 49.463543Q52.14375 49.260418 52.89375 48.666668Q53.659374 48.072918 53.940624 47.291668L55.26875 47.291668L55.26875 55.916668ZM60.846874 47.291668Q62.096874 47.291668 62.8 48.182293Q63.628124 49.229168 63.628124 51.682293Q63.628124 54.119793 62.784374 55.182293Q62.096874 56.057293 60.846874 56.057293Q59.596874 56.057293 58.815624 55.104168Q58.05 54.135418 58.05 51.666668Q58.05 49.229168 58.89375 48.166668Q59.596874 47.291668 60.846874 47.291668ZM60.846874 48.651043Q60.55 48.651043 60.315624 48.854168Q60.08125 49.041668 59.940624 49.526043Q59.784374 50.166668 59.784374 51.682293Q59.784374 53.197918 59.925 53.760418Q60.08125 54.322918 60.315624 54.510418Q60.55 54.697918 60.846874 54.697918Q61.14375 54.697918 61.378124 54.510418Q61.6125 54.322918 61.7375 53.822918Q61.909374 53.197918 61.909374 51.682293Q61.909374 50.166668 61.753124 49.604168Q61.6125 49.041668 61.378124 48.854168Q61.14375 48.651043 60.846874 48.651043ZM67.84688 47.291668Q69.09688 47.291668 69.8 48.182293Q70.62813 49.229168 70.62813 51.682293Q70.62813 54.119793 69.78438 55.182293Q69.09688 56.057293 67.84688 56.057293Q66.59688 56.057293 65.81563 55.104168Q65.05 54.135418 65.05 51.666668Q65.05 49.229168 65.89375 48.166668Q66.59688 47.291668 67.84688 47.291668ZM67.84688 48.651043Q67.55 48.651043 67.31563 48.854168Q67.08125 49.041668 66.94063 49.526043Q66.78438 50.166668 66.78438 51.682293Q66.78438 53.197918 66.925 53.760418Q67.08125 54.322918 67.31563 54.510418Q67.55 54.697918 67.84688 54.697918Q68.14375 54.697918 68.37813 54.510418Q68.6125 54.322918 68.7375 53.822918Q68.90938 53.197918 68.90938 51.682293Q68.90938 50.166668 68.75313 49.604168Q68.6125 49.041668 68.37813 48.854168Q68.14375 48.651043 67.84688 48.651043Z" fill-rule="nonzero"/><path fill="#000000" d="M93.987206 317.45L92.34658 317.45L92.34658 311.2469Q91.44033 312.09064 90.22158 312.4969L90.22158 310.9969Q90.862206 310.79376 91.612206 310.2Q92.37783 309.60626 92.65908 308.825L93.987206 308.825L93.987206 317.45Z" fill-rule="nonzero"/><path fill="#000000" d="M117.89244 315.91876L117.89244 317.45L112.11119 317.45Q112.20494 316.575 112.67369 315.8094Q113.14244 315.02814 114.533066 313.7469Q115.64244 312.71564 115.89244 312.34064Q116.23619 311.825 116.23619 311.325Q116.23619 310.77814 115.939316 310.48126Q115.64244 310.1844 115.126816 310.1844Q114.61119 310.1844 114.29869 310.4969Q114.001816 310.8094 113.95494 311.52814L112.314316 311.3719Q112.45494 310.0125 113.220566 309.41876Q114.001816 308.825 115.158066 308.825Q116.439316 308.825 117.158066 309.5125Q117.89244 310.2 117.89244 311.21564Q117.89244 311.79376 117.67369 312.325Q117.470566 312.84064 117.01744 313.41876Q116.720566 313.79376 115.939316 314.5125Q115.158066 315.23126 114.95494 315.46564Q114.751816 315.7 114.61119 315.91876L117.89244 315.91876Z" fill-rule="nonzero"/><path fill="#000000" d="M134.81331 315.16876L136.40706 314.98126Q136.48518 315.59064 136.81331 315.91876Q137.15706 316.23126 137.62581 316.23126Q138.14143 316.23126 138.48518 315.84064Q138.82893 315.45 138.82893 314.79376Q138.82893 314.1844 138.48518 313.825Q138.15706 313.45 137.68831 313.45Q137.36018 313.45 136.92268 313.575L137.11018 312.23126Q137.78206 312.2469 138.12581 311.95Q138.48518 311.6375 138.48518 311.1219Q138.48518 310.7 138.21956 310.45Q137.96956 310.1844 137.53206 310.1844Q137.11018 310.1844 136.81331 310.48126Q136.51643 310.7625 136.45393 311.325L134.93831 311.075Q135.09456 310.29376 135.40706 309.825Q135.73518 309.35626 136.29768 309.09064Q136.87581 308.825 137.57893 308.825Q138.79768 308.825 139.53206 309.59064Q140.12581 310.23126 140.12581 311.02814Q140.12581 312.15314 138.89143 312.825Q139.64143 312.9969 140.07893 313.54376Q140.51643 314.09064 140.51643 314.8719Q140.51643 315.9969 139.68831 316.79376Q138.86018 317.59064 137.64143 317.59064Q136.46956 317.59064 135.70393 316.91876Q134.93831 316.2469 134.81331 315.16876Z" fill-rule="nonzero"/><path fill="#000000" d="M160.64041 317.45L160.64041 315.71564L157.12479 315.71564L157.12479 314.27814L160.85916 308.825L162.23416 308.825L162.23416 314.27814L163.31229 314.27814L163.31229 315.71564L162.23416 315.71564L162.23416 317.45L160.64041 317.45ZM160.64041 314.27814L160.64041 311.34064L158.67166 314.27814L160.64041 314.27814Z" fill-rule="nonzero"/><path fill="#000000" d="M179.98315 315.2469L181.62378 315.075Q181.7019 315.6219 182.04565 315.95Q182.3894 316.27814 182.84253 316.27814Q183.35815 316.27814 183.71753 315.85626Q184.0769 315.4344 184.0769 314.59064Q184.0769 313.8094 183.71753 313.41876Q183.35815 313.0125 182.79565 313.0125Q182.0769 313.0125 181.5144 313.6375L180.18628 313.45L181.03003 308.98126L185.3894 308.98126L185.3894 310.5125L182.28003 310.5125L182.0144 311.98126Q182.5769 311.7 183.1394 311.7Q184.23315 311.7 184.99878 312.4969Q185.7644 313.29376 185.7644 314.5594Q185.7644 315.6219 185.15503 316.46564Q184.31128 317.59064 182.8269 317.59064Q181.6394 317.59064 180.8894 316.96564Q180.1394 316.325 179.98315 315.2469Z" fill-rule="nonzero"/><path fill="#000000" d="M208.0915 310.96564L206.49776 311.1375Q206.43526 310.65314 206.18526 310.41876Q205.93526 310.1844 205.54463 310.1844Q205.029 310.1844 204.66963 310.65314Q204.31026 311.1219 204.2165 312.59064Q204.82588 311.8719 205.74776 311.8719Q206.779 311.8719 207.51338 312.65314Q208.24776 313.4344 208.24776 314.6844Q208.24776 315.9969 207.4665 316.79376Q206.70088 317.59064 205.48213 317.59064Q204.18526 317.59064 203.3415 316.59064Q202.51338 315.575 202.51338 313.27814Q202.51338 310.90314 203.37276 309.8719Q204.24776 308.825 205.654 308.825Q206.62276 308.825 207.26338 309.3719Q207.904 309.91876 208.0915 310.96564ZM204.35713 314.5594Q204.35713 315.35626 204.7165 315.79376Q205.0915 316.23126 205.56026 316.23126Q206.029 316.23126 206.32588 315.8719Q206.63838 315.5125 206.63838 314.7Q206.63838 313.85626 206.31026 313.48126Q205.98213 313.09064 205.48213 313.09064Q205.01338 313.09064 204.68526 313.46564Q204.35713 313.825 204.35713 314.5594Z" fill-rule="nonzero"/><path fill="#000000" d="M225.05925 310.5125L225.05925 308.98126L230.68425 308.98126L230.68425 310.16876Q229.98112 310.85626 229.26237 312.1375Q228.54362 313.41876 228.16862 314.8719Q227.79362 316.3094 227.79362 317.45L226.2155 317.45Q226.24675 315.66876 226.93425 313.825Q227.63737 311.96564 228.79362 310.5125L225.05925 310.5125Z" fill-rule="nonzero"/><path fill="#000000" d="M249.01137 312.8094Q248.37074 312.54376 248.07387 312.075Q247.79262 311.60626 247.79262 311.04376Q247.79262 310.075 248.4645 309.45Q249.13637 308.825 250.37074 308.825Q251.5895 308.825 252.26137 309.45Q252.94887 310.075 252.94887 311.04376Q252.94887 311.6375 252.63637 312.10626Q252.32387 312.575 251.76137 312.8094Q252.48012 313.10626 252.85512 313.65314Q253.23012 314.2 253.23012 314.91876Q253.23012 316.10626 252.4645 316.85626Q251.7145 317.60626 250.44887 317.60626Q249.277 317.60626 248.49574 316.98126Q247.57387 316.2625 247.57387 314.9969Q247.57387 314.29376 247.91762 313.71564Q248.26137 313.1375 249.01137 312.8094ZM249.35512 311.15314Q249.35512 311.65314 249.62074 311.9344Q249.902 312.2 250.37074 312.2Q250.8395 312.2 251.12074 311.91876Q251.402 311.6375 251.402 311.15314Q251.402 310.6844 251.12074 310.41876Q250.8395 310.1375 250.38637 310.1375Q249.91762 310.1375 249.63637 310.41876Q249.35512 310.7 249.35512 311.15314ZM249.19887 314.84064Q249.19887 315.5125 249.54262 315.90314Q249.902 316.27814 250.41762 316.27814Q250.93324 316.27814 251.26137 315.91876Q251.5895 315.54376 251.5895 314.85626Q251.5895 314.2469 251.24574 313.8875Q250.91762 313.5125 250.402 313.5125Q249.79262 313.5125 249.49574 313.9344Q249.19887 314.35626 249.19887 314.84064Z" fill-rule="nonzero"/><path fill="#000000" d="M270.18222 315.46564L271.77597 315.29376Q271.83847 315.77814 272.07285 316.0125Q272.32285 316.2469 272.7291 316.2469Q273.24472 316.2469 273.58847 315.77814Q273.94785 315.3094 274.05722 313.825Q273.43222 314.54376 272.49472 314.54376Q271.49472 314.54376 270.74472 313.7625Q270.01035 312.98126 270.01035 311.73126Q270.01035 310.41876 270.7916 309.6219Q271.57285 308.825 272.77597 308.825Q274.07285 308.825 274.9166 309.84064Q275.76035 310.84064 275.76035 313.15314Q275.76035 315.5125 274.88535 316.5594Q274.01035 317.60626 272.6041 317.60626Q271.6041 317.60626 270.9791 317.075Q270.3541 316.52814 270.18222 315.46564ZM273.90097 311.8719Q273.90097 311.075 273.5416 310.6375Q273.18222 310.1844 272.69785 310.1844Q272.24472 310.1844 271.93222 310.54376Q271.63535 310.90314 271.63535 311.73126Q271.63535 312.5594 271.96347 312.95Q272.2916 313.34064 272.77597 313.34064Q273.26035 313.34064 273.57285 312.96564Q273.90097 312.59064 273.90097 311.8719Z" fill-rule="nonzero"/><path fill="#000000" d="M293.39996 317.45L291.75934 317.45L291.75934 311.2469Q290.8531 312.09064 289.63434 312.4969L289.63434 310.9969Q290.27496 310.79376 291.02496 310.2Q291.7906 309.60626 292.07184 308.825L293.39996 308.825L293.39996 317.45ZM298.9781 308.825Q300.2281 308.825 300.9312 309.71564Q301.75934 310.7625 301.75934 313.21564Q301.75934 315.65314 300.9156 316.71564Q300.2281 317.59064 298.9781 317.59064Q297.7281 317.59064 296.94684 316.6375Q296.1812 315.66876 296.1812 313.2Q296.1812 310.7625 297.02496 309.7Q297.7281 308.825 298.9781 308.825ZM298.9781 310.1844Q298.6812 310.1844 298.44684 310.3875Q298.21246 310.575 298.07184 311.0594Q297.9156 311.7 297.9156 313.21564Q297.9156 314.73126 298.0562 315.29376Q298.21246 315.85626 298.44684 316.04376Q298.6812 316.23126 298.9781 316.23126Q299.27496 316.23126 299.50934 316.04376Q299.7437 315.85626 299.8687 315.35626Q300.0406 314.73126 300.0406 313.21564Q300.0406 311.7 299.88434 311.1375Q299.7437 310.575 299.50934 310.3875Q299.27496 310.1844 298.9781 310.1844Z" fill-rule="nonzero"/><path fill="#000000" d="M315.94583 317.45L314.3052 317.45L314.3052 311.2469Q313.39896 312.09064 312.1802 312.4969L312.1802 310.9969Q312.82083 310.79376 313.57083 310.2Q314.33646 309.60626 314.6177 308.825L315.94583 308.825L315.94583 317.45ZM322.94583 317.45L321.3052 317.45L321.3052 311.2469Q320.39896 312.09064 319.1802 312.4969L319.1802 310.9969Q319.82083 310.79376 320.57083 310.2Q321.33646 309.60626 321.6177 308.825L322.94583 308.825L322.94583 317.45Z" fill-rule="nonzero"/><path fill="#000000" d="M338.49167 317.45L336.85104 317.45L336.85104 311.2469Q335.9448 312.09064 334.72604 312.4969L334.72604 310.9969Q335.36667 310.79376 336.11667 310.2Q336.8823 309.60626 337.16354 308.825L338.49167 308.825L338.49167 317.45ZM346.85104 315.91876L346.85104 317.45L341.0698 317.45Q341.16354 316.575 341.6323 315.8094Q342.10104 315.02814 343.49167 313.7469Q344.60104 312.71564 344.85104 312.34064Q345.1948 311.825 345.1948 311.325Q345.1948 310.77814 344.89792 310.48126Q344.60104 310.1844 344.08542 310.1844Q343.5698 310.1844 343.2573 310.4969Q342.96042 310.8094 342.91354 311.52814L341.27292 311.3719Q341.41354 310.0125 342.17917 309.41876Q342.96042 308.825 344.11667 308.825Q345.39792 308.825 346.11667 309.5125Q346.85104 310.2 346.85104 311.21564Q346.85104 311.79376 346.6323 312.325Q346.42917 312.84064 345.97604 313.41876Q345.67917 313.79376 344.89792 314.5125Q344.11667 315.23126 343.91354 315.46564Q343.71042 315.7 343.5698 315.91876L346.85104 315.91876Z" fill-rule="nonzero"/><path fill="#000000" d="M361.03754 317.45L359.3969 317.45L359.3969 311.2469Q358.49066 312.09064 357.2719 312.4969L357.2719 310.9969Q357.91254 310.79376 358.66254 310.2Q359.42816 309.60626 359.7094 308.825L361.03754 308.825L361.03754 317.45ZM363.7719 315.16876L365.36566 314.98126Q365.4438 315.59064 365.7719 315.91876Q366.11566 316.23126 366.5844 316.23126Q367.10004 316.23126 367.4438 315.84064Q367.78754 315.45 367.78754 314.79376Q367.78754 314.1844 367.4438 313.825Q367.11566 313.45 366.6469 313.45Q366.3188 313.45 365.8813 313.575L366.0688 312.23126Q366.74066 312.2469 367.0844 311.95Q367.4438 311.6375 367.4438 311.1219Q367.4438 310.7 367.17816 310.45Q366.92816 310.1844 366.49066 310.1844Q366.0688 310.1844 365.7719 310.48126Q365.47504 310.7625 365.41254 311.325L363.8969 311.075Q364.05316 310.29376 364.36566 309.825Q364.6938 309.35626 365.2563 309.09064Q365.8344 308.825 366.53754 308.825Q367.7563 308.825 368.49066 309.59064Q369.0844 310.23126 369.0844 311.02814Q369.0844 312.15314 367.85004 312.825Q368.60004 312.9969 369.03754 313.54376Q369.47504 314.09064 369.47504 314.8719Q369.47504 315.9969 368.6469 316.79376Q367.8188 317.59064 366.60004 317.59064Q365.42816 317.59064 364.66254 316.91876Q363.8969 316.2469 363.7719 315.16876Z" fill-rule="nonzero"/><path fill="#000000" d="M383.5834 317.45L381.94278 317.45L381.94278 311.2469Q381.03653 312.09064 379.81778 312.4969L379.81778 310.9969Q380.4584 310.79376 381.2084 310.2Q381.97403 309.60626 382.25528 308.825L383.5834 308.825L383.5834 317.45ZM389.59903 317.45L389.59903 315.71564L386.0834 315.71564L386.0834 314.27814L389.81778 308.825L391.19278 308.825L391.19278 314.27814L392.2709 314.27814L392.2709 315.71564L391.19278 315.71564L391.19278 317.45L389.59903 317.45ZM389.59903 314.27814L389.59903 311.34064L387.63028 314.27814L389.59903 314.27814Z" fill-rule="nonzero"/><path fill="#000000" d="M406.12927 317.45L404.48865 317.45L404.48865 311.2469Q403.5824 312.09064 402.36365 312.4969L402.36365 310.9969Q403.00427 310.79376 403.75427 310.2Q404.5199 309.60626 404.80115 308.825L406.12927 308.825L406.12927 317.45ZM408.94177 315.2469L410.5824 315.075Q410.66052 315.6219 411.00427 315.95Q411.34802 316.27814 411.80115 316.27814Q412.31677 316.27814 412.67615 315.85626Q413.03552 315.4344 413.03552 314.59064Q413.03552 313.8094 412.67615 313.41876Q412.31677 313.0125 411.75427 313.0125Q411.03552 313.0125 410.47302 313.6375L409.1449 313.45L409.98865 308.98126L414.34802 308.98126L414.34802 310.5125L411.23865 310.5125L410.97302 311.98126Q411.53552 311.7 412.09802 311.7Q413.19177 311.7 413.9574 312.4969Q414.72302 313.29376 414.72302 314.5594Q414.72302 315.6219 414.11365 316.46564Q413.2699 317.59064 411.78552 317.59064Q410.59802 317.59064 409.84802 316.96564Q409.09802 316.325 408.94177 315.2469Z" fill-rule="nonzero"/><path fill="#000000" d="M428.67514 317.45L427.03452 317.45L427.03452 311.2469Q426.12827 312.09064 424.90952 312.4969L424.90952 310.9969Q425.55014 310.79376 426.30014 310.2Q427.06577 309.60626 427.34702 308.825L428.67514 308.825L428.67514 317.45ZM437.05014 310.96564L435.4564 311.1375Q435.3939 310.65314 435.1439 310.41876Q434.8939 310.1844 434.50327 310.1844Q433.98764 310.1844 433.62827 310.65314Q433.2689 311.1219 433.17514 312.59064Q433.78452 311.8719 434.7064 311.8719Q435.73764 311.8719 436.47202 312.65314Q437.2064 313.4344 437.2064 314.6844Q437.2064 315.9969 436.42514 316.79376Q435.65952 317.59064 434.44077 317.59064Q433.1439 317.59064 432.30014 316.59064Q431.47202 315.575 431.47202 313.27814Q431.47202 310.90314 432.3314 309.8719Q433.2064 308.825 434.61264 308.825Q435.5814 308.825 436.22202 309.3719Q436.86264 309.91876 437.05014 310.96564ZM433.31577 314.5594Q433.31577 315.35626 433.67514 315.79376Q434.05014 316.23126 434.5189 316.23126Q434.98764 316.23126 435.28452 315.8719Q435.59702 315.5125 435.59702 314.7Q435.59702 313.85626 435.2689 313.48126Q434.94077 313.09064 434.44077 313.09064Q433.97202 313.09064 433.6439 313.46564Q433.31577 313.825 433.31577 314.5594Z" fill-rule="nonzero"/><path fill="#000000" d="M451.22098 317.45L449.58035 317.45L449.58035 311.2469Q448.6741 312.09064 447.45535 312.4969L447.45535 310.9969Q448.09598 310.79376 448.84598 310.2Q449.6116 309.60626 449.89285 308.825L451.22098 308.825L451.22098 317.45ZM454.01785 310.5125L454.01785 308.98126L459.64285 308.98126L459.64285 310.16876Q458.93973 310.85626 458.22098 312.1375Q457.50223 313.41876 457.12723 314.8719Q456.75223 316.3094 456.75223 317.45L455.1741 317.45Q455.20535 315.66876 455.89285 313.825Q456.59598 311.96564 457.75223 310.5125L454.01785 310.5125Z" fill-rule="nonzero"/><path fill="#000000" d="M473.76685 317.45L472.12622 317.45L472.12622 311.2469Q471.21997 312.09064 470.00122 312.4969L470.00122 310.9969Q470.64185 310.79376 471.39185 310.2Q472.15747 309.60626 472.43872 308.825L473.76685 308.825L473.76685 317.45ZM477.96997 312.8094Q477.32935 312.54376 477.03247 312.075Q476.75122 311.60626 476.75122 311.04376Q476.75122 310.075 477.4231 309.45Q478.09497 308.825 479.32935 308.825Q480.5481 308.825 481.21997 309.45Q481.90747 310.075 481.90747 311.04376Q481.90747 311.6375 481.59497 312.10626Q481.28247 312.575 480.71997 312.8094Q481.43872 313.10626 481.81372 313.65314Q482.18872 314.2 482.18872 314.91876Q482.18872 316.10626 481.4231 316.85626Q480.6731 317.60626 479.40747 317.60626Q478.2356 317.60626 477.45435 316.98126Q476.53247 316.2625 476.53247 314.9969Q476.53247 314.29376 476.87622 313.71564Q477.21997 313.1375 477.96997 312.8094ZM478.31372 311.15314Q478.31372 311.65314 478.57935 311.9344Q478.8606 312.2 479.32935 312.2Q479.7981 312.2 480.07935 311.91876Q480.3606 311.6375 480.3606 311.15314Q480.3606 310.6844 480.07935 310.41876Q479.7981 310.1375 479.34497 310.1375Q478.87622 310.1375 478.59497 310.41876Q478.31372 310.7 478.31372 311.15314ZM478.15747 314.84064Q478.15747 315.5125 478.50122 315.90314Q478.8606 316.27814 479.37622 316.27814Q479.89185 316.27814 480.21997 315.91876Q480.5481 315.54376 480.5481 314.85626Q480.5481 314.2469 480.20435 313.8875Q479.87622 313.5125 479.3606 313.5125Q478.75122 313.5125 478.45435 313.9344Q478.15747 314.35626 478.15747 314.84064Z" fill-rule="nonzero"/><path fill="#000000" d="M496.3127 317.45L494.6721 317.45L494.6721 311.2469Q493.76584 312.09064 492.5471 312.4969L492.5471 310.9969Q493.1877 310.79376 493.9377 310.2Q494.70334 309.60626 494.9846 308.825L496.3127 308.825L496.3127 317.45ZM499.14084 315.46564L500.7346 315.29376Q500.7971 315.77814 501.03146 316.0125Q501.28146 316.2469 501.6877 316.2469Q502.20334 316.2469 502.5471 315.77814Q502.90646 315.3094 503.01584 313.825Q502.39084 314.54376 501.45334 314.54376Q500.45334 314.54376 499.70334 313.7625Q498.96896 312.98126 498.96896 311.73126Q498.96896 310.41876 499.7502 309.6219Q500.53146 308.825 501.7346 308.825Q503.03146 308.825 503.8752 309.84064Q504.71896 310.84064 504.71896 313.15314Q504.71896 315.5125 503.84396 316.5594Q502.96896 317.60626 501.5627 317.60626Q500.5627 317.60626 499.9377 317.075Q499.3127 316.52814 499.14084 315.46564ZM502.8596 311.8719Q502.8596 311.075 502.5002 310.6375Q502.14084 310.1844 501.65646 310.1844Q501.20334 310.1844 500.89084 310.54376Q500.59396 310.90314 500.59396 311.73126Q500.59396 312.5594 500.9221 312.95Q501.2502 313.34064 501.7346 313.34064Q502.21896 313.34064 502.53146 312.96564Q502.8596 312.59064 502.8596 311.8719Z" fill-rule="nonzero"/><path fill="#000000" d="M520.21796 315.91876L520.21796 317.45L514.4367 317.45Q514.53046 316.575 514.9992 315.8094Q515.46796 315.02814 516.8586 313.7469Q517.96796 312.71564 518.21796 312.34064Q518.5617 311.825 518.5617 311.325Q518.5617 310.77814 518.26483 310.48126Q517.96796 310.1844 517.45233 310.1844Q516.9367 310.1844 516.6242 310.4969Q516.32733 310.8094 516.28046 311.52814L514.63983 311.3719Q514.78046 310.0125 515.5461 309.41876Q516.32733 308.825 517.4836 308.825Q518.76483 308.825 519.4836 309.5125Q520.21796 310.2 520.21796 311.21564Q520.21796 311.79376 519.9992 312.325Q519.7961 312.84064 519.34296 313.41876Q519.0461 313.79376 518.26483 314.5125Q517.4836 315.23126 517.28046 315.46564Q517.07733 315.7 516.9367 315.91876L520.21796 315.91876ZM524.4367 308.825Q525.6867 308.825 526.38983 309.71564Q527.21796 310.7625 527.21796 313.21564Q527.21796 315.65314 526.3742 316.71564Q525.6867 317.59064 524.4367 317.59064Q523.1867 317.59064 522.40546 316.6375Q521.63983 315.66876 521.63983 313.2Q521.63983 310.7625 522.4836 309.7Q523.1867 308.825 524.4367 308.825ZM524.4367 310.1844Q524.13983 310.1844 523.90546 310.3875Q523.6711 310.575 523.53046 311.0594Q523.3742 311.7 523.3742 313.21564Q523.3742 314.73126 523.51483 315.29376Q523.6711 315.85626 523.90546 316.04376Q524.13983 316.23126 524.4367 316.23126Q524.7336 316.23126 524.96796 316.04376Q525.20233 315.85626 525.32733 315.35626Q525.4992 314.73126 525.4992 313.21564Q525.4992 311.7 525.34296 311.1375Q525.20233 310.575 524.96796 310.3875Q524.7336 310.1844 524.4367 310.1844Z" fill-rule="nonzero"/><path fill="#000000" d="M542.7638 315.91876L542.7638 317.45L536.98254 317.45Q537.0763 316.575 537.54504 315.8094Q538.0138 315.02814 539.4044 313.7469Q540.5138 312.71564 540.7638 312.34064Q541.10754 311.825 541.10754 311.325Q541.10754 310.77814 540.81067 310.48126Q540.5138 310.1844 539.99817 310.1844Q539.48254 310.1844 539.17004 310.4969Q538.87317 310.8094 538.8263 311.52814L537.18567 311.3719Q537.3263 310.0125 538.0919 309.41876Q538.87317 308.825 540.0294 308.825Q541.31067 308.825 542.0294 309.5125Q542.7638 310.2 542.7638 311.21564Q542.7638 311.79376 542.54504 312.325Q542.3419 312.84064 541.8888 313.41876Q541.5919 313.79376 540.81067 314.5125Q540.0294 315.23126 539.8263 315.46564Q539.62317 315.7 539.48254 315.91876L542.7638 315.91876ZM548.4044 317.45L546.7638 317.45L546.7638 311.2469Q545.85754 312.09064 544.6388 312.4969L544.6388 310.9969Q545.2794 310.79376 546.0294 310.2Q546.79504 309.60626 547.0763 308.825L548.4044 308.825L548.4044 317.45Z" fill-rule="nonzero"/><path fill="#000000" d="M565.3097 315.91876L565.3097 317.45L559.52844 317.45Q559.6222 316.575 560.09094 315.8094Q560.5597 315.02814 561.9503 313.7469Q563.0597 312.71564 563.3097 312.34064Q563.65344 311.825 563.65344 311.325Q563.65344 310.77814 563.35657 310.48126Q563.0597 310.1844 562.54407 310.1844Q562.02844 310.1844 561.71594 310.4969Q561.41907 310.8094 561.3722 311.52814L559.73157 311.3719Q559.8722 310.0125 560.6378 309.41876Q561.41907 308.825 562.5753 308.825Q563.85657 308.825 564.5753 309.5125Q565.3097 310.2 565.3097 311.21564Q565.3097 311.79376 565.09094 312.325Q564.8878 312.84064 564.4347 313.41876Q564.1378 313.79376 563.35657 314.5125Q562.5753 315.23126 562.3722 315.46564Q562.16907 315.7 562.02844 315.91876L565.3097 315.91876ZM572.3097 315.91876L572.3097 317.45L566.52844 317.45Q566.6222 316.575 567.09094 315.8094Q567.5597 315.02814 568.9503 313.7469Q570.0597 312.71564 570.3097 312.34064Q570.65344 311.825 570.65344 311.325Q570.65344 310.77814 570.35657 310.48126Q570.0597 310.1844 569.54407 310.1844Q569.02844 310.1844 568.71594 310.4969Q568.41907 310.8094 568.3722 311.52814L566.73157 311.3719Q566.8722 310.0125 567.6378 309.41876Q568.41907 308.825 569.5753 308.825Q570.85657 308.825 571.5753 309.5125Q572.3097 310.2 572.3097 311.21564Q572.3097 311.79376 572.09094 312.325Q571.8878 312.84064 571.4347 313.41876Q571.1378 313.79376 570.35657 314.5125Q569.5753 315.23126 569.3722 315.46564Q569.16907 315.7 569.02844 315.91876L572.3097 315.91876Z" fill-rule="nonzero"/><path fill="#4285f4" d="M188.5 20.55C188.5 19.997715 188.94771 19.55 189.5 19.55L199.5 19.55C200.05229 19.55 200.5 19.997715 200.5 20.55L200.5 30.55C200.5 31.102285 200.05229 31.55 199.5 31.55L189.5 31.55C188.94771 31.55 188.5 31.102285 188.5 30.55Z" fill-rule="nonzero"/><path fill="#1a1a1a" d="M216.28125 28.45625Q216.92188 28.909374 217.67188 29.190624L217.03125 30.409374Q216.64062 30.3 216.26562 30.096874Q216.1875 30.05 215.10938 29.33125Q214.26562 29.690624 213.25 29.690624Q211.26562 29.690624 210.14062 28.534374Q209.01562 27.3625 209.01562 25.253124Q209.01562 23.14375 210.14062 21.9875Q211.26562 20.815624 213.20312 20.815624Q215.10938 20.815624 216.21875 21.9875Q217.34375 23.14375 217.34375 25.253124Q217.34375 26.3625 217.03125 27.20625Q216.79688 27.8625 216.28125 28.45625ZM214.89062 27.4875Q215.23438 27.08125 215.39062 26.534374Q215.5625 25.971874 215.5625 25.253124Q215.5625 23.76875 214.90625 23.034374Q214.25 22.3 213.1875 22.3Q212.125 22.3 211.46875 23.034374Q210.8125 23.76875 210.8125 25.253124Q210.8125 26.753124 211.46875 27.503124Q212.125 28.253124 213.14062 28.253124Q213.51562 28.253124 213.84375 28.128124Q213.3125 27.784374 212.76562 27.596874L213.26562 26.596874Q214.10938 26.89375 214.89062 27.4875ZM222.45312 29.55L222.45312 28.6125Q222.125 29.1125 221.5625 29.409374Q221.01562 29.690624 220.39062 29.690624Q219.76562 29.690624 219.26562 29.425Q218.76562 29.14375 218.54688 28.64375Q218.32812 28.14375 218.32812 27.26875L218.32812 23.33125L219.96875 23.33125L219.96875 26.190624Q219.96875 27.503124 220.0625 27.8Q220.15625 28.096874 220.39062 28.26875Q220.64062 28.440624 221.0 28.440624Q221.42188 28.440624 221.75 28.20625Q222.09375 27.971874 222.21875 27.628124Q222.34375 27.284374 222.34375 25.95625L222.34375 23.33125L223.98438 23.33125L223.98438 29.55L222.45312 29.55ZM224.98438 26.346874Q224.98438 25.534374 225.39062 24.76875Q225.79688 23.9875 226.53125 23.596874Q227.26562 23.190624 228.1875 23.190624Q229.59375 23.190624 230.5 24.1125Q231.40625 25.01875 231.40625 26.425Q231.40625 27.83125 230.48438 28.76875Q229.57812 29.690624 228.20312 29.690624Q227.34375 29.690624 226.5625 29.3Q225.79688 28.909374 225.39062 28.175Q224.98438 27.425 224.98438 26.346874ZM226.67188 26.440624Q226.67188 27.3625 227.10938 27.8625Q227.54688 28.346874 228.1875 28.346874Q228.84375 28.346874 229.26562 27.8625Q229.70312 27.3625 229.70312 26.425Q229.70312 25.51875 229.26562 25.034374Q228.84375 24.534374 228.1875 24.534374Q227.54688 24.534374 227.10938 25.034374Q226.67188 25.51875 226.67188 26.440624ZM232.29688 29.55L232.29688 20.95625L233.95312 20.95625L233.95312 25.51875L235.875 23.33125L237.90625 23.33125L235.78125 25.596874L238.0625 29.55L236.28125 29.55L234.71875 26.753124L233.95312 27.55L233.95312 29.55L232.29688 29.55ZM239.29688 29.55L239.29688 20.95625L240.95312 20.95625L240.95312 25.51875L242.875 23.33125L244.90625 23.33125L242.78125 25.596874L245.0625 29.55L243.28125 29.55L241.71875 26.753124L240.95312 27.55L240.95312 29.55L239.29688 29.55ZM247.59375 25.221874L246.09375 24.95625Q246.34375 24.05 246.95312 23.628124Q247.57812 23.190624 248.79688 23.190624Q249.89062 23.190624 250.42188 23.45625Q250.96875 23.70625 251.1875 24.1125Q251.40625 24.503124 251.40625 25.58125L251.39062 27.503124Q251.39062 28.33125 251.46875 28.721874Q251.54688 29.096874 251.76562 29.55L250.14062 29.55Q250.07812 29.378124 249.98438 29.065624Q249.9375 28.909374 249.92188 28.8625Q249.5 29.284374 249.01562 29.4875Q248.54688 29.690624 248.0 29.690624Q247.03125 29.690624 246.46875 29.175Q245.92188 28.64375 245.92188 27.846874Q245.92188 27.315624 246.17188 26.909374Q246.4375 26.503124 246.89062 26.284374Q247.34375 26.05 248.20312 25.89375Q249.34375 25.675 249.79688 25.4875L249.79688 25.33125Q249.79688 24.846874 249.5625 24.64375Q249.32812 24.440624 248.67188 24.440624Q248.23438 24.440624 247.98438 24.6125Q247.75 24.784374 247.59375 25.221874ZM249.79688 26.565624Q249.48438 26.659374 248.79688 26.815624Q248.10938 26.95625 247.89062 27.096874Q247.57812 27.33125 247.57812 27.675Q247.57812 28.01875 247.82812 28.284374Q248.09375 28.534374 248.48438 28.534374Q248.9375 28.534374 249.34375 28.2375Q249.64062 28.01875 249.73438 27.690624Q249.79688 27.4875 249.79688 26.89375L249.79688 26.565624Z" fill-rule="nonzero"/><path fill="#ea4335" d="M268.5 20.55C268.5 19.997715 268.94772 19.55 269.5 19.55L279.5 19.55C280.05228 19.55 280.5 19.997715 280.5 20.55L280.5 30.55C280.5 31.102285 280.05228 31.55 279.5 31.55L269.5 31.55C268.94772 31.55 268.5 31.102285 268.5 30.55Z" fill-rule="nonzero"/><path fill="#1a1a1a" d="M288.9375 26.753124L290.625 26.596874Q290.78125 27.440624 291.23438 27.846874Q291.70312 28.2375 292.5 28.2375Q293.32812 28.2375 293.75 27.89375Q294.1875 27.534374 294.1875 27.05Q294.1875 26.753124 294.0 26.534374Q293.82812 26.315624 293.375 26.159374Q293.07812 26.05 292.0 25.784374Q290.59375 25.440624 290.03125 24.940624Q289.25 24.221874 289.25 23.20625Q289.25 22.55 289.60938 21.9875Q289.98438 21.409374 290.6875 21.1125Q291.39062 20.815624 292.375 20.815624Q294.0 20.815624 294.8125 21.534374Q295.625 22.2375 295.67188 23.409374L293.9375 23.4875Q293.82812 22.83125 293.45312 22.55Q293.09375 22.253124 292.35938 22.253124Q291.60938 22.253124 291.17188 22.565624Q290.90625 22.753124 290.90625 23.096874Q290.90625 23.39375 291.15625 23.6125Q291.48438 23.89375 292.75 24.190624Q294.01562 24.4875 294.625 24.815624Q295.23438 25.128124 295.57812 25.690624Q295.92188 26.2375 295.92188 27.05Q295.92188 27.784374 295.5 28.440624Q295.09375 29.08125 294.34375 29.39375Q293.59375 29.70625 292.48438 29.70625Q290.84375 29.70625 289.96875 28.95625Q289.10938 28.190624 288.9375 26.753124ZM297.3125 23.33125L298.84375 23.33125L298.84375 24.2375Q299.15625 23.76875 299.65625 23.4875Q300.17188 23.190624 300.79688 23.190624Q301.875 23.190624 302.625 24.034374Q303.39062 24.878124 303.39062 26.409374Q303.39062 27.95625 302.625 28.83125Q301.85938 29.690624 300.78125 29.690624Q300.26562 29.690624 299.84375 29.4875Q299.42188 29.284374 298.96875 28.784374L298.96875 31.925L297.3125 31.925L297.3125 23.33125ZM298.9375 26.33125Q298.9375 27.378124 299.35938 27.878124Q299.78125 28.378124 300.375 28.378124Q300.95312 28.378124 301.32812 27.925Q301.70312 27.45625 301.70312 26.409374Q301.70312 25.440624 301.3125 24.971874Q300.92188 24.4875 300.34375 24.4875Q299.73438 24.4875 299.32812 24.95625Q298.9375 25.425 298.9375 26.33125ZM305.59375 25.221874L304.09375 24.95625Q304.34375 24.05 304.95312 23.628124Q305.57812 23.190624 306.79688 23.190624Q307.89062 23.190624 308.42188 23.45625Q308.96875 23.70625 309.1875 24.1125Q309.40625 24.503124 309.40625 25.58125L309.39062 27.503124Q309.39062 28.33125 309.46875 28.721874Q309.54688 29.096874 309.76562 29.55L308.14062 29.55Q308.07812 29.378124 307.98438 29.065624Q307.9375 28.909374 307.92188 28.8625Q307.5 29.284374 307.01562 29.4875Q306.54688 29.690624 306.0 29.690624Q305.03125 29.690624 304.46875 29.175Q303.92188 28.64375 303.92188 27.846874Q303.92188 27.315624 304.17188 26.909374Q304.4375 26.503124 304.89062 26.284374Q305.34375 26.05 306.20312 25.89375Q307.34375 25.675 307.79688 25.4875L307.79688 25.33125Q307.79688 24.846874 307.5625 24.64375Q307.32812 24.440624 306.67188 24.440624Q306.23438 24.440624 305.98438 24.6125Q305.75 24.784374 305.59375 25.221874ZM307.79688 26.565624Q307.48438 26.659374 306.79688 26.815624Q306.10938 26.95625 305.89062 27.096874Q305.57812 27.33125 305.57812 27.675Q305.57812 28.01875 305.82812 28.284374Q306.09375 28.534374 306.48438 28.534374Q306.9375 28.534374 307.34375 28.2375Q307.64062 28.01875 307.73438 27.690624Q307.79688 27.4875 307.79688 26.89375L307.79688 26.565624ZM312.9375 29.55L311.29688 29.55L311.29688 23.33125L312.82812 23.33125L312.82812 24.20625Q313.21875 23.58125 313.53125 23.39375Q313.84375 23.190624 314.23438 23.190624Q314.79688 23.190624 315.32812 23.503124L314.8125 24.925Q314.39062 24.659374 314.04688 24.659374Q313.6875 24.659374 313.45312 24.8625Q313.21875 25.05 313.07812 25.55Q312.9375 26.034374 312.9375 27.628124L312.9375 29.55ZM316.29688 29.55L316.29688 20.95625L317.95312 20.95625L317.95312 25.51875L319.875 23.33125L321.90625 23.33125L319.78125 25.596874L322.0625 29.55L320.28125 29.55L318.71875 26.753124L317.95312 27.55L317.95312 29.55L316.29688 29.55ZM322.9375 26.753124L324.625 26.596874Q324.78125 27.440624 325.23438 27.846874Q325.70312 28.2375 326.5 28.2375Q327.32812 28.2375 327.75 27.89375Q328.1875 27.534374 328.1875 27.05Q328.1875 26.753124 328.0 26.534374Q327.82812 26.315624 327.375 26.159374Q327.07812 26.05 326.0 25.784374Q324.59375 25.440624 324.03125 24.940624Q323.25 24.221874 323.25 23.20625Q323.25 22.55 323.60938 21.9875Q323.98438 21.409374 324.6875 21.1125Q325.39062 20.815624 326.375 20.815624Q328.0 20.815624 328.8125 21.534374Q329.625 22.2375 329.67188 23.409374L327.9375 23.4875Q327.82812 22.83125 327.45312 22.55Q327.09375 22.253124 326.35938 22.253124Q325.60938 22.253124 325.17188 22.565624Q324.90625 22.753124 324.90625 23.096874Q324.90625 23.39375 325.15625 23.6125Q325.48438 23.89375 326.75 24.190624Q328.01562 24.4875 328.625 24.815624Q329.23438 25.128124 329.57812 25.690624Q329.92188 26.2375 329.92188 27.05Q329.92188 27.784374 329.5 28.440624Q329.09375 29.08125 328.34375 29.39375Q327.59375 29.70625 326.48438 29.70625Q324.84375 29.70625 323.96875 28.95625Q323.10938 28.190624 322.9375 26.753124ZM338.28125 28.45625Q338.92188 28.909374 339.67188 29.190624L339.03125 30.409374Q338.64062 30.3 338.26562 30.096874Q338.1875 30.05 337.10938 29.33125Q336.26562 29.690624 335.25 29.690624Q333.26562 29.690624 332.14062 28.534374Q331.01562 27.3625 331.01562 25.253124Q331.01562 23.14375 332.14062 21.9875Q333.26562 20.815624 335.20312 20.815624Q337.10938 20.815624 338.21875 21.9875Q339.34375 23.14375 339.34375 25.253124Q339.34375 26.3625 339.03125 27.20625Q338.79688 27.8625 338.28125 28.45625ZM336.89062 27.4875Q337.23438 27.08125 337.39062 26.534374Q337.5625 25.971874 337.5625 25.253124Q337.5625 23.76875 336.90625 23.034374Q336.25 22.3 335.1875 22.3Q334.125 22.3 333.46875 23.034374Q332.8125 23.76875 332.8125 25.253124Q332.8125 26.753124 333.46875 27.503124Q334.125 28.253124 335.14062 28.253124Q335.51562 28.253124 335.84375 28.128124Q335.3125 27.784374 334.76562 27.596874L335.26562 26.596874Q336.10938 26.89375 336.89062 27.4875ZM340.42188 29.55L340.42188 21.034374L342.15625 21.034374L342.15625 28.096874L346.46875 28.096874L346.46875 29.55L340.42188 29.55ZM349.95312 27.26875L351.54688 27.08125Q351.625 27.690624 351.95312 28.01875Q352.29688 28.33125 352.76562 28.33125Q353.28125 28.33125 353.625 27.940624Q353.96875 27.55 353.96875 26.89375Q353.96875 26.284374 353.625 25.925Q353.29688 25.55 352.82812 25.55Q352.5 25.55 352.0625 25.675L352.25 24.33125Q352.92188 24.346874 353.26562 24.05Q353.625 23.7375 353.625 23.221874Q353.625 22.8 353.35938 22.55Q353.10938 22.284374 352.67188 22.284374Q352.25 22.284374 351.95312 22.58125Q351.65625 22.8625 351.59375 23.425L350.07812 23.175Q350.23438 22.39375 350.54688 21.925Q350.875 21.45625 351.4375 21.190624Q352.01562 20.925 352.71875 20.925Q353.9375 20.925 354.67188 21.690624Q355.26562 22.33125 355.26562 23.128124Q355.26562 24.253124 354.03125 24.925Q354.78125 25.096874 355.21875 25.64375Q355.65625 26.190624 355.65625 26.971874Q355.65625 28.096874 354.82812 28.89375Q354.0 29.690624 352.78125 29.690624Q351.60938 29.690624 350.84375 29.01875Q350.07812 28.346874 349.95312 27.26875ZM357.35938 29.55L357.35938 27.909374L359.01562 27.909374L359.01562 29.55L357.35938 29.55ZM359.95312 27.26875L361.54688 27.08125Q361.625 27.690624 361.95312 28.01875Q362.29688 28.33125 362.76562 28.33125Q363.28125 28.33125 363.625 27.940624Q363.96875 27.55 363.96875 26.89375Q363.96875 26.284374 363.625 25.925Q363.29688 25.55 362.82812 25.55Q362.5 25.55 362.0625 25.675L362.25 24.33125Q362.92188 24.346874 363.26562 24.05Q363.625 23.7375 363.625 23.221874Q363.625 22.8 363.35938 22.55Q363.10938 22.284374 362.67188 22.284374Q362.25 22.284374 361.95312 22.58125Q361.65625 22.8625 361.59375 23.425L360.07812 23.175Q360.23438 22.39375 360.54688 21.925Q360.875 21.45625 361.4375 21.190624Q362.01562 20.925 362.71875 20.925Q363.9375 20.925 364.67188 21.690624Q365.26562 22.33125 365.26562 23.128124Q365.26562 24.253124 364.03125 24.925Q364.78125 25.096874 365.21875 25.64375Q365.65625 26.190624 365.65625 26.971874Q365.65625 28.096874 364.82812 28.89375Q364.0 29.690624 362.78125 29.690624Q361.60938 29.690624 360.84375 29.01875Q360.07812 28.346874 359.95312 27.26875ZM369.98438 26.346874Q369.98438 25.534374 370.39062 24.76875Q370.79688 23.9875 371.53125 23.596874Q372.26562 23.190624 373.1875 23.190624Q374.59375 23.190624 375.5 24.1125Q376.40625 25.01875 376.40625 26.425Q376.40625 27.83125 375.48438 28.76875Q374.57812 29.690624 373.20312 29.690624Q372.34375 29.690624 371.5625 29.3Q370.79688 28.909374 370.39062 28.175Q369.98438 27.425 369.98438 26.346874ZM371.67188 26.440624Q371.67188 27.3625 372.10938 27.8625Q372.54688 28.346874 373.1875 28.346874Q373.84375 28.346874 374.26562 27.8625Q374.70312 27.3625 374.70312 26.425Q374.70312 25.51875 374.26562 25.034374Q373.84375 24.534374 373.1875 24.534374Q372.54688 24.534374 372.10938 25.034374Q371.67188 25.51875 371.67188 26.440624ZM383.01562 29.55L381.375 29.55L381.375 26.378124Q381.375 25.3625 381.26562 25.065624Q381.17188 24.76875 380.92188 24.6125Q380.6875 24.440624 380.35938 24.440624Q379.92188 24.440624 379.57812 24.675Q379.25 24.909374 379.125 25.3Q379.0 25.690624 379.0 26.7375L379.0 29.55L377.34375 29.55L377.34375 23.33125L378.875 23.33125L378.875 24.2375Q379.6875 23.190624 380.9375 23.190624Q381.46875 23.190624 381.92188 23.39375Q382.375 23.58125 382.60938 23.89375Q382.84375 24.190624 382.92188 24.58125Q383.01562 24.95625 383.01562 25.675L383.01562 29.55ZM387.375 29.55L387.375 20.95625L393.75 20.95625L393.75 22.409374L389.10938 22.409374L389.10938 24.315624L393.42188 24.315624L393.42188 25.76875L389.10938 25.76875L389.10938 28.096874L393.90625 28.096874L393.90625 29.55L387.375 29.55ZM394.34375 29.55L394.34375 20.95625L396.95312 20.95625L398.5 26.815624L400.04688 20.95625L402.64062 20.95625L402.64062 29.55L401.03125 29.55L401.03125 22.784374L399.32812 29.55L397.65625 29.55L395.96875 22.784374L395.96875 29.55L394.34375 29.55ZM404.375 29.55L404.375 20.95625L408.03125 20.95625Q409.40625 20.95625 410.03125 21.190624Q410.65625 21.425 411.03125 22.01875Q411.40625 22.6125 411.40625 23.3625Q411.40625 24.33125 410.82812 24.971874Q410.26562 25.596874 409.14062 25.753124Q409.70312 26.08125 410.0625 26.4875Q410.4375 26.878124 411.04688 27.878124L412.10938 29.55L410.03125 29.55L408.78125 27.675Q408.10938 26.675 407.85938 26.425Q407.60938 26.159374 407.32812 26.065624Q407.0625 25.95625 406.46875 25.95625L406.10938 25.95625L406.10938 29.55L404.375 29.55ZM406.10938 24.596874L407.39062 24.596874Q408.64062 24.596874 408.95312 24.4875Q409.26562 24.378124 409.4375 24.128124Q409.625 23.8625 409.625 23.471874Q409.625 23.05 409.39062 22.784374Q409.15625 22.51875 408.73438 22.440624Q408.51562 22.409374 407.46875 22.409374L406.10938 22.409374L406.10938 24.596874Z" fill-rule="nonzero"/></svg>